<?xml version="1.0" encoding="UTF-8" standalone="no"?>
<!-- Created with Inkscape (http://www.inkscape.org/) -->

<svg
   xmlns:dc="http://purl.org/dc/elements/1.1/"
   xmlns:cc="http://creativecommons.org/ns#"
   xmlns:rdf="http://www.w3.org/1999/02/22-rdf-syntax-ns#"
   xmlns:svg="http://www.w3.org/2000/svg"
   xmlns="http://www.w3.org/2000/svg"
   xmlns:xlink="http://www.w3.org/1999/xlink"
   xmlns:sodipodi="http://sodipodi.sourceforge.net/DTD/sodipodi-0.dtd"
   xmlns:inkscape="http://www.inkscape.org/namespaces/inkscape"
   width="600"
   height="270"
   id="svg13348"
   version="1.1"
   inkscape:version="0.48.4 r9939"
   sodipodi:docname="antenna.svg"
   inkscape:export-filename="/home/marcus/src/gr-nutshelled/heterodyne.png"
   inkscape:export-xdpi="90"
   inkscape:export-ydpi="90">
  <defs
     id="defs13350"
     style="stroke-linecap:square;stroke-linejoin:round">
    <clipPath
       id="pdb56fa9657-7">
      <rect
         id="rect12327-7"
         y="14.4"
         x="54"
         width="334.79999"
         height="115.2"
         style="stroke-linecap:square;stroke-linejoin:round" />
    </clipPath>
  </defs>
  <sodipodi:namedview
     id="base"
     pagecolor="#ffffff"
     bordercolor="#666666"
     borderopacity="1.0"
     inkscape:pageopacity="0.0"
     inkscape:pageshadow="2"
     inkscape:zoom="0.98994949"
     inkscape:cx="170.80208"
     inkscape:cy="97.827812"
     inkscape:document-units="px"
     inkscape:current-layer="layer1"
     showgrid="false"
     inkscape:window-width="1278"
     inkscape:window-height="780"
     inkscape:window-x="0"
     inkscape:window-y="18"
     inkscape:window-maximized="0"
     fit-margin-top="0"
     fit-margin-left="0"
     fit-margin-right="0"
     fit-margin-bottom="0"
     inkscape:object-nodes="true" />
  <metadata
     id="metadata13353">
    <rdf:RDF>
      <cc:Work
         rdf:about="">
        <dc:format>image/svg+xml</dc:format>
        <dc:type
           rdf:resource="http://purl.org/dc/dcmitype/StillImage" />
        <dc:title></dc:title>
      </cc:Work>
    </rdf:RDF>
  </metadata>
  <g
     inkscape:label="Layer 1"
     inkscape:groupmode="layer"
     id="layer1"
     transform="translate(-2.5599569,31.054008)">
    <line
       style="fill:none;stroke:#000080;stroke-width:3;stroke-linecap:square;stroke-linejoin:round"
       x1="445.48868"
       y1="7.5959949"
       x2="524.7887"
       y2="7.5959949"
       id="line2647" />
    <path
       style="fill:#000080;stroke-linecap:square;stroke-linejoin:round"
       inkscape:connector-curvature="0"
       d="m 522.98869,7.5959947 -3.9,-6.5 0.2,-0.1 10.6,4.2 c 3.7,0.8 7.4,1.6 11.1,2.4 -3.7,0.8 -7.4,1.6 -11.1,2.4 l -10.6,4.2000033 -0.2,-0.1 3.9,-6.5000033 z"
       id="path2649" />
    <line
       style="fill:none;stroke:#008000;stroke-width:3;stroke-linecap:square;stroke-linejoin:round"
       x1="445.48868"
       y1="200.29599"
       x2="524.7887"
       y2="200.29599"
       id="line2655" />
    <path
       style="fill:#008000;stroke-linecap:square;stroke-linejoin:round"
       inkscape:connector-curvature="0"
       d="m 522.98869,200.296 -3.9,-6.5 0.2,-0.1 10.6,4.2 c 3.7,0.8 7.4,1.6 11.1,2.4 -3.7,0.8 -7.4,1.6 -11.1,2.4 l -10.6,4.2 -0.2,-0.1 3.9,-6.5 z"
       id="path2657" />
    <g
       style="stroke-linecap:square;stroke-linejoin:round"
       id="layer1-3"
       transform="matrix(0.22569872,0,0,0.22569872,156.48781,-13.187122)">
      <g
         style="stroke-linecap:square;stroke-linejoin:round"
         id="g4485">
        <path
           d="M 342.86,203.79 125.71,949.51"
           id="path3363"
           inkscape:connector-curvature="0"
           style="fill:none;stroke:#000000;stroke-width:5;stroke-linecap:round;stroke-linejoin:round" />
        <use
           x="0"
           y="0"
           xlink:href="#path3363"
           id="use4481"
           style="fill:none;stroke-width:5;stroke-linecap:round;stroke-linejoin:round"
           width="1"
           height="1" />
      </g>
      <path
         d="m 324.16,267.99 50.578,44.939 -80.922,59.27 123.82,84.804 -183.33,119.56 272.66,189.67"
         id="path4496"
         inkscape:connector-curvature="0"
         style="fill:none;stroke:#000000;stroke-width:5;stroke-linecap:round;stroke-linejoin:round" />
      <use
         style="stroke-linecap:square;stroke-linejoin:round"
         x="0"
         y="0"
         width="744.09448"
         height="1052.3622"
         transform="matrix(-1,0,0,1,686.71,0)"
         xlink:href="#g4485"
         id="use4494" />
      <use
         style="stroke-linecap:square;stroke-linejoin:round"
         x="0"
         y="0"
         width="744.09448"
         height="1052.3622"
         transform="matrix(-1,0,0,1,686.85,2.6172e-6)"
         xlink:href="#path4496"
         id="use4498" />
      <path
         stroke-miterlimit="2"
         transform="translate(208.52,49.854)"
         d="m 91.147,169.34 a 46.496,46.496 0 1 1 87.384,1e-5"
         id="path5294"
         inkscape:connector-curvature="0"
         style="fill:none;stroke:#000000;stroke-width:5;stroke-linecap:round;stroke-linejoin:round;stroke-miterlimit:2;stroke-opacity:0.49412004" />
      <path
         stroke-miterlimit="2"
         transform="translate(12.46,53.728)"
         d="m 244.24,181.1 a 92.217,92.217 0 1 1 173.31,1e-5"
         id="path5296"
         inkscape:connector-curvature="0"
         style="fill:none;stroke:#000000;stroke-width:5;stroke-linecap:round;stroke-linejoin:round;stroke-miterlimit:2;stroke-opacity:0.49412004" />
    </g>
    <g
       id="line2d_1"
       style="stroke-linecap:square;stroke-linejoin:round"
       transform="matrix(0.75561272,0,0,0.75561272,-35.689114,-18.019928)">
      <path
         id="path11993"
         style="fill:none;stroke:#0000ff;stroke-linecap:square;stroke-linejoin:round"
         d="m 54,75.6501 0.3008,-2.8614 0.6016,8.5349 0.3009,-10.2251 0.3008,-1.275 0.3008,2.4184 0.3008,1.3178 0.3008,-2.9423 0.3008,-6.917 0.3009,5.8314 0.3008,-1.5634 0.3008,5.5242 0.3008,1.7273 0.3008,-12.6414 0.3008,5.2572 0.3009,-5.8334 0.3008,1.9773 0.3008,-4.3728 0.3008,-2.4986 0.3008,6.1543 0.3008,0.217 0.6017,-11.2325 0.3008,12.2323 0.3008,-0.887 0.6016,-3.1116 0.6017,-5.824 0.3008,-1.0677 0.3008,6.1044 0.3008,1.6587 0.3008,-0.3493 0.3009,-6.4421 0.3008,4.1615 0.3008,1.2312 0.3008,-0.6847 0.6016,-6.3326 0.3009,-1.831 0.3008,-0.4094 0.3008,4.3291 0.3008,-2.8712 0.3008,-0.102 0.3008,-8.0097 0.3009,4.5129 0.3008,0.0552 0.3008,3.5035 0.3008,-5.357 0.3008,4.1275 0.6017,-0.2209 0.3008,4.4354 0.3008,-9.439 0.3008,2.7888 0.3008,-5.6783 0.3008,6.1482 0.3009,-1.0834 0.3008,-0.1356 0.3008,-1.4064 0.3008,-0.768 0.3008,-5.8946 0.3008,7.3956 0.3009,-1.1994 0.3008,-4.3752 0.3008,8.9889 0.3008,-7.4702 0.3008,-10.4438 0.3008,12.4781 0.3009,-7.93 0.3008,6.7324 0.3008,-6.7439 0.3008,2.1324 0.3008,-6.3353 0.3008,14.6652 0.3009,-8.1341 0.3008,1.9524 0.3008,-6.1007 0.3008,4.5867 0.3008,2.8664 0.3008,-3.527 0.3009,-2.2067 0.3008,-0.4214 0.3008,6.7262 0.3008,-9.1894 0.3008,-1.9568 0.3008,4.544 0.3009,-6.4648 0.3008,5.6075 0.3008,2.9682 0.3008,-1.282 0.3008,0.3323 0.3008,-0.9383 0.3009,0.0973 0.3008,-4.4174 0.3008,8.029 0.3008,-17.3844 0.3008,16.143 0.3008,-6.5268 0.3009,-3.7004 0.3008,0.2823 0.3008,8.0523 0.3008,-1.7758 0.3008,-0.3913 0.3008,-0.0593 0.3009,2.3202 0.3008,-0.9285 0.3008,-3.768 0.3008,3.9294 0.3008,-0.183 0.3008,-8.5205 0.3009,1.8086 0.3008,10.0406 0.3008,-7.8214 0.3008,2.6708 0.3008,-6.4301 0.3008,4.9658 0.3009,0.2467 0.3008,0.4315 0.3008,-1.9436 0.3008,0.2859 0.3008,6.0261 0.3008,-9.8041 0.3009,4.9676 0.3008,-5.9662 0.3008,0.2208 0.3008,2.5026 0.3008,-5.1372 0.3008,9.5347 0.3009,2.9774 0.3008,0.3112 0.3008,-6.3592 0.6016,-1.6782 0.3008,8.7293 0.3009,-3.9326 0.3008,6.0647 0.3008,-6.9675 0.3008,1.4225 0.3008,-2.4997 0.3008,0.6417 0.3009,-3.0237 0.3008,1.4087 0.3008,2.4304 0.3008,0.8396 0.3008,-5.2344 0.3008,4.067 0.3009,0.1997 0.3008,5.0725 0.3008,-5.713 0.3008,-3.1252 0.3008,-0.8757 0.3009,9.4623 0.301,0.3807 0.301,-3.77 0.3,2.0416 0.301,-8.5739 0.301,7.7061 0.301,-4.2676 0.301,6.7279 0.3,-9.3915 0.301,2.3452 0.301,4.9289 0.301,-0.1054 0.301,-2.8819 0.301,-0.9083 0.3,3.9546 0.301,-7.6395 0.301,11.1625 0.602,3.6954 0.3,-2.9818 0.301,-5.1296 0.301,1.5119 0.301,3.4096 0.301,1.0947 0.301,-2.2116 0.3,5.1077 0.301,-8.4523 0.301,1.9777 0.602,8.5334 0.3,-5.4556 0.301,3.9979 0.301,1.0948 0.301,-8.335 0.602,10.2032 0.3,-8.4323 0.301,5.0997 0.602,-2.3064 0.301,-1.5065 0.3,8.6738 0.301,2.8679 0.301,0.7469 0.301,-10.258 0.301,5.5085 0.301,-1.8625 0.3,-4.6736 0.301,3.2766 0.301,0.2351 0.301,8.9186 0.301,-6.586 0.3,-2.1378 0.301,5.0646 0.301,-3.9018 0.301,-0.1868 0.301,4.1206 0.3,0.962 0.301,5.7864 0.602,-6.5877 0.301,2.18 0.301,-0.1718 0.3,11.7654 0.301,-12.4086 0.301,4.7977 0.301,0.8862 0.301,-9.4637 0.601,15.4913 0.301,-7.4953 0.301,11.0658 0.301,-7.7149 0.301,3.1664 0.3,0.9341 0.301,-1.1874 0.301,-9.4181 0.301,11.3715 0.301,0.2531 0.3,-6.0274 0.301,5.4522 0.301,-7.7537 0.301,7.064 0.301,-2.4045 0.301,5.6578 0.3,1.281 0.301,-1.4789 0.301,3.4059 0.301,1.301 0.301,-7.124 0.3,3.3735 0.301,6.1582 0.301,-2.7763 0.301,-1.6478 0.301,0.1694 0.301,2.1365 0.3,-2.9724 0.301,-1.6131 0.301,6.9817 0.301,-2.6951 0.301,3.6047 0.3,-0.7378 0.301,0.8608 0.301,-4.4864 0.301,1.9446 0.301,0.2976 0.601,3.6025 0.301,-2.7038 0.301,0.4357 0.301,4.9954 0.301,-1.6236 0.3,4.7739 0.602,-7.8602 0.301,6.2658 0.301,-4.261 0.3,8.9464 0.301,-1.8152 0.301,-7.9226 0.301,9.0499 0.301,-1.2375 0.301,-0.1046 0.3,-4.5721 0.301,2.6409 0.301,-0.3028 0.301,1.097 0.301,2.2844 0.3,4.7657 0.301,-3.0878 0.301,9.0498 0.301,-5.2759 0.301,-11.9075 0.301,9.2005 0.3,-1.1016 0.301,-4.5108 0.301,9.7823 0.301,-2.0344 0.301,0.6832 0.3,4.1012 0.602,-4.6639 0.301,1.7404 0.301,-4.2019 0.301,0.0748 0.3,12.5936 0.301,-11.7542 0.301,12.7502 0.301,-9.6339 0.301,5.9724 0.3,0.0978 0.301,-9.8517 0.602,11.4834 0.301,-1.6335 0.301,2.4565 0.3,0.413 0.301,-2.8303 0.301,-0.8682 0.602,1.6537 0.3,-0.6083 0.301,13.5181 0.602,-9.524 0.301,0.358 0.3,-2.9033 0.301,-1.6266 0.301,7.7069 0.301,0.759 0.301,-2.385 0.301,0.461 0.3,-1.476 0.301,0.52 0.301,-2.22 0.301,-4.2548 0.301,2.3922 0.3,6.8566 0.301,-0.4 0.301,1.228 0.301,-4.249 0.301,3.461 0.301,1.058 0.3,3.795 0.301,-9.032 0.301,0.967 0.301,5.135 0.301,-10.0262 0.3,2.8822 0.301,5.642 0.301,-0.386 0.301,1.149 0.301,-5.508 0.301,0.315 0.3,11.565 0.301,-2.528 0.301,3.384 0.301,-6.087 0.301,0.021 0.3,-4.964 0.301,4.219 0.301,1.125 0.301,-3.558 0.301,6.976 0.301,-0.765 0.601,0.737 0.903,-2.446 0.3,-0.137 0.301,0.623 0.301,-2.626 0.301,-1.081 0.301,4.015 0.301,-0.847 0.3,0.287 0.301,0.622 0.301,-2.232 0.301,7.519 0.301,-0.381 0.3,-1.742 0.301,-4.935 0.301,-1.177 0.301,-5.989 0.301,14.793 0.3,-2.971 0.301,-6.071 0.301,-2.848 0.301,3.907 0.301,1.305 0.601,-5.966 0.301,1.792 0.301,9 0.301,-8.773 0.301,0.802 0.3,2.483 0.301,-2.088 0.301,3.42 0.301,-2.505 0.301,1.315 0.301,4.496 0.3,-4.851 0.301,-1.765 0.301,1.558 0.301,0.164 0.601,-1.973 0.602,3.857 0.301,1.414 0.301,-7.658 0.301,1.727 0.3,-0.985 0.301,10.974 0.301,-8.213 0.301,-1.384 0.301,-5.35 0.3,-0.509 0.301,4.6 0.301,-1.195 0.301,-3.025 0.602,9.224 0.3,-8.593 0.301,-0.991 0.301,4.724 0.301,-1.526 0.301,1.632 0.3,-4.205 0.301,0.806 0.301,4.422 0.301,-3.948 0.602,5.513 0.3,-6.007 0.301,0.448 0.301,1.8 0.301,1.044 0.301,-2.99 0.3,4.125 0.301,-13.9793 0.301,9.7823 0.301,-6.5147 0.301,-0.9896 0.3,-0.0572 0.301,3.5013 0.301,-0.5133 0.301,-4.8222 0.301,1.8143 0.301,-0.6304 0.3,-6.3015 0.301,7.8236 0.301,-0.2423 0.301,-4.4816 0.301,10.8116 0.3,-4.3095 0.301,-8.3652 0.301,-1.0597 0.301,11.8194 0.301,-12.9642 0.301,8.8516 0.3,0.2901 0.301,-5.0907 0.301,3.1779 0.301,-4.3233 0.301,4.7988 0.3,0.1508 0.301,-8.7611 0.301,0.2259 0.301,-3.3414 0.301,12.645 0.301,-8.6252 0.3,9.3435 0.301,-14.4075 0.301,9.1203 0.301,0.1452 0.301,-9.0449 0.3,1.4068 0.301,3.0578 0.301,-1.727 0.301,-4.1021 0.301,2.3029 0.301,3.17 0.3,-4.8552 0.301,2.9809 0.301,-9.038 0.301,-0.5143 0.301,8.5135 0.3,-9.94 0.301,4.3854 0.301,-4.8554 0.301,-1.2456 0.301,9.7955 0.3,0.655 0.301,-4.1073 0.301,-1.1274 0.301,-3.4295 0.301,6.0065 0.301,-1.3945 0.3,-0.802 0.301,4.2026 0.301,-3.4262 0.301,-8.6098 0.301,0.7435 0.3,-5.5612 0.602,14.7515 0.301,-10.38 0.301,1.4658 0.301,-2.2794 0.3,0.3405 0.301,4.876 0.301,-4.2873 0.301,-6.5777 0.301,6.204 0.3,-6.906 0.301,1.5433 0.301,4.64 0.301,-7.3144 0.301,8.6762 0.301,-8.3707 0.3,11.4097 0.301,-7.2501 0.301,12.6105 0.301,-14.1212 0.301,-0.5173 0.3,-1.2398 0.301,9.2028 0.301,-16.2184 0.301,4.3369 0.301,0.6867 0.301,-2.7129 0.3,-0.4358 0.301,2.4478 0.301,-12.2846 0.301,15.9606 0.301,-7.2787 0.3,-0.5154 0.301,-2.1433 0.301,2.4537 0.301,-2.0063 0.301,-0.302 0.301,-1.8076 0.3,6.6462 0.301,-0.0685 0.301,-6.2189 0.301,2.73 0.301,-7.9902 0.3,7.813 0.301,-4.5881 0.301,0.6404 0.301,-6.5319 0.301,6.3264 0.3,-2.5017 0.301,0.5698 0.602,8.3134 0.301,-11.8613 0.301,0.0647 0.3,6.9126 0.301,-8.1349 0.301,6.0277 0.301,-2.2688 0.301,8.4227 0.3,-14.3217 0.301,4.3403 0.301,-4.4062 0.301,-0.3721 0.301,0.77 0.601,7.909 0.301,-4.0413 0.301,-0.4084 0.301,-2.3457 0.301,-5.028 0.3,8.9638 0.301,-6.3937 0.301,7.0705 0.301,-12.0324 0.301,5.8902 0.301,1.8553 0.3,0.998 0.301,-2.474 0.301,-5.2591 0.301,3.1915 0.301,1.2538 0.3,-1.3024 0.301,-2.3845 0.301,1.7688 0.301,0.9033 0.301,-2.8679 0.301,5.3528 0.3,-4.6752 0.301,0.1088 0.301,-5.3562 0.602,5.4213 0.3,1.6761 0.301,-2.9395 0.301,-1.518 0.602,2.7386 0.301,2.8843 0.3,-6.5198 0.301,-2.675 0.301,6.8504 0.301,-2.5006 0.301,-0.6234 0.3,-3.5989 0.301,1.2458 0.301,4.0037 0.301,-0.3875 0.301,-6.3199 0.601,5.8962 0.301,-3.5187 0.301,0.7277 0.301,-0.2441 0.301,-4.5842 0.3,2.717 0.301,6.5669 0.301,-2.4795 0.301,-3.8779 0.301,0.6498 0.3,6.7502 0.301,-4.3859 0.301,-0.9981 0.301,-5.8649 0.301,6.5529 0.301,-1.5126 0.3,5.9341 0.301,-1.1191 0.301,-0.5817 0.301,-5.4833 0.301,5.0422 0.3,-6.2589 0.301,1.1378 0.301,-2.612 0.301,2.1978 0.301,-3.837 0.301,6.4994 0.3,-4.9178 0.301,5.8925 0.301,-1.7927 0.301,6.9176 0.601,-5.6298 0.301,4.2431 0.301,-3.5634 0.301,-0.4321 0.301,-2.431 0.301,3.0276 0.3,-1.3324 0.301,1.9263 0.301,-1.7121 0.902,8.1133 0.301,-9.411 0.301,1.6729 0.301,3.7129 0.301,-3.8452 0.301,-7.2698 0.3,10.5499 0.301,5.3397 0.301,-5.2755 0.301,4.0168 0.301,-4.8122 0.3,-2.1168 0.301,4.457 0.301,6.2571 0.301,-7.491 0.301,0.598 0.3,8.0131 0.301,-1.1734 0.301,-9.0365 0.301,9.7955 0.301,0.6343 0.301,-9.7826 0.3,-1.7128 0.301,8.4949 0.301,-8.8428 0.301,1.9658 0.301,5.8719 0.3,-0.2433 0.301,-0.9675 0.301,-0.3528 0.301,7.2677 0.301,-8.5423 0.301,3.0652 0.3,10.1262 0.301,-9.6119 0.301,-5.955 0.301,11.6893 0.301,-0.5146 0.3,-5.0448 0.301,0.6214 0.301,-0.8806 0.301,4.4278 0.301,0.3098 0.301,7.0134 0.3,-10.604 0.301,3.8212 0.301,1.4056 0.301,6.5604 0.601,-5.4285 0.301,0.3211 0.301,0.9294 0.301,-1.5041 0.301,0.2634 0.301,0.625 0.3,-2.5449 0.301,4.6568 0.301,0.7178 0.301,-0.4782 0.301,3.7145 0.3,-3.2252 0.301,1.1088 0.301,-2.2808 0.301,13.864 0.301,-11.3859 0.601,7.1863 0.602,-3.2215 0.301,-2.1161 0.301,4.0181 0.3,-5.718 0.301,2.0602 0.301,2.8443 0.301,-3.6029 0.301,5.4133 0.3,-0.462 0.301,2.4351 0.301,-1.2937 0.301,9.6313 0.301,-10.1139 0.301,4.2829 0.3,-6.3001 0.301,13.5951 0.301,-14.6297 0.301,9.6222 0.301,2.8722 0.3,-7.7315 0.301,0.4163 0.301,3.7843 0.301,5.2384 0.301,-10.898 0.301,6.8485 0.3,0.9901 0.301,-0.2328 0.301,-8.627 0.301,11.1181 0.301,-8.7977 0.601,13.2956 0.301,-0.3866 0.301,-2.5415 0.301,2.5112 0.301,-6.4113 0.3,7.3729 0.301,-3.1865 0.301,2.2414 0.301,-3.6417 0.301,0.8141 0.3,8.6063 0.301,-3.5151 0.301,1.4462 0.602,5.4236 0.301,-10.242 0.3,0.1215 0.602,2.7175 0.602,6.5192 0.601,-2.8357 0.301,7.0602 0.301,-0.4681 0.301,-5.0655 0.601,5.2538 0.301,-0.8847 0.301,-8.593 0.301,8.7229 0.301,-0.9159 0.3,0.6781 0.301,-0.9902 0.301,-5.4362 1.203,13.862 0.301,-10.7663 0.602,5.522 0.301,-0.8406 0.3,1.4721 0.301,-3.1084 0.301,3.526 0.301,1.7808 0.301,5.1263 0.601,-8.0212 0.301,3.6619 0.301,1.0859 0.301,-2.5453 0.301,0.382 0.3,7.9914 0.301,-6.2046 0.301,11.3406 0.301,-8.4569 0.301,2.3248 0.3,-4.0577 0.301,-0.9329 0.301,1.6689 0.301,12.3788 0.301,-8.592 0.601,-1.11 0.301,4.014 0.301,-2.094 0.301,-4.5955 0.301,9.8285 0.3,3.612 0.301,-6.428 0.301,-0.335 0.301,-3.5712 0.301,8.2962 0.601,-6.875 0.301,8.554 0.301,-12.8903 0.602,15.2403 0.3,-4.254 0.301,-9.6694 0.602,13.8174 0.301,-0.921 0.3,-3.46 0.301,-0.43 0.301,2.623 0.301,-6.849 0.301,13.111 0.301,-9.041 0.3,-4.864 0.301,9.472 0.602,-6.922 0.301,5.118 0.3,-2.352 0.301,8.818 0.301,-3.591 0.301,-8.494 0.602,5.789 0.3,6.135 0.301,-10.059 0.602,4.283 0.301,5.147 0.3,-5.626 0.301,2.678 0.301,-0.203 0.301,-5.53 0.301,2.58 0.301,0.373 0.3,-5.234 0.602,8.368 0.301,-2.303 0.301,-4.893 0.3,12.835 0.301,-9.408 0.602,6.104 0.301,-5.281 0.301,2.259 0.3,-6.324 0.301,9.308 0.301,2.403 0.301,-3.511 0.301,-5.533 0.601,1.604 0.301,-0.157 0.301,-1.029 0.301,10.039 0.301,-12.502 0.3,1.166 0.301,-4.93 0.301,9.574 0.301,3.712 0.601,-9.324 0.301,10.803 0.301,-9.48 0.301,2.443 0.301,-7.971 0.3,6.146 0.301,2.727 0.301,4.045 0.602,-15.2896 0.301,6.2726 0.3,3.049 0.301,-0.454 0.301,0.553 0.301,1.42 0.301,-13.5304 0.3,11.7084 0.301,-4.389 0.301,-1.359 0.301,5.341 0.301,-7.539 0.301,7.515 0.3,1.373 0.301,-2.735 0.301,-4.252 0.301,-1.374 0.301,1.933 0.3,-0.803 0.301,1.457 0.301,-7.7916 0.301,10.5446 0.301,-6.76 0.301,-3.1016 0.3,6.5276 0.301,1.728 0.301,-6.161 0.301,-0.7755 0.301,7.5315 0.3,0.421 0.301,4.847 0.301,-12.8435 0.301,9.4125 0.301,-12.049 0.301,4.541 0.3,0.601 0.301,3.746 0.301,-5.9564 0.301,5.9834 0.301,-12.8918 0.3,9.3788 0.301,-3.0367 0.301,0.5836 0.301,-3.4513 0.301,1.5248 0.3,-0.1046 0.301,0.9064 0.301,-2.7835 0.301,-4.8112 0.301,0.7305 0.301,5.6497 0.3,3.306 0.301,-11.6786 0.301,7.9361 0.301,-7.526 0.301,1.1383 0.3,-2.5174 0.301,8.496 0.301,-9.5773 0.301,-1.9006 0.301,8.1868 0.301,-0.5165 0.3,1.5418 0.301,-0.6554 0.301,-7.1409 0.301,-3.0343 0.301,-1.4975 0.3,0.8498 0.301,2.6205 0.301,5.8041 0.301,-3.9753 0.301,3.9401 0.301,-5.6035 0.3,-2.8332 0.602,3.0422 0.301,-4.7829 0.301,1.4436 0.3,-0.5747 0.301,0.0734 0.301,-5.8234 0.301,1.8215 0.301,4.776 0.301,2.9217 0.3,-4.4012 0.301,4.3693 0.301,-8.2514 0.301,2.3989 0.301,-0.0557 0.3,3.2443 0.602,-7.8421 0.301,4.8026 0.301,-4.3433 0.601,5.8609 0.602,-10.8216 0.301,-1.0911 0,0"
         clip-path="url(#pdb56fa9657-7)"
         inkscape:connector-curvature="0" />
    </g>
    <path
       style="fill:none;stroke:#0000ff;stroke-width:3;stroke-linecap:butt;stroke-linejoin:miter;stroke-miterlimit:4;stroke-opacity:1;stroke-dasharray:none"
       d="m 233.41116,38.18173 0,145.71429 78.57143,0"
       id="path15515"
       inkscape:connector-curvature="0"
       sodipodi:nodetypes="ccc" />
    <text
       xml:space="preserve"
       style="font-size:13.22143364px;font-style:normal;font-variant:normal;font-weight:normal;font-stretch:normal;text-align:start;line-height:125%;letter-spacing:0px;word-spacing:0px;writing-mode:lr-tb;text-anchor:start;fill:#000000;fill-opacity:1;stroke:none;font-family:Bitstream Vera Serif;-inkscape-font-specification:Bitstream Vera Serif"
       x="253.33421"
       y="51.481266"
       id="text16025"
       sodipodi:linespacing="125%"><tspan
         sodipodi:role="line"
         id="tspan16027"
         x="253.33421"
         y="51.481266">900 MHz</tspan></text>
    <g
       style="stroke-linecap:square;stroke-linejoin:round"
       id="g2545"
       transform="matrix(0.48659552,0,0,0.48659552,331.13842,6.6081687)">
      <path
         style="stroke-linecap:square;stroke-linejoin:round"
         inkscape:connector-curvature="0"
         d="m 143.1,133.7 c 0.9,0.7 1.4,1.4 1.4,2.2 0,0.3 -0.1,0.7 -0.4,1 -0.3,0.3 -0.6,0.4 -1.1,0.4 -0.4,0 -0.7,-0.1 -1,-0.4 -0.3,-0.3 -0.5,-0.6 -0.6,-1.1 l -0.2,-0.8 c -0.1,-0.6 -0.4,-0.9 -0.7,-1.2 -0.3,-0.2 -0.8,-0.3 -1.4,-0.3 -1.2,0 -2.2,0.5 -3,1.6 -0.8,1.1 -1.2,2.4 -1.2,4.1 0,1.6 0.4,3 1.3,4.2 0.9,1.2 2.1,1.9 3.6,1.9 1.1,0 2,-0.4 2.9,-1.1 0.5,-0.4 1,-1 1.6,-1.9 l 0.4,0.3 c -0.6,1.3 -1.2,2.2 -1.9,3 -1.3,1.4 -2.7,2.1 -4.4,2.1 -1.6,0 -3.1,-0.6 -4.3,-1.9 -1.2,-1.3 -1.9,-3 -1.9,-5.2 0,-2.2 0.7,-4 2,-5.6 1.4,-1.6 3.1,-2.3 5.2,-2.3 1.7,0 2.8,0.3 3.7,1 z"
         id="path2547" />
      <path
         style="stroke-linecap:square;stroke-linejoin:round"
         inkscape:connector-curvature="0"
         d="m 148.8,134.9 c 1.3,-1.4 3,-2.2 5.1,-2.2 2.1,0 3.8,0.7 5.1,2 1.4,1.4 2,3.2 2,5.4 0,2.1 -0.7,3.9 -2,5.4 -1.3,1.5 -3,2.3 -5.1,2.3 -2,0 -3.7,-0.7 -5.1,-2.2 -1.4,-1.5 -2.1,-3.3 -2.1,-5.5 0.1,-2 0.8,-3.8 2.1,-5.2 z m 2.5,-0.4 c -1,0.9 -1.6,2.6 -1.6,4.9 0,1.9 0.4,3.6 1.3,5.2 0.8,1.6 2,2.4 3.5,2.4 1.2,0 2.1,-0.5 2.7,-1.6 0.6,-1.1 0.9,-2.5 0.9,-4.2 0,-1.8 -0.4,-3.5 -1.2,-5.1 -0.8,-1.6 -2,-2.4 -3.5,-2.4 -0.8,0 -1.5,0.3 -2.1,0.8 z"
         id="path2549" />
      <path
         style="stroke-linecap:square;stroke-linejoin:round"
         inkscape:connector-curvature="0"
         d="m 163.7,142.4 h 0.5 c 0.2,1.2 0.6,2.1 1,2.7 0.7,1.2 1.8,1.8 3.2,1.8 0.8,0 1.4,-0.2 1.8,-0.6 0.4,-0.4 0.7,-1 0.7,-1.7 0,-0.4 -0.1,-0.9 -0.4,-1.3 -0.3,-0.4 -0.7,-0.8 -1.4,-1.2 l -1.7,-1 c -1.3,-0.7 -2.2,-1.4 -2.8,-2.1 -0.6,-0.7 -0.9,-1.5 -0.9,-2.5 0,-1.2 0.4,-2.1 1.3,-2.9 0.9,-0.8 1.9,-1.1 3.1,-1.1 0.6,0 1.2,0.1 1.8,0.3 0.7,0.2 1,0.3 1.1,0.3 0.2,0 0.3,0 0.4,-0.1 0.1,-0.1 0.2,-0.1 0.2,-0.2 h 0.4 l 0.1,4.4 h -0.5 c -0.2,-1 -0.5,-1.8 -0.8,-2.4 -0.6,-1 -1.6,-1.6 -2.8,-1.6 -0.7,0 -1.3,0.2 -1.7,0.7 -0.4,0.4 -0.6,1 -0.6,1.6 0,1 0.7,1.8 2.2,2.6 l 2.1,1.1 c 2.2,1.2 3.3,2.6 3.3,4.2 0,1.2 -0.5,2.2 -1.4,3 -0.9,0.8 -2.1,1.2 -3.6,1.2 -0.6,0 -1.3,-0.1 -2.1,-0.3 -0.8,-0.2 -1.3,-0.3 -1.4,-0.3 -0.1,0 -0.2,0 -0.3,0.1 -0.1,0.1 -0.2,0.2 -0.2,0.3 h -0.4 v -5 z"
         id="path2551" />
      <path
         style="stroke-linecap:square;stroke-linejoin:round"
         inkscape:connector-curvature="0"
         d="m 183.4,147 c 3.8,-4 6.4,-6.9 7.7,-8.7 1.4,-1.9 2,-3.7 2,-5.4 0,-1.5 -0.4,-2.7 -1.2,-3.5 -0.8,-0.8 -1.8,-1.2 -3,-1.2 -1.4,0 -2.6,0.5 -3.5,1.6 -0.5,0.6 -1,1.5 -1.4,2.6 l -0.7,-0.1 c 0.5,-2.4 1.4,-4.1 2.6,-5 1.2,-0.9 2.6,-1.4 4,-1.4 1.8,0 3.2,0.6 4.3,1.7 1.1,1.1 1.6,2.5 1.6,4.1 0,1.7 -0.6,3.4 -1.8,4.9 -1.2,1.6 -3.7,4.4 -7.6,8.5 h 7.1 c 1,0 1.7,-0.1 2.1,-0.4 0.4,-0.2 0.9,-0.8 1.4,-1.7 l 0.4,0.2 -1.7,4.4 H 183.2 V 147 z"
         id="path2553" />
      <path
         style="stroke-linecap:square;stroke-linejoin:round"
         inkscape:connector-curvature="0"
         d="m 204.1,136.7 c 0,4.3 -0.3,7.2 -0.8,8.8 -0.3,0.8 -0.6,1.4 -1,1.8 -0.4,0.3 -0.9,0.5 -1.5,0.5 -0.6,0 -1.1,-0.1 -1.4,-0.4 -0.3,-0.3 -0.6,-0.6 -0.7,-1 -0.1,-0.4 -0.2,-0.9 -0.2,-1.4 0,-0.5 0,-1 -0.1,-1.5 h 0.8 c 0,0.4 0.1,0.8 0.3,1.2 0.2,0.4 0.6,0.7 1,0.7 1,0 1.7,-0.9 2.2,-2.7 0.4,-1.7 0.6,-4 0.6,-6.9 v -1 h -1.7 c -0.6,0 -1.1,0.2 -1.4,0.5 -0.3,0.3 -0.6,0.7 -0.7,1.2 h -0.8 c 0.1,-0.7 0.3,-1.3 0.5,-1.9 0.2,-0.5 0.5,-0.9 0.8,-1.3 0.4,-0.3 0.9,-0.6 1.5,-0.7 0.6,-0.1 1.5,-0.2 2.5,-0.2 3.8,0.1 7.1,0.1 9.9,0.2 0.5,0 0.8,-0.1 1,-0.3 0.2,-0.2 0.2,-0.4 0.3,-0.6 h 0.6 c 0,1.2 -0.3,2 -0.7,2.5 -0.4,0.4 -1,0.6 -1.9,0.6 h -1.6 v 9.4 c 0,1.5 0.4,2.3 1.4,2.3 0.4,0 0.7,-0.2 0.9,-0.5 0.2,-0.3 0.4,-0.6 0.5,-1 0.2,-0.9 0.3,-1.7 0.3,-2.6 h 0.8 c 0,0.5 0,1.1 -0.1,1.7 -0.1,0.6 -0.2,1.1 -0.5,1.7 -0.2,0.5 -0.6,0.9 -1,1.3 -0.5,0.4 -1.1,0.5 -1.9,0.6 -0.6,0 -1.2,-0.1 -1.6,-0.3 -0.4,-0.2 -0.8,-0.5 -1,-0.9 -0.5,-0.8 -0.7,-1.6 -0.7,-2.6 v -9.1 h -4.5 v 1.9 z"
         id="path2555" />
      <path
         style="stroke-linecap:square;stroke-linejoin:round"
         inkscape:connector-curvature="0"
         d="m 229.2,128.6 c -0.2,0.3 -0.6,0.4 -1,0.4 -0.4,0 -0.7,-0.1 -0.9,-0.3 -0.2,-0.2 -0.3,-0.5 -0.3,-0.8 0,-0.2 0.1,-0.6 0.3,-1.1 0,-0.1 -0.1,-0.3 -0.2,-0.4 -0.1,-0.1 -0.3,-0.1 -0.4,-0.1 -0.8,0 -1.4,0.8 -2,2.5 -0.3,1 -0.6,2.6 -1,4.9 h 3.5 l -0.2,1.1 h -3.6 l -3,10.2 c -0.6,2.7 -1.5,4.9 -2.5,6.6 -1.1,1.7 -2.4,2.5 -4.1,2.5 -0.8,0 -1.4,-0.2 -1.9,-0.6 -0.5,-0.4 -0.7,-0.9 -0.7,-1.4 0,-0.3 0.1,-0.6 0.3,-0.9 0.2,-0.3 0.5,-0.4 0.9,-0.4 0.4,0 0.7,0.1 0.9,0.3 0.2,0.2 0.4,0.5 0.4,0.9 0,0.2 -0.1,0.4 -0.2,0.6 -0.1,0.2 -0.2,0.3 -0.2,0.4 0,0.1 0.1,0.2 0.2,0.2 0.1,0.1 0.3,0.1 0.5,0.1 0.9,0 1.6,-0.7 2.3,-2.1 0.3,-0.7 0.6,-1.7 0.9,-3 l 3.7,-13.4 H 218 l 0.2,-1.1 h 3 c 0.6,-2.4 1.2,-4.2 1.9,-5.4 1.1,-1.8 2.4,-2.7 3.9,-2.7 0.7,0 1.3,0.2 1.8,0.6 0.5,0.4 0.7,0.9 0.7,1.4 0.1,0.4 -0.1,0.7 -0.3,1 z"
         id="path2557" />
      <path
         style="stroke-linecap:square;stroke-linejoin:round"
         inkscape:connector-curvature="0"
         d="m 233.1,142.3 c 0.7,1.3 1,2.7 1,4.4 0,1.3 -0.2,2.5 -0.6,3.7 -0.8,2.2 -2.1,3.2 -4,3.2 -1.3,0 -2.3,-0.6 -3.2,-1.7 -0.9,-1.2 -1.3,-2.9 -1.3,-5.1 0,-1.7 0.3,-3.1 0.9,-4.3 0.8,-1.6 2,-2.5 3.7,-2.5 1.5,0 2.7,0.8 3.5,2.3 z m -1.5,9.2 c 0.4,-1 0.5,-2.6 0.5,-4.5 0,-1.6 -0.1,-2.8 -0.3,-3.8 -0.4,-1.8 -1.2,-2.6 -2.3,-2.6 -1.1,0 -1.9,0.9 -2.3,2.7 -0.2,1 -0.3,2.2 -0.3,3.8 0,1.5 0.1,2.7 0.3,3.5 0.4,1.7 1.2,2.5 2.3,2.5 1.1,-0.1 1.8,-0.6 2.1,-1.6 z"
         id="path2559" />
      <path
         style="stroke-linecap:square;stroke-linejoin:round"
         inkscape:connector-curvature="0"
         d="m 236.1,146.1 c 0,-0.1 0,-0.2 0.1,-0.3 l 3,-10.9 h -2.4 c 0,-0.3 0,-0.5 0.1,-0.5 0,-0.1 0.1,-0.1 0.3,-0.2 1.1,-0.5 1.9,-0.9 2.5,-1.3 0.6,-0.4 1.4,-1.2 2.4,-2.4 l 0.2,-0.3 c 0,0 0.1,-0.1 0.1,-0.1 0,0 0.1,0 0.1,0 0.1,0 0.2,0 0.2,0.1 0,0.1 0,0.1 0.1,0.2 0,0.1 0,0.1 0,0.2 l -0.9,3.4 h 2.6 l -0.2,1.1 h -2.7 l -2.9,10.5 c -0.1,0.2 0,0.4 0,0.5 0,0.1 0.2,0.3 0.4,0.3 0.3,0 0.7,-0.3 1.1,-0.8 0.3,-0.3 0.8,-0.9 1.4,-1.7 l 0.4,0.2 -0.2,0.3 c -0.9,1.3 -1.7,2.3 -2.4,2.8 -0.7,0.5 -1.3,0.8 -1.9,0.8 -0.5,0 -0.9,-0.1 -1.2,-0.4 -0.2,-0.3 -0.4,-0.6 -0.4,-1 0.2,-0.3 0.2,-0.4 0.2,-0.5 z"
         id="path2561" />
    </g>
    <g
       style="stroke-linecap:square;stroke-linejoin:round"
       id="g2563"
       transform="matrix(0.48489414,0,0,0.48489414,334.17429,45.816766)">
      <path
         style="stroke-linecap:square;stroke-linejoin:round"
         inkscape:connector-curvature="0"
         d="m 137.2,184.8 v 1.6 H 121 v -1.6 h 16.2 z"
         id="path2565" />
      <path
         style="stroke-linecap:square;stroke-linejoin:round"
         inkscape:connector-curvature="0"
         d="m 138.8,187.8 h 0.5 c 0.2,1.2 0.6,2.1 1,2.7 0.7,1.2 1.8,1.8 3.2,1.8 0.8,0 1.4,-0.2 1.8,-0.6 0.5,-0.4 0.7,-1 0.7,-1.7 0,-0.4 -0.1,-0.9 -0.4,-1.3 -0.3,-0.4 -0.7,-0.8 -1.4,-1.2 l -1.7,-1 c -1.3,-0.7 -2.2,-1.4 -2.8,-2.1 -0.6,-0.7 -0.9,-1.5 -0.9,-2.5 0,-1.2 0.4,-2.1 1.3,-2.9 0.9,-0.8 1.9,-1.1 3.1,-1.1 0.6,0 1.2,0.1 1.8,0.3 0.7,0.2 1,0.3 1.1,0.3 0.2,0 0.3,0 0.4,-0.1 0.1,-0.1 0.2,-0.1 0.2,-0.2 h 0.4 l 0.1,4.4 h -0.5 c -0.2,-1 -0.5,-1.8 -0.8,-2.4 -0.6,-1 -1.6,-1.6 -2.8,-1.6 -0.7,0 -1.3,0.2 -1.7,0.7 -0.4,0.5 -0.6,1 -0.6,1.6 0,1 0.7,1.8 2.2,2.6 l 2.1,1.1 c 2.2,1.2 3.3,2.6 3.3,4.2 0,1.2 -0.5,2.2 -1.4,3 -0.9,0.8 -2.1,1.2 -3.6,1.2 -0.6,0 -1.3,-0.1 -2.1,-0.3 -0.8,-0.2 -1.3,-0.3 -1.4,-0.3 -0.1,0 -0.2,0 -0.3,0.1 -0.1,0.1 -0.2,0.2 -0.2,0.3 H 139 v -5 z"
         id="path2567" />
      <path
         style="stroke-linecap:square;stroke-linejoin:round"
         inkscape:connector-curvature="0"
         d="m 150.2,192.3 c 1.1,-0.1 1.8,-0.3 2.1,-0.6 0.3,-0.3 0.4,-1 0.4,-2.2 V 182 c 0,-0.7 0,-1.1 -0.1,-1.4 -0.2,-0.4 -0.5,-0.6 -1,-0.6 -0.1,0 -0.2,0 -0.3,0 -0.1,0 -0.4,0.1 -0.9,0.2 v -0.5 l 0.7,-0.2 c 1.8,-0.6 3.1,-1 3.8,-1.3 0.3,-0.1 0.5,-0.2 0.6,-0.2 0,0.1 0,0.2 0,0.2 v 11.2 c 0,1.2 0.1,1.9 0.4,2.2 0.3,0.3 0.9,0.5 1.9,0.6 v 0.4 h -7.6 v -0.3 z m 2.5,-20.9 c 0.3,-0.3 0.7,-0.5 1.2,-0.5 0.4,0 0.8,0.2 1.1,0.5 0.3,0.3 0.5,0.7 0.5,1.2 0,0.4 -0.2,0.8 -0.5,1.1 -0.3,0.3 -0.7,0.5 -1.1,0.5 -0.5,0 -0.8,-0.2 -1.2,-0.5 -0.4,-0.3 -0.5,-0.7 -0.5,-1.1 0,-0.5 0.2,-0.9 0.5,-1.2 z"
         id="path2569" />
      <path
         style="stroke-linecap:square;stroke-linejoin:round"
         inkscape:connector-curvature="0"
         d="m 159,192.3 c 0.7,-0.1 1.3,-0.3 1.6,-0.5 0.3,-0.3 0.4,-0.9 0.4,-1.8 v -8 c 0,-0.7 -0.1,-1.1 -0.2,-1.4 -0.2,-0.4 -0.6,-0.6 -1.2,-0.6 -0.1,0 -0.2,0 -0.3,0 -0.1,0 -0.2,0 -0.4,0 v -0.6 c 0.4,-0.1 1.4,-0.5 3,-1 l 1.5,-0.5 c 0.1,0 0.1,0 0.1,0.1 0,0.1 0,0.1 0,0.2 v 2.3 c 1,-0.9 1.7,-1.5 2.2,-1.9 0.8,-0.5 1.6,-0.8 2.5,-0.8 0.7,0 1.3,0.2 1.9,0.6 1.1,0.8 1.7,2.2 1.7,4.2 v 7.3 c 0,0.8 0.2,1.3 0.5,1.6 0.3,0.3 0.8,0.5 1.5,0.5 v 0.4 h -6.7 V 192 c 0.8,-0.1 1.3,-0.3 1.6,-0.6 0.3,-0.3 0.5,-1 0.5,-2.1 v -6.7 c 0,-0.9 -0.2,-1.6 -0.5,-2.2 -0.3,-0.6 -0.9,-0.9 -1.8,-0.9 -0.6,0 -1.2,0.2 -1.9,0.6 -0.4,0.2 -0.8,0.6 -1.4,1.2 v 8.8 c 0,0.8 0.2,1.3 0.5,1.5 0.3,0.3 0.9,0.4 1.6,0.4 v 0.4 H 159 v -0.1 z"
         id="path2571" />
      <path
         style="stroke-linecap:square;stroke-linejoin:round"
         inkscape:connector-curvature="0"
         d="m 183.4,192.4 c 3.8,-4 6.4,-6.9 7.7,-8.7 1.4,-1.9 2,-3.7 2,-5.4 0,-1.5 -0.4,-2.7 -1.2,-3.5 -0.8,-0.8 -1.8,-1.2 -3,-1.2 -1.4,0 -2.6,0.5 -3.5,1.6 -0.5,0.6 -1,1.5 -1.4,2.6 l -0.7,-0.1 c 0.5,-2.4 1.4,-4.1 2.6,-5 1.2,-0.9 2.6,-1.4 4,-1.4 1.8,0 3.2,0.6 4.3,1.7 1.1,1.1 1.6,2.5 1.6,4.1 0,1.7 -0.6,3.4 -1.8,4.9 -1.2,1.5 -3.7,4.4 -7.6,8.5 h 7.1 c 1,0 1.7,-0.1 2.1,-0.4 0.4,-0.2 0.9,-0.8 1.4,-1.7 l 0.4,0.2 -1.7,4.4 h -12.5 v -0.6 z"
         id="path2573" />
      <path
         style="stroke-linecap:square;stroke-linejoin:round"
         inkscape:connector-curvature="0"
         d="m 204.1,182 c 0,4.3 -0.3,7.2 -0.8,8.8 -0.3,0.8 -0.6,1.4 -1,1.8 -0.4,0.3 -0.9,0.5 -1.5,0.5 -0.6,0 -1.1,-0.1 -1.4,-0.4 -0.3,-0.3 -0.6,-0.6 -0.7,-1 -0.1,-0.4 -0.2,-0.9 -0.2,-1.4 0,-0.5 0,-1 -0.1,-1.5 h 0.8 c 0,0.4 0.1,0.8 0.3,1.2 0.2,0.4 0.6,0.7 1,0.7 1,0 1.7,-0.9 2.2,-2.7 0.4,-1.7 0.6,-4 0.6,-6.9 v -1 h -1.7 c -0.6,0 -1.1,0.2 -1.4,0.5 -0.3,0.3 -0.6,0.7 -0.7,1.2 h -0.8 c 0.1,-0.7 0.3,-1.3 0.5,-1.9 0.2,-0.5 0.5,-0.9 0.8,-1.3 0.4,-0.3 0.9,-0.6 1.5,-0.7 0.6,-0.1 1.5,-0.2 2.5,-0.2 3.8,0.1 7.1,0.1 9.9,0.2 0.5,0 0.8,-0.1 1,-0.3 0.2,-0.2 0.2,-0.4 0.3,-0.6 h 0.6 c 0,1.2 -0.3,2 -0.7,2.5 -0.4,0.4 -1,0.6 -1.9,0.6 h -1.6 v 9.4 c 0,1.5 0.4,2.3 1.4,2.3 0.4,0 0.7,-0.2 0.9,-0.5 0.2,-0.3 0.4,-0.6 0.5,-1 0.2,-0.9 0.3,-1.7 0.3,-2.6 h 0.8 c 0,0.5 0,1.1 -0.1,1.7 -0.1,0.6 -0.2,1.1 -0.5,1.7 -0.2,0.5 -0.6,0.9 -1,1.3 -0.5,0.4 -1.1,0.5 -1.9,0.6 -0.6,0 -1.2,-0.1 -1.6,-0.3 -0.4,-0.2 -0.8,-0.5 -1,-0.9 -0.5,-0.8 -0.7,-1.6 -0.7,-2.6 v -9.1 h -4.5 v 1.9 z"
         id="path2575" />
      <path
         style="stroke-linecap:square;stroke-linejoin:round"
         inkscape:connector-curvature="0"
         d="m 229.2,174 c -0.2,0.3 -0.6,0.4 -1,0.4 -0.4,0 -0.7,-0.1 -0.9,-0.3 -0.2,-0.2 -0.3,-0.5 -0.3,-0.8 0,-0.2 0.1,-0.6 0.3,-1.1 0,-0.1 -0.1,-0.3 -0.2,-0.4 -0.1,-0.1 -0.3,-0.1 -0.4,-0.1 -0.8,0 -1.4,0.8 -2,2.5 -0.3,1 -0.6,2.6 -1,4.9 h 3.5 l -0.2,1.1 h -3.6 l -3,10.2 c -0.6,2.7 -1.5,4.9 -2.5,6.6 -1.1,1.7 -2.4,2.5 -4.1,2.5 -0.8,0 -1.4,-0.2 -1.9,-0.6 -0.5,-0.4 -0.7,-0.9 -0.7,-1.4 0,-0.3 0.1,-0.6 0.3,-0.9 0.2,-0.3 0.5,-0.4 0.9,-0.4 0.4,0 0.7,0.1 0.9,0.3 0.2,0.2 0.4,0.5 0.4,0.9 0,0.2 -0.1,0.4 -0.2,0.6 -0.1,0.2 -0.2,0.3 -0.2,0.4 0,0.1 0.1,0.2 0.2,0.2 0.1,0.1 0.3,0.1 0.5,0.1 0.9,0 1.6,-0.7 2.3,-2.1 0.3,-0.7 0.6,-1.7 0.9,-3 l 3.7,-13.4 H 218 l 0.2,-1.1 h 3 c 0.6,-2.4 1.2,-4.2 1.9,-5.4 1.1,-1.8 2.4,-2.7 3.9,-2.7 0.7,0 1.3,0.2 1.8,0.6 0.5,0.4 0.7,0.9 0.7,1.4 0.1,0.4 -0.1,0.7 -0.3,1 z"
         id="path2577" />
      <path
         style="stroke-linecap:square;stroke-linejoin:round"
         inkscape:connector-curvature="0"
         d="m 233.1,187.7 c 0.7,1.3 1,2.7 1,4.4 0,1.3 -0.2,2.5 -0.6,3.7 -0.8,2.2 -2.1,3.2 -4,3.2 -1.3,0 -2.3,-0.6 -3.2,-1.7 -0.9,-1.2 -1.3,-2.9 -1.3,-5.1 0,-1.7 0.3,-3.1 0.9,-4.3 0.8,-1.6 2,-2.5 3.7,-2.5 1.5,-0.1 2.7,0.7 3.5,2.3 z m -1.5,9.1 c 0.4,-1 0.5,-2.6 0.5,-4.5 0,-1.6 -0.1,-2.8 -0.3,-3.8 -0.4,-1.8 -1.2,-2.6 -2.3,-2.6 -1.1,0 -1.9,0.9 -2.3,2.7 -0.2,1 -0.3,2.2 -0.3,3.8 0,1.5 0.1,2.7 0.3,3.5 0.4,1.7 1.2,2.5 2.3,2.5 1.1,0 1.8,-0.5 2.1,-1.6 z"
         id="path2579" />
      <path
         style="stroke-linecap:square;stroke-linejoin:round"
         inkscape:connector-curvature="0"
         d="m 236.1,191.5 c 0,-0.1 0,-0.2 0.1,-0.3 l 3,-10.9 h -2.4 c 0,-0.3 0,-0.5 0.1,-0.5 0,-0.1 0.1,-0.1 0.3,-0.2 1.1,-0.5 1.9,-0.9 2.5,-1.3 0.6,-0.4 1.4,-1.2 2.4,-2.4 l 0.2,-0.3 c 0,0 0.1,-0.1 0.1,-0.1 0,0 0.1,0 0.1,0 0.1,0 0.2,0 0.2,0.1 0,0.1 0,0.1 0.1,0.2 0,0.1 0,0.1 0,0.2 l -0.9,3.4 h 2.6 l -0.2,1.1 h -2.7 l -2.9,10.5 c -0.1,0.2 0,0.4 0,0.5 0,0.1 0.2,0.3 0.4,0.3 0.3,0 0.7,-0.3 1.1,-0.8 0.3,-0.3 0.8,-0.9 1.4,-1.7 l 0.4,0.2 -0.2,0.3 c -0.9,1.3 -1.7,2.3 -2.4,2.8 -0.7,0.5 -1.3,0.8 -1.9,0.8 -0.5,0 -0.9,-0.1 -1.2,-0.4 -0.2,-0.3 -0.4,-0.6 -0.4,-1 0.2,-0.3 0.2,-0.4 0.2,-0.5 z"
         id="path2581" />
    </g>
    <circle
       d="m 209.80001,62.400002 c 0,12.536864 -10.16314,22.7 -22.7,22.7 -12.53687,0 -22.7,-10.163136 -22.7,-22.7 0,-12.536865 10.16313,-22.700001 22.7,-22.700001 12.53686,0 22.7,10.163136 22.7,22.700001 z"
       sodipodi:ry="22.700001"
       sodipodi:rx="22.700001"
       sodipodi:cy="62.400002"
       sodipodi:cx="187.10001"
       style="fill:none;stroke:#000000;stroke-width:3;stroke-linecap:square;stroke-linejoin:round"
       cx="187.10001"
       cy="62.400002"
       r="22.700001"
       id="circle2585"
       transform="translate(235.68869,-54.804005)" />
    <line
       style="fill:none;stroke:#000000;stroke-width:3;stroke-linecap:square;stroke-linejoin:round"
       x1="411.38867"
       y1="-3.8040066"
       x2="434.08868"
       y2="18.89599"
       id="line2587" />
    <line
       style="fill:none;stroke:#000000;stroke-width:3;stroke-linecap:square;stroke-linejoin:round"
       x1="411.38867"
       y1="18.89599"
       x2="434.08868"
       y2="-3.8040066"
       id="line2589" />
    <circle
       d="m 209.80001,255.10001 c 0,12.53686 -10.16314,22.7 -22.7,22.7 -12.53687,0 -22.7,-10.16314 -22.7,-22.7 0,-12.53687 10.16313,-22.7 22.7,-22.7 12.53686,0 22.7,10.16313 22.7,22.7 z"
       sodipodi:ry="22.700001"
       sodipodi:rx="22.700001"
       sodipodi:cy="255.10001"
       sodipodi:cx="187.10001"
       style="fill:none;stroke:#000000;stroke-width:3;stroke-linecap:square;stroke-linejoin:round"
       cx="187.10001"
       cy="255.10001"
       r="22.700001"
       id="circle2601"
       transform="translate(235.68869,-54.804005)" />
    <line
       style="fill:none;stroke:#000000;stroke-width:3;stroke-linecap:square;stroke-linejoin:round"
       x1="411.38867"
       y1="188.99597"
       x2="434.08868"
       y2="211.69595"
       id="line2603" />
    <line
       style="fill:none;stroke:#000000;stroke-width:3;stroke-linecap:square;stroke-linejoin:round"
       x1="411.38867"
       y1="211.69595"
       x2="434.08868"
       y2="188.99597"
       id="line2605" />
    <line
       style="fill:none;stroke:#0000ff;stroke-width:3;stroke-linecap:square;stroke-linejoin:round"
       x1="263.98871"
       y1="183.89601"
       x2="337.68872"
       y2="183.89601"
       id="line2669" />
    <g
       style="stroke-linecap:square;stroke-linejoin:round"
       id="g2671"
       transform="translate(235.68869,-54.804005)">
      <g
         style="stroke-linecap:square;stroke-linejoin:round"
         id="g2673">
        <line
           style="fill:none;stroke:#000000;stroke-width:3;stroke-linecap:square;stroke-linejoin:round"
           x1="187.10001"
           y1="119.1"
           x2="187.10001"
           y2="96.400002"
           id="line2675" />
        <polygon
           style="stroke-linecap:square;stroke-linejoin:round"
           points="187.1,85.8 193.2,100.7 187.1,97.2 181,100.7 "
           id="polygon2677" />
      </g>
    </g>
    <g
       style="stroke-linecap:square;stroke-linejoin:round"
       id="g2679"
       transform="translate(235.68869,-54.804005)">
      <g
         style="stroke-linecap:square;stroke-linejoin:round"
         id="g2681">
        <line
           style="fill:none;stroke:#000000;stroke-width:3;stroke-linecap:square;stroke-linejoin:round"
           x1="187.10001"
           y1="198.39999"
           x2="187.10001"
           y2="221.10001"
           id="line2683" />
        <polygon
           style="stroke-linecap:square;stroke-linejoin:round"
           points="187.1,231.7 181,216.8 187.1,220.3 193.2,216.8 "
           id="polygon2685" />
      </g>
    </g>
    <polyline
       style="fill:none;stroke:#0000ff;stroke-width:3;stroke-linecap:square;stroke-linejoin:round"
       points="153.1,62.4 102,62.4 102,255.1 153.1,255.1   "
       id="polyline2777"
       transform="translate(235.68869,-54.804005)" />
    <path
       style="fill:#0000ff;stroke-linecap:square;stroke-linejoin:round"
       inkscape:connector-curvature="0"
       d="m 387.18869,200.29599 -3.3,-5.4 0.2,-0.1 8.8,3.5 c 3.1,0.7 6.1,1.4 9.2,2 -3.1,0.7 -6.1,1.4 -9.2,2 l -8.8,3.5 -0.2,-0.1 3.3,-5.4 z"
       id="path2779" />
    <path
       style="fill:#0000ff;stroke-linecap:square;stroke-linejoin:round"
       inkscape:connector-curvature="0"
       d="m 387.18869,7.5959947 -3.3,-5.4 0.2,-0.1 8.8,3.5 c 3.1,0.7 6.1,1.4 9.2,2 -3.1,0.7 -6.1,1.4 -9.2,2 l -8.8,3.4999933 -0.2,-0.1 3.3,-5.3999933 z"
       id="path2781" />
    <text
       sodipodi:linespacing="125%"
       id="text17148"
       y="108.75877"
       x="560.47705"
       style="font-size:13.22143364px;font-style:normal;font-variant:normal;font-weight:normal;font-stretch:normal;text-align:start;line-height:125%;letter-spacing:0px;word-spacing:0px;writing-mode:lr-tb;text-anchor:start;fill:#000000;fill-opacity:1;stroke:none;font-family:Bitstream Vera Serif;-inkscape-font-specification:Bitstream Vera Serif"
       xml:space="preserve"><tspan
         y="108.75877"
         x="560.47705"
         id="tspan17150"
         sodipodi:role="line">0 Hz</tspan></text>
    <g
       id="g8755"
       transform="matrix(0.79056249,0,0,0.79056249,283.37707,-72.198336)"
       style="stroke-linecap:square;stroke-linejoin:round">
      <rect
         y="64.014656"
         x="326.21848"
         height="73.837921"
         width="75.883049"
         id="rect6353"
         style="fill:#ffffff;fill-opacity:1;stroke:#000000;stroke-width:1.87838876;stroke-linecap:square;stroke-linejoin:round;stroke-miterlimit:4;stroke-opacity:1;stroke-dasharray:none;stroke-dashoffset:0" />
      <text
         sodipodi:linespacing="125%"
         id="text6355"
         y="79.902855"
         x="363.81479"
         style="font-size:14px;font-style:normal;font-variant:normal;font-weight:normal;font-stretch:normal;text-align:center;line-height:125%;letter-spacing:0px;word-spacing:0px;writing-mode:lr-tb;text-anchor:middle;fill:#000000;fill-opacity:1;stroke:none;font-family:Bitstream Vera Serif;-inkscape-font-specification:Bitstream Vera Serif"
         xml:space="preserve"><tspan
           id="tspan10925"
           y="79.902855"
           x="363.81479"
           sodipodi:role="line">Analog</tspan><tspan
           id="tspan10929"
           y="97.402855"
           x="363.81479"
           sodipodi:role="line">-to-</tspan><tspan
           id="tspan10931"
           y="114.90285"
           x="363.81479"
           sodipodi:role="line">digital</tspan><tspan
           id="tspan10933"
           y="132.40286"
           x="363.81479"
           sodipodi:role="line">converter</tspan></text>
    </g>
    <g
       style="stroke-linecap:square;stroke-linejoin:round"
       transform="matrix(0.79056249,0,0,0.79056249,283.37707,120.50166)"
       id="g17192">
      <rect
         style="fill:#ffffff;fill-opacity:1;stroke:#000000;stroke-width:1.87838876;stroke-linecap:square;stroke-linejoin:round;stroke-miterlimit:4;stroke-opacity:1;stroke-dasharray:none;stroke-dashoffset:0"
         id="rect17194"
         width="75.883049"
         height="73.837921"
         x="326.21848"
         y="64.014656" />
      <text
         xml:space="preserve"
         style="font-size:14px;font-style:normal;font-variant:normal;font-weight:normal;font-stretch:normal;text-align:center;line-height:125%;letter-spacing:0px;word-spacing:0px;writing-mode:lr-tb;text-anchor:middle;fill:#000000;fill-opacity:1;stroke:none;font-family:Bitstream Vera Serif;-inkscape-font-specification:Bitstream Vera Serif"
         x="363.81479"
         y="79.902855"
         id="text17196"
         sodipodi:linespacing="125%"><tspan
           sodipodi:role="line"
           x="363.81479"
           y="79.902855"
           id="tspan17198">Analog</tspan><tspan
           sodipodi:role="line"
           x="363.81479"
           y="97.402855"
           id="tspan17200">-to-</tspan><tspan
           sodipodi:role="line"
           x="363.81479"
           y="114.90285"
           id="tspan17202">digital</tspan><tspan
           sodipodi:role="line"
           x="363.81479"
           y="132.40286"
           id="tspan17204">converter</tspan></text>
    </g>
  </g>
</svg>
