<?xml version="1.0" encoding="utf-8" standalone="no"?>
<!DOCTYPE svg PUBLIC "-//W3C//DTD SVG 1.1//EN"
  "http://www.w3.org/Graphics/SVG/1.1/DTD/svg11.dtd">
<!-- Created with matplotlib (http://matplotlib.org/) -->
<svg height="144pt" version="1.1" viewBox="0 0 432 144" width="432pt" xmlns="http://www.w3.org/2000/svg" xmlns:xlink="http://www.w3.org/1999/xlink">
 <defs>
  <style type="text/css">
*{stroke-linecap:square;stroke-linejoin:round;}
  </style>
 </defs>
 <g id="figure_1">
  <g id="patch_1">
   <path d="
M0 144
L432 144
L432 0
L0 0
z
" style="fill:#ffffff;"/>
  </g>
  <g id="axes_1">
   <g id="patch_2">
    <path d="
M54 129.6
L388.8 129.6
L388.8 14.4
L54 14.4
z
" style="fill:#ffffff;"/>
   </g>
   <g id="line2d_1">
    <path clip-path="url(#pdb56fa9657)" d="
M54 75.6501
L54.3008 72.7887
L54.9024 81.3236
L55.2033 71.0985
L55.5041 69.8235
L55.8049 72.2419
L56.1057 73.5597
L56.4065 70.6174
L56.7073 63.7004
L57.0082 69.5318
L57.309 67.9684
L57.6098 73.4926
L57.9106 75.2199
L58.2114 62.5785
L58.5122 67.8357
L58.8131 62.0023
L59.1139 63.9796
L59.4147 59.6068
L59.7155 57.1082
L60.0163 63.2625
L60.3171 63.4795
L60.9188 52.247
L61.2196 64.4793
L61.5204 63.5923
L62.122 60.4807
L62.7237 54.6567
L63.0245 53.589
L63.3253 59.6934
L63.6261 61.3521
L63.9269 61.0028
L64.2278 54.5607
L64.5286 58.7222
L64.8294 59.9534
L65.1302 59.2687
L65.7318 52.9361
L66.0327 51.1051
L66.3335 50.6957
L66.6343 55.0248
L66.9351 52.1536
L67.2359 52.0516
L67.5367 44.0419
L67.8376 48.5548
L68.1384 48.61
L68.4392 52.1135
L68.74 46.7565
L69.0408 50.884
L69.6425 50.6631
L69.9433 55.0985
L70.2441 45.6595
L70.5449 48.4483
L70.8457 42.77
L71.1465 48.9182
L71.4474 47.8348
L71.7482 47.6992
L72.049 46.2928
L72.3498 45.5248
L72.6506 39.6302
L72.9514 47.0258
L73.2523 45.8264
L73.5531 41.4512
L73.8539 50.4401
L74.1547 42.9699
L74.4555 32.5261
L74.7563 45.0042
L75.0572 37.0742
L75.358 43.8066
L75.6588 37.0627
L75.9596 39.1951
L76.2604 32.8598
L76.5612 47.525
L76.8621 39.3909
L77.1629 41.3433
L77.4637 35.2426
L77.7645 39.8293
L78.0653 42.6957
L78.3661 39.1687
L78.667 36.962
L78.9678 36.5406
L79.2686 43.2668
L79.5694 34.0774
L79.8702 32.1206
L80.171 36.6646
L80.4719 30.1998
L80.7727 35.8073
L81.0735 38.7755
L81.3743 37.4935
L81.6751 37.8258
L81.9759 36.8875
L82.2768 36.9848
L82.5776 32.5674
L82.8784 40.5964
L83.1792 23.212
L83.48 39.355
L83.7808 32.8282
L84.0817 29.1278
L84.3825 29.4101
L84.6833 37.4624
L84.9841 35.6866
L85.2849 35.2953
L85.5857 35.236
L85.8866 37.5562
L86.1874 36.6277
L86.4882 32.8597
L86.789 36.7891
L87.0898 36.6061
L87.3906 28.0856
L87.6915 29.8942
L87.9923 39.9348
L88.2931 32.1134
L88.5939 34.7842
L88.8947 28.3541
L89.1955 33.3199
L89.4964 33.5666
L89.7972 33.9981
L90.098 32.0545
L90.3988 32.3404
L90.6996 38.3665
L91.0004 28.5624
L91.3013 33.53
L91.6021 27.5638
L91.9029 27.7846
L92.2037 30.2872
L92.5045 25.15
L92.8053 34.6847
L93.1062 37.6621
L93.407 37.9733
L93.7078 31.6141
L94.3094 29.9359
L94.6102 38.6652
L94.9111 34.7326
L95.2119 40.7973
L95.5127 33.8298
L95.8135 35.2523
L96.1143 32.7526
L96.4151 33.3943
L96.716 30.3706
L97.0168 31.7793
L97.3176 34.2097
L97.6184 35.0493
L97.9192 29.8149
L98.22 33.8819
L98.5209 34.0816
L98.8217 39.1541
L99.1225 33.4411
L99.4233 30.3159
L99.7241 29.4402
L100.025 38.9025
L100.326 39.2832
L100.627 35.5132
L100.927 37.5548
L101.228 28.9809
L101.529 36.687
L101.83 32.4194
L102.131 39.1473
L102.431 29.7558
L102.732 32.101
L103.033 37.0299
L103.334 36.9245
L103.635 34.0426
L103.936 33.1343
L104.236 37.0889
L104.537 29.4494
L104.838 40.6119
L105.44 44.3073
L105.74 41.3255
L106.041 36.1959
L106.342 37.7078
L106.643 41.1174
L106.944 42.2121
L107.245 40.0005
L107.545 45.1082
L107.846 36.6559
L108.147 38.6336
L108.749 47.167
L109.049 41.7114
L109.35 45.7093
L109.651 46.8041
L109.952 38.4691
L110.554 48.6723
L110.854 40.24
L111.155 45.3397
L111.757 43.0333
L112.058 41.5268
L112.358 50.2006
L112.659 53.0685
L112.96 53.8154
L113.261 43.5574
L113.562 49.0659
L113.863 47.2034
L114.163 42.5298
L114.464 45.8064
L114.765 46.0415
L115.066 54.9601
L115.367 48.3741
L115.667 46.2363
L115.968 51.3009
L116.269 47.3991
L116.57 47.2123
L116.871 51.3329
L117.171 52.2949
L117.472 58.0813
L118.074 51.4936
L118.375 53.6736
L118.676 53.5018
L118.976 65.2672
L119.277 52.8586
L119.578 57.6563
L119.879 58.5425
L120.18 49.0788
L120.781 64.5701
L121.082 57.0748
L121.383 68.1406
L121.684 60.4257
L121.985 63.5921
L122.285 64.5262
L122.586 63.3388
L122.887 53.9207
L123.188 65.2922
L123.489 65.5453
L123.789 59.5179
L124.09 64.9701
L124.391 57.2164
L124.692 64.2804
L124.993 61.8759
L125.294 67.5337
L125.594 68.8147
L125.895 67.3358
L126.196 70.7417
L126.497 72.0427
L126.798 64.9187
L127.098 68.2922
L127.399 74.4504
L127.7 71.6741
L128.001 70.0263
L128.302 70.1957
L128.603 72.3322
L128.903 69.3598
L129.204 67.7467
L129.505 74.7284
L129.806 72.0333
L130.107 75.638
L130.407 74.9002
L130.708 75.761
L131.009 71.2746
L131.31 73.2192
L131.611 73.5168
L132.212 77.1193
L132.513 74.4155
L132.814 74.8512
L133.115 79.8466
L133.416 78.223
L133.716 82.9969
L134.318 75.1367
L134.619 81.4025
L134.92 77.1415
L135.22 86.0879
L135.521 84.2727
L135.822 76.3501
L136.123 85.4
L136.424 84.1625
L136.725 84.0579
L137.025 79.4858
L137.326 82.1267
L137.627 81.8239
L137.928 82.9209
L138.229 85.2053
L138.529 89.971
L138.83 86.8832
L139.131 95.933
L139.432 90.6571
L139.733 78.7496
L140.034 87.9501
L140.334 86.8485
L140.635 82.3377
L140.936 92.12
L141.237 90.0856
L141.538 90.7688
L141.838 94.87
L142.44 90.2061
L142.741 91.9465
L143.042 87.7446
L143.343 87.8194
L143.643 100.413
L143.944 88.6588
L144.245 101.409
L144.546 91.7751
L144.847 97.7475
L145.147 97.8453
L145.448 87.9936
L146.05 99.477
L146.351 97.8435
L146.652 100.3
L146.952 100.713
L147.253 97.8827
L147.554 97.0145
L148.156 98.6682
L148.456 98.0599
L148.757 111.578
L149.359 102.054
L149.66 102.412
L149.96 99.5087
L150.261 97.8821
L150.562 105.589
L150.863 106.348
L151.164 103.963
L151.465 104.424
L151.765 102.948
L152.066 103.468
L152.367 101.248
L152.668 96.9932
L152.969 99.3854
L153.269 106.242
L153.57 105.842
L153.871 107.07
L154.172 102.821
L154.473 106.282
L154.774 107.34
L155.074 111.135
L155.375 102.103
L155.676 103.07
L155.977 108.205
L156.278 98.1788
L156.578 101.061
L156.879 106.703
L157.18 106.317
L157.481 107.466
L157.782 101.958
L158.083 102.273
L158.383 113.838
L158.684 111.31
L158.985 114.694
L159.286 108.607
L159.587 108.628
L159.887 103.664
L160.188 107.883
L160.489 109.008
L160.79 105.45
L161.091 112.426
L161.392 111.661
L161.993 112.398
L162.896 109.952
L163.196 109.815
L163.497 110.438
L163.798 107.812
L164.099 106.731
L164.4 110.746
L164.701 109.899
L165.001 110.186
L165.302 110.808
L165.603 108.576
L165.904 116.095
L166.205 115.714
L166.505 113.972
L166.806 109.037
L167.107 107.86
L167.408 101.871
L167.709 116.664
L168.009 113.693
L168.31 107.622
L168.611 104.774
L168.912 108.681
L169.213 109.986
L169.814 104.02
L170.115 105.812
L170.416 114.812
L170.717 106.039
L171.018 106.841
L171.318 109.324
L171.619 107.236
L171.92 110.656
L172.221 108.151
L172.522 109.466
L172.823 113.962
L173.123 109.111
L173.424 107.346
L173.725 108.904
L174.026 109.068
L174.627 107.095
L175.229 110.952
L175.53 112.366
L175.831 104.708
L176.132 106.435
L176.432 105.45
L176.733 116.424
L177.034 108.211
L177.335 106.827
L177.636 101.477
L177.936 100.968
L178.237 105.568
L178.538 104.373
L178.839 101.348
L179.441 110.572
L179.741 101.979
L180.042 100.988
L180.343 105.712
L180.644 104.186
L180.945 105.818
L181.245 101.613
L181.546 102.419
L181.847 106.841
L182.148 102.893
L182.75 108.406
L183.05 102.399
L183.351 102.847
L183.652 104.647
L183.953 105.691
L184.254 102.701
L184.554 106.826
L184.855 92.8467
L185.156 102.629
L185.457 96.1143
L185.758 95.1247
L186.058 95.0675
L186.359 98.5688
L186.66 98.0555
L186.961 93.2333
L187.262 95.0476
L187.563 94.4172
L187.863 88.1157
L188.164 95.9393
L188.465 95.697
L188.766 91.2154
L189.067 102.027
L189.367 97.7175
L189.668 89.3523
L189.969 88.2926
L190.27 100.112
L190.571 87.1478
L190.872 95.9994
L191.172 96.2895
L191.473 91.1988
L191.774 94.3767
L192.075 90.0534
L192.376 94.8522
L192.676 95.003
L192.977 86.2419
L193.278 86.4678
L193.579 83.1264
L193.88 95.7714
L194.181 87.1462
L194.481 96.4897
L194.782 82.0822
L195.083 91.2025
L195.384 91.3477
L195.685 82.3028
L195.985 83.7096
L196.286 86.7674
L196.587 85.0404
L196.888 80.9383
L197.189 83.2412
L197.49 86.4112
L197.79 81.556
L198.091 84.5369
L198.392 75.4989
L198.693 74.9846
L198.994 83.4981
L199.294 73.5581
L199.595 77.9435
L199.896 73.0881
L200.197 71.8425
L200.498 81.638
L200.798 82.293
L201.099 78.1857
L201.4 77.0583
L201.701 73.6288
L202.002 79.6353
L202.303 78.2408
L202.603 77.4388
L202.904 81.6414
L203.205 78.2152
L203.506 69.6054
L203.807 70.3489
L204.107 64.7877
L204.709 79.5392
L205.01 69.1592
L205.311 70.625
L205.612 68.3456
L205.912 68.6861
L206.213 73.5621
L206.514 69.2748
L206.815 62.6971
L207.116 68.9011
L207.416 61.9951
L207.717 63.5384
L208.018 68.1784
L208.319 60.864
L208.62 69.5402
L208.921 61.1695
L209.221 72.5792
L209.522 65.3291
L209.823 77.9396
L210.124 63.8184
L210.425 63.3011
L210.725 62.0613
L211.026 71.2641
L211.327 55.0457
L211.628 59.3826
L211.929 60.0693
L212.23 57.3564
L212.53 56.9206
L212.831 59.3684
L213.132 47.0838
L213.433 63.0444
L213.734 55.7657
L214.034 55.2503
L214.335 53.107
L214.636 55.5607
L214.937 53.5544
L215.238 53.2524
L215.539 51.4448
L215.839 58.091
L216.14 58.0225
L216.441 51.8036
L216.742 54.5336
L217.043 46.5434
L217.343 54.3564
L217.644 49.7683
L217.945 50.4087
L218.246 43.8768
L218.547 50.2032
L218.847 47.7015
L219.148 48.2713
L219.75 56.5847
L220.051 44.7234
L220.352 44.7881
L220.652 51.7007
L220.953 43.5658
L221.254 49.5935
L221.555 47.3247
L221.856 55.7474
L222.156 41.4257
L222.457 45.766
L222.758 41.3598
L223.059 40.9877
L223.36 41.7577
L223.961 49.6667
L224.262 45.6254
L224.563 45.217
L224.864 42.8713
L225.165 37.8433
L225.465 46.8071
L225.766 40.4134
L226.067 47.4839
L226.368 35.4515
L226.669 41.3417
L226.97 43.197
L227.27 44.195
L227.571 41.721
L227.872 36.4619
L228.173 39.6534
L228.474 40.9072
L228.774 39.6048
L229.075 37.2203
L229.376 38.9891
L229.677 39.8924
L229.978 37.0245
L230.279 42.3773
L230.579 37.7021
L230.88 37.8109
L231.181 32.4547
L231.783 37.876
L232.083 39.5521
L232.384 36.6126
L232.685 35.0946
L233.287 37.8332
L233.588 40.7175
L233.888 34.1977
L234.189 31.5227
L234.49 38.3731
L234.791 35.8725
L235.092 35.2491
L235.392 31.6502
L235.693 32.896
L235.994 36.8997
L236.295 36.5122
L236.596 30.1923
L237.197 36.0885
L237.498 32.5698
L237.799 33.2975
L238.1 33.0534
L238.401 28.4692
L238.701 31.1862
L239.002 37.7531
L239.303 35.2736
L239.604 31.3957
L239.905 32.0455
L240.205 38.7957
L240.506 34.4098
L240.807 33.4117
L241.108 27.5468
L241.409 34.0997
L241.71 32.5871
L242.01 38.5212
L242.311 37.4021
L242.612 36.8204
L242.913 31.3371
L243.214 36.3793
L243.514 30.1204
L243.815 31.2582
L244.116 28.6462
L244.417 30.844
L244.718 27.007
L245.019 33.5064
L245.319 28.5886
L245.62 34.4811
L245.921 32.6884
L246.222 39.606
L246.823 33.9762
L247.124 38.2193
L247.425 34.6559
L247.726 34.2238
L248.027 31.7928
L248.328 34.8204
L248.628 33.488
L248.929 35.4143
L249.23 33.7022
L250.132 41.8155
L250.433 32.4045
L250.734 34.0774
L251.035 37.7903
L251.336 33.9451
L251.637 26.6753
L251.937 37.2252
L252.238 42.5649
L252.539 37.2894
L252.84 41.3062
L253.141 36.494
L253.441 34.3772
L253.742 38.8342
L254.043 45.0913
L254.344 37.6003
L254.645 38.1983
L254.945 46.2114
L255.246 45.038
L255.547 36.0015
L255.848 45.797
L256.149 46.4313
L256.45 36.6487
L256.75 34.9359
L257.051 43.4308
L257.352 34.588
L257.653 36.5538
L257.954 42.4257
L258.254 42.1824
L258.555 41.2149
L258.856 40.8621
L259.157 48.1298
L259.458 39.5875
L259.759 42.6527
L260.059 52.7789
L260.36 43.167
L260.661 37.212
L260.962 48.9013
L261.263 48.3867
L261.563 43.3419
L261.864 43.9633
L262.165 43.0827
L262.466 47.5105
L262.767 47.8203
L263.068 54.8337
L263.368 44.2297
L263.669 48.0509
L263.97 49.4565
L264.271 56.0169
L264.872 50.5884
L265.173 50.9095
L265.474 51.8389
L265.775 50.3348
L266.076 50.5982
L266.377 51.2232
L266.677 48.6783
L266.978 53.3351
L267.279 54.0529
L267.58 53.5747
L267.881 57.2892
L268.181 54.064
L268.482 55.1728
L268.783 52.892
L269.084 66.756
L269.385 55.3701
L269.986 62.5564
L270.588 59.3349
L270.889 57.2188
L271.19 61.2369
L271.49 55.5189
L271.791 57.5791
L272.092 60.4234
L272.393 56.8205
L272.694 62.2338
L272.994 61.7718
L273.295 64.2069
L273.596 62.9132
L273.897 72.5445
L274.198 62.4306
L274.499 66.7135
L274.799 60.4134
L275.1 74.0085
L275.401 59.3788
L275.702 69.001
L276.003 71.8732
L276.303 64.1417
L276.604 64.558
L276.905 68.3423
L277.206 73.5807
L277.507 62.6827
L277.808 69.5312
L278.108 70.5213
L278.409 70.2885
L278.71 61.6615
L279.011 72.7796
L279.312 63.9819
L279.913 77.2775
L280.214 76.8909
L280.515 74.3494
L280.816 76.8606
L281.117 70.4493
L281.417 77.8222
L281.718 74.6357
L282.019 76.8771
L282.32 73.2354
L282.621 74.0495
L282.921 82.6558
L283.222 79.1407
L283.523 80.5869
L284.125 86.0105
L284.426 75.7685
L284.726 75.89
L285.328 78.6075
L285.93 85.1267
L286.531 82.291
L286.832 89.3512
L287.133 88.8831
L287.434 83.8176
L288.035 89.0714
L288.336 88.1867
L288.637 79.5937
L288.938 88.3166
L289.239 87.4007
L289.539 88.0788
L289.84 87.0886
L290.141 81.6524
L291.344 95.5144
L291.645 84.7481
L292.247 90.2701
L292.548 89.4295
L292.848 90.9016
L293.149 87.7932
L293.45 91.3192
L293.751 93.1
L294.052 98.2263
L294.653 90.2051
L294.954 93.867
L295.255 94.9529
L295.556 92.4076
L295.857 92.7896
L296.157 100.781
L296.458 94.5764
L296.759 105.917
L297.06 97.4601
L297.361 99.7849
L297.661 95.7272
L297.962 94.7943
L298.263 96.4632
L298.564 108.842
L298.865 100.25
L299.466 99.14
L299.767 103.154
L300.068 101.06
L300.369 96.4645
L300.67 106.293
L300.97 109.905
L301.271 103.477
L301.572 103.142
L301.873 99.5708
L302.174 107.867
L302.775 100.992
L303.076 109.546
L303.377 96.6557
L303.979 111.896
L304.279 107.642
L304.58 97.9726
L305.182 111.79
L305.483 110.869
L305.783 107.409
L306.084 106.979
L306.385 109.602
L306.686 102.753
L306.987 115.864
L307.288 106.823
L307.588 101.959
L307.889 111.431
L308.491 104.509
L308.792 109.627
L309.092 107.275
L309.393 116.093
L309.694 112.502
L309.995 104.008
L310.597 109.797
L310.897 115.932
L311.198 105.873
L311.8 110.156
L312.101 115.303
L312.401 109.677
L312.702 112.355
L313.003 112.152
L313.304 106.622
L313.605 109.202
L313.906 109.575
L314.206 104.341
L314.808 112.709
L315.109 110.406
L315.41 105.513
L315.71 118.348
L316.011 108.94
L316.613 115.044
L316.914 109.763
L317.215 112.022
L317.515 105.698
L317.816 115.006
L318.117 117.409
L318.418 113.898
L318.719 108.365
L319.32 109.969
L319.621 109.812
L319.922 108.783
L320.223 118.822
L320.524 106.32
L320.824 107.486
L321.125 102.556
L321.426 112.13
L321.727 115.842
L322.328 106.518
L322.629 117.321
L322.93 107.841
L323.231 110.284
L323.532 102.313
L323.832 108.459
L324.133 111.186
L324.434 115.231
L325.036 99.9414
L325.337 106.214
L325.637 109.263
L325.938 108.809
L326.239 109.362
L326.54 110.782
L326.841 97.2516
L327.141 108.96
L327.442 104.571
L327.743 103.212
L328.044 108.553
L328.345 101.014
L328.646 108.529
L328.946 109.902
L329.247 107.167
L329.548 102.915
L329.849 101.541
L330.15 103.474
L330.45 102.671
L330.751 104.128
L331.052 96.3364
L331.353 106.881
L331.654 100.121
L331.955 97.0194
L332.255 103.547
L332.556 105.275
L332.857 99.114
L333.158 98.3385
L333.459 105.87
L333.759 106.291
L334.06 111.138
L334.361 98.2945
L334.662 107.707
L334.963 95.658
L335.264 100.199
L335.564 100.8
L335.865 104.546
L336.166 98.5896
L336.467 104.573
L336.768 91.6812
L337.068 101.06
L337.369 98.0233
L337.67 98.6069
L337.971 95.1556
L338.272 96.6804
L338.572 96.5758
L338.873 97.4822
L339.174 94.6987
L339.475 89.8875
L339.776 90.618
L340.077 96.2677
L340.377 99.5737
L340.678 87.8951
L340.979 95.8312
L341.28 88.3052
L341.581 89.4435
L341.881 86.9261
L342.182 95.4221
L342.483 85.8448
L342.784 83.9442
L343.085 92.131
L343.386 91.6145
L343.686 93.1563
L343.987 92.5009
L344.288 85.36
L344.589 82.3257
L344.89 80.8282
L345.19 81.678
L345.491 84.2985
L345.792 90.1026
L346.093 86.1273
L346.394 90.0674
L346.695 84.4639
L346.995 81.6307
L347.597 84.6729
L347.898 79.89
L348.199 81.3336
L348.499 80.7589
L348.8 80.8323
L349.101 75.0089
L349.402 76.8304
L349.703 81.6064
L350.004 84.5281
L350.304 80.1269
L350.605 84.4962
L350.906 76.2448
L351.207 78.6437
L351.508 78.588
L351.808 81.8323
L352.41 73.9902
L352.711 78.7928
L353.012 74.4495
L353.613 80.3104
L354.215 69.4888
L354.516 68.3977
L354.516 68.3977" style="fill:none;stroke:#0000ff;"/>
   </g>
   <g id="matplotlib.axis_1">
    <g id="xtick_1">
     <g id="line2d_2">
      <defs>
       <path d="
M0 0
L0 -4" id="mcb557df647" style="stroke:#000000;stroke-linecap:butt;stroke-width:0.5;"/>
      </defs>
      <g>
       <use style="stroke:#000000;stroke-linecap:butt;stroke-width:0.5;" x="54.0" xlink:href="#mcb557df647" y="129.6"/>
      </g>
     </g>
     <g id="line2d_3">
      <defs>
       <path d="
M0 0
L0 4" id="mdad270ee8e" style="stroke:#000000;stroke-linecap:butt;stroke-width:0.5;"/>
      </defs>
      <g>
       <use style="stroke:#000000;stroke-linecap:butt;stroke-width:0.5;" x="54.0" xlink:href="#mdad270ee8e" y="14.4"/>
      </g>
     </g>
     <g id="text_1">
      <!-- 0 -->
      <defs>
       <path d="
M31.7812 66.4062
Q24.1719 66.4062 20.3281 58.9062
Q16.5 51.4219 16.5 36.375
Q16.5 21.3906 20.3281 13.8906
Q24.1719 6.39062 31.7812 6.39062
Q39.4531 6.39062 43.2812 13.8906
Q47.125 21.3906 47.125 36.375
Q47.125 51.4219 43.2812 58.9062
Q39.4531 66.4062 31.7812 66.4062
M31.7812 74.2188
Q44.0469 74.2188 50.5156 64.5156
Q56.9844 54.8281 56.9844 36.375
Q56.9844 17.9688 50.5156 8.26562
Q44.0469 -1.42188 31.7812 -1.42188
Q19.5312 -1.42188 13.0625 8.26562
Q6.59375 17.9688 6.59375 36.375
Q6.59375 54.8281 13.0625 64.5156
Q19.5312 74.2188 31.7812 74.2188" id="DejaVuSans-30"/>
      </defs>
      <g transform="translate(50.9765625 142.50625)scale(0.12 -0.12)">
       <use xlink:href="#DejaVuSans-30"/>
      </g>
     </g>
    </g>
    <g id="xtick_2">
     <g id="line2d_4">
      <g>
       <use style="stroke:#000000;stroke-linecap:butt;stroke-width:0.5;" x="101.828571429" xlink:href="#mcb557df647" y="129.6"/>
      </g>
     </g>
     <g id="line2d_5">
      <g>
       <use style="stroke:#000000;stroke-linecap:butt;stroke-width:0.5;" x="101.828571429" xlink:href="#mdad270ee8e" y="14.4"/>
      </g>
     </g>
     <g id="text_2">
      <!-- 2 -->
      <defs>
       <path d="
M19.1875 8.29688
L53.6094 8.29688
L53.6094 0
L7.32812 0
L7.32812 8.29688
Q12.9375 14.1094 22.625 23.8906
Q32.3281 33.6875 34.8125 36.5312
Q39.5469 41.8438 41.4219 45.5312
Q43.3125 49.2188 43.3125 52.7812
Q43.3125 58.5938 39.2344 62.25
Q35.1562 65.9219 28.6094 65.9219
Q23.9688 65.9219 18.8125 64.3125
Q13.6719 62.7031 7.8125 59.4219
L7.8125 69.3906
Q13.7656 71.7812 18.9375 73
Q24.125 74.2188 28.4219 74.2188
Q39.75 74.2188 46.4844 68.5469
Q53.2188 62.8906 53.2188 53.4219
Q53.2188 48.9219 51.5312 44.8906
Q49.8594 40.875 45.4062 35.4062
Q44.1875 33.9844 37.6406 27.2188
Q31.1094 20.4531 19.1875 8.29688" id="DejaVuSans-32"/>
      </defs>
      <g transform="translate(99.0516964286 142.50625)scale(0.12 -0.12)">
       <use xlink:href="#DejaVuSans-32"/>
      </g>
     </g>
    </g>
    <g id="xtick_3">
     <g id="line2d_6">
      <g>
       <use style="stroke:#000000;stroke-linecap:butt;stroke-width:0.5;" x="149.657142857" xlink:href="#mcb557df647" y="129.6"/>
      </g>
     </g>
     <g id="line2d_7">
      <g>
       <use style="stroke:#000000;stroke-linecap:butt;stroke-width:0.5;" x="149.657142857" xlink:href="#mdad270ee8e" y="14.4"/>
      </g>
     </g>
     <g id="text_3">
      <!-- 4 -->
      <defs>
       <path d="
M37.7969 64.3125
L12.8906 25.3906
L37.7969 25.3906
z

M35.2031 72.9062
L47.6094 72.9062
L47.6094 25.3906
L58.0156 25.3906
L58.0156 17.1875
L47.6094 17.1875
L47.6094 0
L37.7969 0
L37.7969 17.1875
L4.89062 17.1875
L4.89062 26.7031
z
" id="DejaVuSans-34"/>
      </defs>
      <g transform="translate(146.469642857 142.34875)scale(0.12 -0.12)">
       <use xlink:href="#DejaVuSans-34"/>
      </g>
     </g>
    </g>
    <g id="xtick_4">
     <g id="line2d_8">
      <g>
       <use style="stroke:#000000;stroke-linecap:butt;stroke-width:0.5;" x="197.485714286" xlink:href="#mcb557df647" y="129.6"/>
      </g>
     </g>
     <g id="line2d_9">
      <g>
       <use style="stroke:#000000;stroke-linecap:butt;stroke-width:0.5;" x="197.485714286" xlink:href="#mdad270ee8e" y="14.4"/>
      </g>
     </g>
     <g id="text_4">
      <!-- 6 -->
      <defs>
       <path d="
M33.0156 40.375
Q26.375 40.375 22.4844 35.8281
Q18.6094 31.2969 18.6094 23.3906
Q18.6094 15.5312 22.4844 10.9531
Q26.375 6.39062 33.0156 6.39062
Q39.6562 6.39062 43.5312 10.9531
Q47.4062 15.5312 47.4062 23.3906
Q47.4062 31.2969 43.5312 35.8281
Q39.6562 40.375 33.0156 40.375
M52.5938 71.2969
L52.5938 62.3125
Q48.875 64.0625 45.0938 64.9844
Q41.3125 65.9219 37.5938 65.9219
Q27.8281 65.9219 22.6719 59.3281
Q17.5312 52.7344 16.7969 39.4062
Q19.6719 43.6562 24.0156 45.9219
Q28.375 48.1875 33.5938 48.1875
Q44.5781 48.1875 50.9531 41.5156
Q57.3281 34.8594 57.3281 23.3906
Q57.3281 12.1562 50.6875 5.35938
Q44.0469 -1.42188 33.0156 -1.42188
Q20.3594 -1.42188 13.6719 8.26562
Q6.98438 17.9688 6.98438 36.375
Q6.98438 53.6562 15.1875 63.9375
Q23.3906 74.2188 37.2031 74.2188
Q40.9219 74.2188 44.7031 73.4844
Q48.4844 72.75 52.5938 71.2969" id="DejaVuSans-36"/>
      </defs>
      <g transform="translate(194.465089286 142.50625)scale(0.12 -0.12)">
       <use xlink:href="#DejaVuSans-36"/>
      </g>
     </g>
    </g>
    <g id="xtick_5">
     <g id="line2d_10">
      <g>
       <use style="stroke:#000000;stroke-linecap:butt;stroke-width:0.5;" x="245.314285714" xlink:href="#mcb557df647" y="129.6"/>
      </g>
     </g>
     <g id="line2d_11">
      <g>
       <use style="stroke:#000000;stroke-linecap:butt;stroke-width:0.5;" x="245.314285714" xlink:href="#mdad270ee8e" y="14.4"/>
      </g>
     </g>
     <g id="text_5">
      <!-- 8 -->
      <defs>
       <path d="
M31.7812 34.625
Q24.75 34.625 20.7188 30.8594
Q16.7031 27.0938 16.7031 20.5156
Q16.7031 13.9219 20.7188 10.1562
Q24.75 6.39062 31.7812 6.39062
Q38.8125 6.39062 42.8594 10.1719
Q46.9219 13.9688 46.9219 20.5156
Q46.9219 27.0938 42.8906 30.8594
Q38.875 34.625 31.7812 34.625
M21.9219 38.8125
Q15.5781 40.375 12.0312 44.7188
Q8.5 49.0781 8.5 55.3281
Q8.5 64.0625 14.7188 69.1406
Q20.9531 74.2188 31.7812 74.2188
Q42.6719 74.2188 48.875 69.1406
Q55.0781 64.0625 55.0781 55.3281
Q55.0781 49.0781 51.5312 44.7188
Q48 40.375 41.7031 38.8125
Q48.8281 37.1562 52.7969 32.3125
Q56.7812 27.4844 56.7812 20.5156
Q56.7812 9.90625 50.3125 4.23438
Q43.8438 -1.42188 31.7812 -1.42188
Q19.7344 -1.42188 13.25 4.23438
Q6.78125 9.90625 6.78125 20.5156
Q6.78125 27.4844 10.7812 32.3125
Q14.7969 37.1562 21.9219 38.8125
M18.3125 54.3906
Q18.3125 48.7344 21.8438 45.5625
Q25.3906 42.3906 31.7812 42.3906
Q38.1406 42.3906 41.7188 45.5625
Q45.3125 48.7344 45.3125 54.3906
Q45.3125 60.0625 41.7188 63.2344
Q38.1406 66.4062 31.7812 66.4062
Q25.3906 66.4062 21.8438 63.2344
Q18.3125 60.0625 18.3125 54.3906" id="DejaVuSans-38"/>
      </defs>
      <g transform="translate(242.314285714 142.50625)scale(0.12 -0.12)">
       <use xlink:href="#DejaVuSans-38"/>
      </g>
     </g>
    </g>
    <g id="xtick_6">
     <g id="line2d_12">
      <g>
       <use style="stroke:#000000;stroke-linecap:butt;stroke-width:0.5;" x="293.142857143" xlink:href="#mcb557df647" y="129.6"/>
      </g>
     </g>
     <g id="line2d_13">
      <g>
       <use style="stroke:#000000;stroke-linecap:butt;stroke-width:0.5;" x="293.142857143" xlink:href="#mdad270ee8e" y="14.4"/>
      </g>
     </g>
     <g id="text_6">
      <!-- 10 -->
      <defs>
       <path d="
M12.4062 8.29688
L28.5156 8.29688
L28.5156 63.9219
L10.9844 60.4062
L10.9844 69.3906
L28.4219 72.9062
L38.2812 72.9062
L38.2812 8.29688
L54.3906 8.29688
L54.3906 0
L12.4062 0
z
" id="DejaVuSans-31"/>
      </defs>
      <g transform="translate(286.565357143 142.50625)scale(0.12 -0.12)">
       <use xlink:href="#DejaVuSans-31"/>
       <use x="63.623046875" xlink:href="#DejaVuSans-30"/>
      </g>
     </g>
    </g>
    <g id="xtick_7">
     <g id="line2d_14">
      <g>
       <use style="stroke:#000000;stroke-linecap:butt;stroke-width:0.5;" x="340.971428571" xlink:href="#mcb557df647" y="129.6"/>
      </g>
     </g>
     <g id="line2d_15">
      <g>
       <use style="stroke:#000000;stroke-linecap:butt;stroke-width:0.5;" x="340.971428571" xlink:href="#mdad270ee8e" y="14.4"/>
      </g>
     </g>
     <g id="text_7">
      <!-- 12 -->
      <g transform="translate(334.596428571 142.50625)scale(0.12 -0.12)">
       <use xlink:href="#DejaVuSans-31"/>
       <use x="63.623046875" xlink:href="#DejaVuSans-32"/>
      </g>
     </g>
    </g>
    <g id="xtick_8">
     <g id="line2d_16">
      <g>
       <use style="stroke:#000000;stroke-linecap:butt;stroke-width:0.5;" x="388.8" xlink:href="#mcb557df647" y="129.6"/>
      </g>
     </g>
     <g id="line2d_17">
      <g>
       <use style="stroke:#000000;stroke-linecap:butt;stroke-width:0.5;" x="388.8" xlink:href="#mdad270ee8e" y="14.4"/>
      </g>
     </g>
     <g id="text_8">
      <!-- 14 -->
      <g transform="translate(382.160625 142.34875)scale(0.12 -0.12)">
       <use xlink:href="#DejaVuSans-31"/>
       <use x="63.623046875" xlink:href="#DejaVuSans-34"/>
      </g>
     </g>
    </g>
   </g>
   <g id="matplotlib.axis_2">
    <g id="ytick_1">
     <g id="line2d_18">
      <defs>
       <path d="
M0 0
L4 0" id="mc8fcea1516" style="stroke:#000000;stroke-linecap:butt;stroke-width:0.5;"/>
      </defs>
      <g>
       <use style="stroke:#000000;stroke-linecap:butt;stroke-width:0.5;" x="54.0" xlink:href="#mc8fcea1516" y="129.6"/>
      </g>
     </g>
     <g id="line2d_19">
      <defs>
       <path d="
M0 0
L-4 0" id="m0d5b0a6425" style="stroke:#000000;stroke-linecap:butt;stroke-width:0.5;"/>
      </defs>
      <g>
       <use style="stroke:#000000;stroke-linecap:butt;stroke-width:0.5;" x="388.8" xlink:href="#m0d5b0a6425" y="129.6"/>
      </g>
     </g>
     <g id="text_9">
      <!-- −1.5 -->
      <defs>
       <path d="
M10.6875 12.4062
L21 12.4062
L21 0
L10.6875 0
z
" id="DejaVuSans-2e"/>
       <path d="
M10.7969 72.9062
L49.5156 72.9062
L49.5156 64.5938
L19.8281 64.5938
L19.8281 46.7344
Q21.9688 47.4688 24.1094 47.8281
Q26.2656 48.1875 28.4219 48.1875
Q40.625 48.1875 47.75 41.5
Q54.8906 34.8125 54.8906 23.3906
Q54.8906 11.625 47.5625 5.09375
Q40.2344 -1.42188 26.9062 -1.42188
Q22.3125 -1.42188 17.5469 -0.640625
Q12.7969 0.140625 7.71875 1.70312
L7.71875 11.625
Q12.1094 9.23438 16.7969 8.0625
Q21.4844 6.89062 26.7031 6.89062
Q35.1562 6.89062 40.0781 11.3281
Q45.0156 15.7656 45.0156 23.3906
Q45.0156 31 40.0781 35.4375
Q35.1562 39.8906 26.7031 39.8906
Q22.75 39.8906 18.8125 39.0156
Q14.8906 38.1406 10.7969 36.2812
z
" id="DejaVuSans-35"/>
       <path d="
M10.5938 35.5
L73.1875 35.5
L73.1875 27.2031
L10.5938 27.2031
z
" id="DejaVuSans-2212"/>
      </defs>
      <g transform="translate(23.18 133.8890625)scale(0.12 -0.12)">
       <use xlink:href="#DejaVuSans-2212"/>
       <use x="83.7890625" xlink:href="#DejaVuSans-31"/>
       <use x="147.412109375" xlink:href="#DejaVuSans-2e"/>
       <use x="179.19921875" xlink:href="#DejaVuSans-35"/>
      </g>
     </g>
    </g>
    <g id="ytick_2">
     <g id="line2d_20">
      <g>
       <use style="stroke:#000000;stroke-linecap:butt;stroke-width:0.5;" x="54.0" xlink:href="#mc8fcea1516" y="110.4"/>
      </g>
     </g>
     <g id="line2d_21">
      <g>
       <use style="stroke:#000000;stroke-linecap:butt;stroke-width:0.5;" x="388.8" xlink:href="#m0d5b0a6425" y="110.4"/>
      </g>
     </g>
     <g id="text_10">
      <!-- −1.0 -->
      <g transform="translate(22.92875 114.7678125)scale(0.12 -0.12)">
       <use xlink:href="#DejaVuSans-2212"/>
       <use x="83.7890625" xlink:href="#DejaVuSans-31"/>
       <use x="147.412109375" xlink:href="#DejaVuSans-2e"/>
       <use x="179.19921875" xlink:href="#DejaVuSans-30"/>
      </g>
     </g>
    </g>
    <g id="ytick_3">
     <g id="line2d_22">
      <g>
       <use style="stroke:#000000;stroke-linecap:butt;stroke-width:0.5;" x="54.0" xlink:href="#mc8fcea1516" y="91.2"/>
      </g>
     </g>
     <g id="line2d_23">
      <g>
       <use style="stroke:#000000;stroke-linecap:butt;stroke-width:0.5;" x="388.8" xlink:href="#m0d5b0a6425" y="91.2"/>
      </g>
     </g>
     <g id="text_11">
      <!-- −0.5 -->
      <g transform="translate(23.18 95.5678125)scale(0.12 -0.12)">
       <use xlink:href="#DejaVuSans-2212"/>
       <use x="83.7890625" xlink:href="#DejaVuSans-30"/>
       <use x="147.412109375" xlink:href="#DejaVuSans-2e"/>
       <use x="179.19921875" xlink:href="#DejaVuSans-35"/>
      </g>
     </g>
    </g>
    <g id="ytick_4">
     <g id="line2d_24">
      <g>
       <use style="stroke:#000000;stroke-linecap:butt;stroke-width:0.5;" x="54.0" xlink:href="#mc8fcea1516" y="72.0"/>
      </g>
     </g>
     <g id="line2d_25">
      <g>
       <use style="stroke:#000000;stroke-linecap:butt;stroke-width:0.5;" x="388.8" xlink:href="#m0d5b0a6425" y="72.0"/>
      </g>
     </g>
     <g id="text_12">
      <!-- 0.0 -->
      <g transform="translate(32.504375 76.3678125)scale(0.12 -0.12)">
       <use xlink:href="#DejaVuSans-30"/>
       <use x="63.623046875" xlink:href="#DejaVuSans-2e"/>
       <use x="95.41015625" xlink:href="#DejaVuSans-30"/>
      </g>
     </g>
    </g>
    <g id="ytick_5">
     <g id="line2d_26">
      <g>
       <use style="stroke:#000000;stroke-linecap:butt;stroke-width:0.5;" x="54.0" xlink:href="#mc8fcea1516" y="52.8"/>
      </g>
     </g>
     <g id="line2d_27">
      <g>
       <use style="stroke:#000000;stroke-linecap:butt;stroke-width:0.5;" x="388.8" xlink:href="#m0d5b0a6425" y="52.8"/>
      </g>
     </g>
     <g id="text_13">
      <!-- 0.5 -->
      <g transform="translate(32.755625 57.1678125)scale(0.12 -0.12)">
       <use xlink:href="#DejaVuSans-30"/>
       <use x="63.623046875" xlink:href="#DejaVuSans-2e"/>
       <use x="95.41015625" xlink:href="#DejaVuSans-35"/>
      </g>
     </g>
    </g>
    <g id="ytick_6">
     <g id="line2d_28">
      <g>
       <use style="stroke:#000000;stroke-linecap:butt;stroke-width:0.5;" x="54.0" xlink:href="#mc8fcea1516" y="33.6"/>
      </g>
     </g>
     <g id="line2d_29">
      <g>
       <use style="stroke:#000000;stroke-linecap:butt;stroke-width:0.5;" x="388.8" xlink:href="#m0d5b0a6425" y="33.6"/>
      </g>
     </g>
     <g id="text_14">
      <!-- 1.0 -->
      <g transform="translate(33.03125 37.9678125)scale(0.12 -0.12)">
       <use xlink:href="#DejaVuSans-31"/>
       <use x="63.623046875" xlink:href="#DejaVuSans-2e"/>
       <use x="95.41015625" xlink:href="#DejaVuSans-30"/>
      </g>
     </g>
    </g>
    <g id="ytick_7">
     <g id="line2d_30">
      <g>
       <use style="stroke:#000000;stroke-linecap:butt;stroke-width:0.5;" x="54.0" xlink:href="#mc8fcea1516" y="14.4"/>
      </g>
     </g>
     <g id="line2d_31">
      <g>
       <use style="stroke:#000000;stroke-linecap:butt;stroke-width:0.5;" x="388.8" xlink:href="#m0d5b0a6425" y="14.4"/>
      </g>
     </g>
     <g id="text_15">
      <!-- 1.5 -->
      <g transform="translate(33.2825 18.6890625)scale(0.12 -0.12)">
       <use xlink:href="#DejaVuSans-31"/>
       <use x="63.623046875" xlink:href="#DejaVuSans-2e"/>
       <use x="95.41015625" xlink:href="#DejaVuSans-35"/>
      </g>
     </g>
    </g>
   </g>
   <g id="patch_3">
    <path d="
M54 14.4
L388.8 14.4" style="fill:none;stroke:#000000;"/>
   </g>
   <g id="patch_4">
    <path d="
M388.8 129.6
L388.8 14.4" style="fill:none;stroke:#000000;"/>
   </g>
   <g id="patch_5">
    <path d="
M54 129.6
L388.8 129.6" style="fill:none;stroke:#000000;"/>
   </g>
   <g id="patch_6">
    <path d="
M54 129.6
L54 14.4" style="fill:none;stroke:#000000;"/>
   </g>
  </g>
 </g>
 <defs>
  <clipPath id="pdb56fa9657">
   <rect height="115.2" width="334.8" x="54.0" y="14.4"/>
  </clipPath>
 </defs>
</svg>
