<?xml version="1.0" encoding="UTF-8" standalone="no"?>
<!-- Created with Inkscape (http://www.inkscape.org/) -->
<!-- ClipArt by Arvin61r58 (http://openclipart.org/user-detail/Arvin61r58) -->

<svg
   xmlns:dc="http://purl.org/dc/elements/1.1/"
   xmlns:cc="http://creativecommons.org/ns#"
   xmlns:rdf="http://www.w3.org/1999/02/22-rdf-syntax-ns#"
   xmlns:svg="http://www.w3.org/2000/svg"
   xmlns="http://www.w3.org/2000/svg"
   version="1.0"
   width="683.96875"
   height="615"
   id="svg3000">
  <title
     id="title3031">Wave Pattern</title>
  <metadata
     id="metadata3224">
    <rdf:RDF>
      <cc:Work
         rdf:about="">
        <dc:format>image/svg+xml</dc:format>
        <dc:type
           rdf:resource="http://purl.org/dc/dcmitype/StillImage" />
        <dc:title>Wave Pattern</dc:title>
        <dc:creator>
          <cc:Agent>
            <dc:title>Arvin61r58</dc:title>
          </cc:Agent>
        </dc:creator>
        <dc:publisher>
          <cc:Agent>
            <dc:title>Openclipart.org</dc:title>
          </cc:Agent>
        </dc:publisher>
        <dc:source>http://openclipart.org/user-detail/Arvin61r58</dc:source>
        <dc:subject>
          <rdf:Bag>
            <rdf:li>waves</rdf:li>
            <rdf:li>wave pattern</rdf:li>
            <rdf:li>wave propagation</rdf:li>
            <rdf:li>pattern</rdf:li>
          </rdf:Bag>
        </dc:subject>
        <dc:description>Wave pattern.  This pattern was designed more for &quot;eye candy&quot; than scientific accuracy.</dc:description>
        <cc:license
           rdf:resource="http://creativecommons.org/licenses/publicdomain/" />
      </cc:Work>
      <cc:License
         rdf:about="http://creativecommons.org/licenses/publicdomain/">
        <cc:permits
           rdf:resource="http://creativecommons.org/ns#Reproduction" />
        <cc:permits
           rdf:resource="http://creativecommons.org/ns#Distribution" />
        <cc:permits
           rdf:resource="http://creativecommons.org/ns#DerivativeWorks" />
      </cc:License>
    </rdf:RDF>
  </metadata>
  <defs
     id="defs3002" />
  <path
     d="m 330.9655,0.99999976 -0.0198,0.072339 -0.0557,0.1751336 -0.0437,0.1713272 -0.0477,0.1789412 -0.0437,0.1751341 -0.0397,0.1789415 -0.0358,0.1751344 -0.0318,0.1827483 -0.0318,0.1789412 -0.0278,0.1827488 -0.0238,0.1827487 -0.0198,0.1789413 -0.0198,0.1865559 -0.0119,0.186556 -0.0159,0.186555 -0.008,0.182749 -0.004,0.186556 0,0.190363 0.0119,0.563475 0.0477,0.559667 0.0715,0.548248 0.10334,0.536823 0.12718,0.533018 0.155,0.517788 0.18282,0.510173 0.20666,0.498751 0.2305,0.483523 0.25038,0.475908 0.27821,0.456871 0.29806,0.445451 0.32192,0.430219 0.34179,0.414991 0.36564,0.403571 0.37755,0.376919 0.40141,0.365497 0.41333,0.342655 0.43717,0.331233 0.45307,0.300771 0.46102,0.289353 0.48486,0.262703 0.49281,0.243663 0.51268,0.217014 0.52063,0.201785 0.53653,0.171329 0.54448,0.144675 0.5564,0.121831 0.56833,0.09899 0.57229,0.06853 0.58423,0.04569 0.58819,0.01142 0.59217,-0.01142 0.58422,-0.04569 0.5723,-0.06853 0.56832,-0.09899 0.55641,-0.121831 0.54447,-0.144675 0.53653,-0.171329 0.52063,-0.201785 0.51269,-0.217014 0.49281,-0.243663 0.48486,-0.262703 0.46102,-0.289353 0.45307,-0.300771 0.43717,-0.331233 0.41333,-0.342655 0.40141,-0.365497 0.37755,-0.376919 0.36563,-0.403571 0.34178,-0.414991 0.32193,-0.430219 0.29808,-0.445451 0.2782,-0.456871 0.25038,-0.475908 0.2305,-0.483523 0.20667,-0.498751 0.18281,-0.510173 0.155,-0.517788 0.12718,-0.533018 0.10333,-0.536823 0.0715,-0.548248 0.0477,-0.559667 0.0119,-0.563475 0,-0.186555 -0.004,-0.186556 -0.008,-0.178942 -0.0119,-0.186556 -0.0159,-0.182748 -0.0198,-0.1789416 -0.0159,-0.1827484 -0.0238,-0.1789416 -0.0278,-0.1789415 -0.0318,-0.175134 -0.0318,-0.1789412 -0.0358,-0.1751344 -0.0358,-0.1789411 -0.0437,-0.1713269 -0.0437,-0.1751344 -0.0477,-0.1713268 -0.0477,-0.1713269 -0.0358,-0.114218 -0.0835,0 0.0437,0.1332545 0.0477,0.1751343 0.0437,0.1675196 0.0477,0.1713265 0.0397,0.1751344 0.0358,0.1713268 0.0357,0.175134 0.0318,0.1789415 0.0318,0.175134 0.0278,0.1789417 0.0198,0.1751339 0.0238,0.1827484 0.0119,0.1789412 0.0199,0.178941 0.008,0.182749 0.0119,0.186556 0.004,0.178942 0,0.186555 -0.0159,0.559668 -0.0437,0.552054 -0.0715,0.544438 -0.0994,0.536824 -0.13116,0.525403 -0.15499,0.517787 -0.17884,0.506366 -0.20269,0.494944 -0.23051,0.479715 -0.25038,0.472101 -0.27423,0.456872 -0.29807,0.441643 -0.32191,0.426413 -0.33782,0.414992 -0.36166,0.392148 -0.37756,0.380726 -0.39743,0.361691 -0.41332,0.342654 -0.43321,0.323618 -0.44512,0.304581 -0.46498,0.281738 -0.47692,0.262699 -0.49281,0.239859 -0.50473,0.22082 -0.51667,0.194172 -0.53255,0.175133 -0.5405,0.144677 -0.55242,0.12183 -0.56436,0.09518 -0.56832,0.06853 -0.58025,0.04188 -0.58819,0.01524 -0.58423,-0.01524 -0.58024,-0.04188 -0.56832,-0.06853 -0.56435,-0.09518 -0.55242,-0.12183 -0.54052,-0.144677 -0.53255,-0.175133 -0.52063,-0.194172 -0.50473,-0.22082 -0.48885,-0.239859 -0.47691,-0.262699 -0.465,-0.281738 -0.44511,-0.304581 -0.4332,-0.323618 -0.41332,-0.342654 -0.39744,-0.361691 -0.38153,-0.380726 -0.35769,-0.392148 -0.33781,-0.414992 -0.32192,-0.426413 -0.29807,-0.441643 -0.27422,-0.456872 -0.25038,-0.472101 -0.23052,-0.479715 -0.20268,-0.494944 -0.17885,-0.506366 -0.15499,-0.517787 -0.13116,-0.525403 -0.0994,-0.536824 -0.0715,-0.544438 -0.0437,-0.552054 -0.0159,-0.559668 0,-0.186555 0.004,-0.186556 0.0119,-0.182749 0.0119,-0.186556 0.0119,-0.186556 0.0199,-0.178941 0.0198,-0.1827483 0.0238,-0.1827492 0.0278,-0.1789412 0.0318,-0.1789416 0.0318,-0.175134 0.0357,-0.1789416 0.0397,-0.1751339 0.0437,-0.1789412 0.0437,-0.1713268 0.0477,-0.1713269 0.0516,-0.1751343 0.0278,-0.095182 -0.0835,0 z m -16.10925,6e-8 -0.0489,0.18341298 -0.13699,0.444051 -0.10763,0.434399 -0.11742,0.453704 -0.10763,0.444051 -0.0978,0.453705 -0.0881,0.444052 -0.0782,0.463357 -0.0782,0.453705 -0.0685,0.463358 -0.0587,0.463359 -0.0489,0.453704 -0.0489,0.473011 -0.0294,0.473012 -0.0391,0.473011 -0.0196,0.463357 -0.01,0.473013 0,0.482664 0.0293,1.4286872 0.11742,1.419034 0.17613,1.390073 0.2544,1.361115 0.31311,1.351461 0.38161,1.312847 0.4501,1.293542 0.5088,1.26458 0.56751,1.225969 0.61644,1.206662 0.68493,1.158395 0.73386,1.129436 0.79256,1.090818 0.84149,1.05221 0.9002,1.023248 0.92955,0.955677 0.98826,0.926715 1.01761,0.868798 1.07632,0.839839 1.11546,0.762605 1.13503,0.733654 1.19374,0.666079 1.2133,0.617807 1.26223,0.550238 1.2818,0.511624 1.32094,0.434402 1.34052,0.366822 1.36985,0.308903 1.39923,0.250986 1.40899,0.173758 1.43836,0.115843 1.44814,0.02895 1.45793,-0.02895 1.43836,-0.115843 1.409,-0.173758 1.39921,-0.250986 1.36987,-0.308903 1.34051,-0.366822 1.32094,-0.434402 1.28179,-0.511624 1.26224,-0.550238 1.21331,-0.617807 1.19373,-0.666079 1.13503,-0.733654 1.11547,-0.762605 1.07631,-0.839839 1.01762,-0.868798 0.98825,-0.926715 0.92955,-0.955677 0.90021,-1.023248 0.84148,-1.05221 0.79256,-1.090818 0.73386,-1.129436 0.68493,-1.158395 0.61643,-1.206662 0.56752,-1.225969 0.50881,-1.26458 0.45009,-1.293542 0.38161,-1.312847 0.31311,-1.351461 0.25442,-1.361115 0.17611,-1.390073 0.11742,-1.419034 0.0293,-1.4286872 0,-0.473012 -0.01,-0.473011 -0.0196,-0.453704 -0.0293,-0.473012 -0.0391,-0.463358 -0.0489,-0.453705 -0.0391,-0.463358 -0.0587,-0.453704 -0.0685,-0.453705 -0.0782,-0.444051 -0.0782,-0.453704 -0.0881,-0.444052 -0.0881,-0.453705 -0.10764,-0.434398 -0.10763,-0.444052 -0.11742,-0.434397 -0.11741,-0.434398 -0.0881,-0.28959998 -0.20549,0 0.10764,0.33786498 0.11741,0.444053 0.10763,0.424744 0.11742,0.434397 0.0979,0.444053 0.0881,0.434398 0.0881,0.444051 0.0783,0.453705 0.0782,0.444051 0.0685,0.453705 0.0489,0.444051 0.0587,0.463357 0.0293,0.453706 0.0489,0.453704 0.0196,0.463359 0.0293,0.473011 0.01,0.453704 0,0.473012 -0.0391,1.4190342 -0.10763,1.399727 -0.17613,1.380421 -0.24461,1.361114 -0.32291,1.332154 -0.3816,1.312848 -0.44031,1.283887 -0.49902,1.254928 -0.56752,1.216314 -0.61644,1.197008 -0.67515,1.158396 -0.73385,1.119783 -0.79256,1.081166 -0.8317,1.05221 -0.89042,0.994289 -0.92955,0.965327 -0.97847,0.917063 -1.01761,0.868799 -1.06654,0.820531 -1.09589,0.772262 -1.14481,0.714345 -1.17417,0.666073 -1.21331,0.608161 -1.24266,0.55989 -1.27202,0.49232 -1.31115,0.444049 -1.33073,0.366827 -1.36008,0.308898 -1.38942,0.241333 -1.39922,0.17376 -1.42858,0.106188 -1.44814,0.03863 -1.43835,-0.03863 -1.42858,-0.106188 -1.39921,-0.17376 -1.38944,-0.241333 -1.36007,-0.308898 -1.33073,-0.366827 -1.31116,-0.444049 -1.28179,-0.49232 -1.24267,-0.55989 -1.20352,-0.608161 -1.17417,-0.666073 -1.14481,-0.714345 -1.09589,-0.772262 -1.06654,-0.820531 -1.01761,-0.868799 -0.97847,-0.917063 -0.93935,-0.965327 -0.88062,-0.994289 -0.8317,-1.05221 -0.79256,-1.081166 -0.73386,-1.119783 -0.67514,-1.158396 -0.61644,-1.197008 -0.56752,-1.216314 -0.49903,-1.254928 -0.44031,-1.283887 -0.38159,-1.312848 -0.32291,-1.332154 -0.24461,-1.361114 -0.17613,-1.380421 -0.10763,-1.399727 -0.0391,-1.4190342 0,-0.473012 0.01,-0.473011 0.0293,-0.463359 0.0293,-0.473011 0.0293,-0.473011 0.0489,-0.453705 0.0489,-0.463356 0.0587,-0.463359 0.0685,-0.453705 0.0782,-0.453705 0.0782,-0.444051 0.0881,-0.453705 0.0978,-0.444051 0.10763,-0.453705 0.10764,-0.434397 0.11741,-0.434399 0.1272,-0.444051 0.0685,-0.24133298 -0.20548,0 z m -18.72429,0 -0.0827,0.31251668 -0.23153,0.7566169 -0.18191,0.7401699 -0.19847,0.7730649 -0.18193,0.7566178 -0.16537,0.7730658 -0.14885,0.7566179 -0.1323,0.7895137 -0.13231,0.7730657 -0.11577,0.789514 -0.0992,0.789515 -0.0827,0.773065 -0.0827,0.8059619 -0.0496,0.805963 -0.0661,0.805962 -0.0331,0.789513 -0.0165,0.805963 0,0.82241 0.0495,2.434335 0.19845,2.417886 0.2977,2.368543 0.42999,2.319197 0.52922,2.302749 0.645,2.236956 0.76077,2.20406 0.85998,2.154715 0.95923,2.088924 1.04191,2.056025 1.15767,1.973787 1.24038,1.924441 1.33959,1.858641 1.4223,1.792857 1.52153,1.74351 1.57113,1.628373 1.67038,1.579027 1.71998,1.480341 1.81921,1.430999 1.88537,1.299399 1.91844,1.250071 2.01767,1.134929 2.05075,1.05268 2.13344,0.937548 2.16651,0.871754 2.23268,0.740177 2.26575,0.625026 2.31535,0.52634 2.36498,0.427654 2.38151,0.296067 2.43113,0.197381 2.44767,0.04932 2.46421,-0.04932 2.43113,-0.197381 2.38152,-0.296067 2.36497,-0.427654 2.31536,-0.52634 2.26575,-0.625026 2.23267,-0.740177 2.16651,-0.871754 2.13344,-0.937548 2.05076,-1.05268 2.01767,-1.134929 1.91844,-1.250071 1.88537,-1.299399 1.81922,-1.430999 1.71997,-1.480341 1.67037,-1.579027 1.57114,-1.628373 1.52152,-1.74351 1.42229,-1.792857 1.3396,-1.858641 1.24038,-1.924441 1.15768,-1.973787 1.04191,-2.056025 0.95922,-2.088924 0.85999,-2.154715 0.76076,-2.20406 0.645,-2.236956 0.52923,-2.302749 0.43,-2.319197 0.29768,-2.368543 0.19846,-2.417886 0.0495,-2.434335 0,-0.805962 -0.0165,-0.805962 -0.0331,-0.773066 -0.0495,-0.805962 -0.0661,-0.789514 -0.0827,-0.7730659 -0.0661,-0.789514 -0.0992,-0.773065 -0.11576,-0.773066 -0.13231,-0.756618 -0.13231,-0.773065 -0.14885,-0.7566188 -0.14884,-0.7730648 -0.18192,-0.7401699 -0.18192,-0.7566179 -0.19847,-0.740169 -0.19845,-0.7401689 -0.14885,-0.49344698 -0.3473,0 0.18192,0.57568768 0.19846,0.7566178 0.18191,0.723721 0.19847,0.740169 0.16538,0.7566178 0.14885,0.740169 0.14885,0.7566179 0.1323,0.7730661 0.1323,0.756618 0.11577,0.773065 0.0827,0.756617 0.0992,0.789514 0.0495,0.7730669 0.0827,0.773066 0.0331,0.789513 0.0495,0.805963 0.0165,0.773065 0,0.805962 -0.0661,2.417887 -0.18192,2.384991 -0.29769,2.352093 -0.41346,2.319197 -0.54576,2.269853 -0.64498,2.236956 -0.74424,2.187612 -0.84345,2.138267 -0.95922,2.072471 -1.04191,2.039579 -1.14115,1.973787 -1.24037,1.907995 -1.3396,1.842194 -1.40575,1.792857 -1.50498,1.694165 -1.57115,1.644818 -1.65383,1.562581 -1.71997,1.480341 -1.80268,1.398101 -1.8523,1.315855 -1.93497,1.217169 -1.9846,1.13492 -2.05074,1.036243 -2.10037,0.953994 -2.14999,0.838862 -2.21612,0.756613 -2.24921,0.625036 -2.29883,0.52633 -2.34843,0.411208 -2.36498,0.296067 -2.41459,0.180935 -2.44767,0.06582 -2.43113,-0.06582 -2.41459,-0.180935 -2.36497,-0.296067 -2.34845,-0.411208 -2.29882,-0.52633 -2.24921,-0.625036 -2.21613,-0.756613 -2.16652,-0.838862 -2.10036,-0.953994 -2.03421,-1.036243 -1.9846,-1.13492 -1.93498,-1.217169 -1.85229,-1.315855 -1.80267,-1.398101 -1.71998,-1.480341 -1.65383,-1.562581 -1.58768,-1.644818 -1.48845,-1.694165 -1.40575,-1.792857 -1.33961,-1.842194 -1.24037,-1.907995 -1.14114,-1.973787 -1.04191,-2.039579 -0.95922,-2.072471 -0.84346,-2.138267 -0.74422,-2.187612 -0.645,-2.236956 -0.54576,-2.269853 -0.41345,-2.319197 -0.29769,-2.352093 -0.18192,-2.384991 -0.0661,-2.417887 0,-0.805962 0.0165,-0.805962 0.0495,-0.789515 0.0495,-0.805961 0.0495,-0.805962 0.0827,-0.7730659 0.0827,-0.789514 0.0992,-0.789514 0.11577,-0.773066 0.1323,-0.773066 0.1323,-0.7566177 0.14885,-0.7730658 0.16539,-0.7566169 0.18192,-0.7730658 0.18192,-0.740169 0.19846,-0.7401699 0.21499,-0.7566179 0.11577,-0.41120528 -0.3473,0 z m -18.88857,1.2e-7 -0.11676,0.44275196 -0.32691,1.071925 -0.25686,1.048623 -0.28022,1.095228 -0.25686,1.071926 -0.23351,1.095228 -0.21016,1.071926 -0.18681,1.118531 -0.18681,1.0952281 -0.16346,1.118531 -0.1401,1.118531 -0.11676,1.095228 -0.11675,1.141834 -0.07,1.141834 -0.0934,1.141833 -0.0467,1.118531 -0.0233,1.141834 0,1.165137 0.07,3.448804 0.28021,3.425501 0.42032,3.355593 0.60713,3.285685 0.74723,3.262382 0.9107,3.169171 1.07415,3.122565 1.21425,3.052658 1.35437,2.959448 1.47112,2.91284 1.63457,2.79633 1.75134,2.72642 1.89143,2.6332 2.0082,2.54 2.1483,2.47009 2.21835,2.30697 2.35847,2.23706 2.42851,2.09725 2.56862,2.02734 2.66203,1.84091 2.70872,1.77101 2.84884,1.60789 2.89553,1.49137 3.0123,1.32826 3.05899,1.23504 3.1524,1.04863 3.1991,0.8855 3.26915,0.74569 3.33921,0.60587 3.36256,0.41945 3.43261,0.27963 3.45596,0.0699 3.47932,-0.0699 3.43261,-0.27963 3.36256,-0.41945 3.3392,-0.60587 3.26916,-0.74569 3.1991,-0.8855 3.1524,-1.04863 3.05899,-1.23504 3.01229,-1.32826 2.89554,-1.49137 2.84883,-1.60789 2.70873,-1.77101 2.66203,-1.84091 2.56862,-2.02734 2.42851,-2.09725 2.35846,-2.23706 2.21836,-2.30697 2.1483,-2.47009 2.00819,-2.54 1.89144,-2.6332 1.75133,-2.72642 1.63458,-2.79633 1.47112,-2.91284 1.35436,-2.959448 1.21426,-3.052658 1.07415,-3.122565 0.91069,-3.169171 0.74724,-3.262382 0.60713,-3.285685 0.42032,-3.355593 0.28021,-3.425501 0.07,-3.448804 0,-1.141834 -0.0233,-1.141834 -0.0467,-1.095228 -0.07,-1.141834 -0.0934,-1.118531 -0.11675,-1.095228 -0.0934,-1.118531 -0.14011,-1.095228 -0.16345,-1.095229 -0.18681,-1.0719251 -0.18681,-1.095228 -0.21016,-1.071926 -0.21016,-1.095228 -0.25686,-1.048623 -0.25686,-1.071926 -0.28022,-1.048622 -0.28021,-1.048623 -0.21016,-0.69908196 -0.49037,0 0.25686,0.81559596 0.28021,1.071925 0.25686,1.02532 0.28022,1.048623 0.23351,1.071925 0.21016,1.048623 0.21016,1.071926 0.18681,1.095228 0.1868,1.0719261 0.16346,1.095228 0.11676,1.071925 0.1401,1.118531 0.07,1.095229 0.11676,1.095228 0.0467,1.118531 0.07,1.141834 0.0233,1.095228 0,1.141834 -0.0934,3.425501 -0.25686,3.378896 -0.42032,3.33229 -0.58378,3.285685 -0.77058,3.215776 -0.91069,3.169171 -1.0508,3.099263 -1.19091,3.029355 -1.35436,2.93614 -1.47112,2.88954 -1.61123,2.79633 -1.75133,2.70312 -1.89144,2.6099 -1.98484,2.54 -2.12495,2.40018 -2.21836,2.33027 -2.33511,2.21376 -2.42851,2.09725 -2.54527,1.98073 -2.61533,1.86422 -2.73207,1.7244 -2.80214,1.60789 -2.89553,1.46807 -2.96559,1.35156 -3.03565,1.18844 -3.12904,1.07192 -3.17575,0.88551 -3.24581,0.74568 -3.31585,0.58257 -3.33921,0.41945 -3.40926,0.25633 -3.45596,0.0932 -3.43261,-0.0932 -3.40926,-0.25633 -3.33921,-0.41945 -3.31586,-0.58257 -3.2458,-0.74568 -3.17575,-0.88551 -3.12905,-1.07192 -3.05899,-1.18844 -2.96559,-1.35156 -2.87219,-1.46807 -2.80213,-1.60789 -2.73208,-1.7244 -2.61532,-1.86422 -2.54527,-1.98073 -2.42851,-2.09725 -2.33511,-2.21376 -2.24171,-2.33027 -2.1016,-2.40018 -1.98484,-2.54 -1.89144,-2.6099 -1.75133,-2.70312 -1.61123,-2.79633 -1.47112,-2.88954 -1.35436,-2.93614 -1.19091,-3.029355 -1.0508,-3.099263 -0.91069,-3.169171 -0.77059,-3.215776 -0.58377,-3.285685 -0.42032,-3.33229 -0.25687,-3.378896 -0.0934,-3.425501 0,-1.141834 0.0233,-1.141834 0.07,-1.118531 0.07,-1.141833 0.07,-1.141834 0.11676,-1.095228 0.11675,-1.118531 0.14011,-1.118531 0.16346,-1.095229 0.18681,-1.0952281 0.1868,-1.071926 0.21016,-1.095228 0.23352,-1.071925 0.25686,-1.095229 0.25686,-1.048622 0.28021,-1.048623 0.30357,-1.071926 0.16345,-0.58256796 -0.49037,0 z m -21.8997,6e-8 -0.15625,0.59375 -0.4375,1.4375 -0.34375,1.40625 -0.375,1.46875 -0.34375,1.4375 -0.3125,1.46875 -0.28125,1.4375 -0.25,1.5 -0.25,1.46875 -0.21875,1.5 -0.1875,1.5 -0.15625,1.46875 -0.15625,1.53125 -0.0937,1.53125 -0.125,1.53125 -0.0625,1.5 -0.0312,1.53125 0,1.5625 0.0937,4.625 0.375,4.59375 0.5625,4.5 0.8125,4.40625 1,4.375 1.21875,4.25 1.4375,4.1875 1.625,4.09375 1.8125,3.96875 1.96875,3.90625 2.1875,3.75 2.34375,3.65625 2.53125,3.53125 2.6875,3.40625 2.875,3.3125 2.96875,3.09375 3.15625,3 3.25,2.8125 3.4375,2.71875 3.5625,2.46875 3.625,2.375 3.8125,2.15625 3.875,2 4.03125,1.78125 4.09375,1.65625 4.21875,1.40625 4.28125,1.1875 4.375,1 4.46875,0.8125 4.5,0.5625 4.59375,0.375 4.625,0.0937 4.65625,-0.0937 4.59375,-0.375 4.5,-0.5625 4.46875,-0.8125 4.375,-1 4.28125,-1.1875 4.21875,-1.40625 4.09375,-1.65625 4.03125,-1.78125 3.875,-2 3.8125,-2.15625 3.625,-2.375 3.5625,-2.46875 3.4375,-2.71875 3.25,-2.8125 3.15625,-3 2.96875,-3.09375 2.875,-3.3125 2.6875,-3.40625 2.53125,-3.53125 2.34375,-3.65625 2.1875,-3.75 1.96875,-3.90625 1.8125,-3.96875 1.625,-4.09375 1.4375,-4.1875 1.21875,-4.25 1,-4.375 0.8125,-4.40625 0.5625,-4.5 0.375,-4.59375 0.0937,-4.625 0,-1.53125 -0.0312,-1.53125 -0.0625,-1.46875 -0.0937,-1.53125 -0.125,-1.5 -0.15625,-1.46875 -0.125,-1.5 -0.1875,-1.46875 -0.21875,-1.46875 -0.25,-1.4375 L 430.90629,10.5 430.62504,9.0625 430.34379,7.59375 430.00004,6.1875 429.65629,4.75 429.28129,3.34375 428.90629,1.9375 428.62504,1 l -0.65625,0 0.34375,1.09375 0.375,1.4375 0.34375,1.375 0.375,1.40625 0.3125,1.4375 0.28125,1.40625 0.28125,1.4375 0.25,1.46875 0.25,1.4375 0.21875,1.46875 0.15625,1.4375 0.1875,1.5 0.0937,1.46875 0.15625,1.46875 0.0625,1.5 0.0937,1.53125 0.0312,1.46875 0,1.53125 -0.125,4.59375 -0.34375,4.53125 -0.5625,4.46875 -0.78125,4.40625 -1.03125,4.3125 -1.21875,4.25 -1.40625,4.15625 -1.59375,4.0625 -1.8125,3.9375 -1.96875,3.875 -2.15625,3.75 -2.34375,3.625 -2.53125,3.5 -2.65625,3.40625 -2.84375,3.21875 -2.96875,3.125 -3.125,2.96875 -3.25,2.8125 -3.40625,2.65625 -3.5,2.5 -3.65625,2.3125 -3.75,2.15625 -3.875,1.96875 -3.96875,1.8125 -4.0625,1.59375 -4.1875,1.4375 -4.25,1.1875 -4.34375,1 -4.4375,0.78125 -4.46875,0.5625 -4.5625,0.34375 -4.625,0.125 -4.59375,-0.125 -4.5625,-0.34375 -4.46875,-0.5625 -4.4375,-0.78125 -4.34375,-1 -4.25,-1.1875 -4.1875,-1.4375 -4.09375,-1.59375 -3.96875,-1.8125 -3.84375,-1.96875 -3.75,-2.15625 -3.65625,-2.3125 -3.5,-2.5 -3.40625,-2.65625 -3.25,-2.8125 -3.125,-2.96875 -3,-3.125 -2.8125,-3.21875 -2.65625,-3.40625 -2.53125,-3.5 -2.34375,-3.625 -2.15625,-3.75 -1.96875,-3.875 -1.8125,-3.9375 -1.59375,-4.0625 -1.40625,-4.15625 -1.21875,-4.25 -1.03125,-4.3125 -0.78125,-4.40625 -0.5625,-4.46875 -0.34375,-4.53125 -0.125,-4.59375 0,-1.53125 0.0312,-1.53125 0.0937,-1.5 0.0937,-1.53125 0.0937,-1.53125 0.15625,-1.46875 0.15625,-1.5 0.1875,-1.5 0.21875,-1.46875 0.25,-1.46875 0.25,-1.4375 0.28125,-1.46875 0.3125,-1.4375 0.34375,-1.46875 0.34375,-1.40625 0.375,-1.40625 0.40625,-1.4375 L 255.99969,1 255.34344,1 z m -10.37495,0 -0.4375,1.09375 -0.71875,1.8125 -0.6875,1.875 -0.6875,1.84375 -0.625,1.875 -0.59375,1.9375 -0.53125,1.90625 -0.53125,1.90625 -0.5,1.9375 -0.4375,1.96875 -0.40625,1.96875 -0.375,2 -0.34375,1.96875 -0.28125,2.03125 -0.28125,2.03125 -0.21875,2 -0.1875,2.0625 -0.125,2.0625 -0.125,2.03125 -0.0625,2.09375 0,2.0625 0,0.03125 0.15625,5.34375 0.375,5.34375 0.6875,5.21875 0.90625,5.15625 1.1875,5.0625 1.40625,4.96875 1.65625,4.875 1.875,4.75 2.125,4.65625 2.34375,4.5 2.53125,4.375 2.71875,4.25 2.9375,4.125 3.125,3.9375 3.34375,3.78125 3.46875,3.65625 3.625,3.46875 3.84375,3.28125 3.96875,3.125 4.09375,2.90625 4.3125,2.71875 4.375,2.53125 4.53125,2.34375 4.6875,2.09375 4.75,1.875 4.875,1.625 5,1.40625 5.0625,1.1875 5.21875,0.90625 5.25,0.6875 5.3125,0.40625 5.40625,0.125 5.4375,-0.125 5.3125,-0.40625 5.25,-0.6875 5.21875,-0.90625 5.0625,-1.1875 5,-1.40625 4.875,-1.625 4.75,-1.875 4.6875,-2.09375 4.53125,-2.34375 4.375,-2.53125 4.3125,-2.71875 4.09375,-2.90625 3.96875,-3.125 3.84375,-3.28125 3.625,-3.46875 3.46875,-3.65625 3.34375,-3.78125 3.125,-3.9375 2.9375,-4.125 2.71875,-4.25 2.53125,-4.375 2.34375,-4.5 2.125,-4.65625 1.875,-4.75 1.65625,-4.875 1.40625,-4.96875 1.1875,-5.0625 0.90625,-5.15625 0.6875,-5.21875 0.375,-5.34375 0.15625,-5.34375 0,-0.03125 0,-2.0625 -0.0937,-2 -0.0937,-2.0625 -0.125,-2.03125 -0.1875,-2 -0.21875,-2.03125 -0.25,-1.96875 -0.28125,-2 -0.3126,-1.96875 -0.40625,-1.96875 -0.375,-1.9375 -0.4375,-1.96875 -0.5,-1.90625 -0.46875,-1.90625 -0.53125,-1.875 -0.625,-1.875 -0.59375,-1.875 -0.625,-1.84375 -0.6875,-1.8125 -0.75,-1.84375 L 438.93749,1 l -0.65625,0 0.75,1.78125 0.71875,1.8125 0.65625,1.8125 0.65625,1.84375 0.59375,1.875 0.5625,1.84375 0.5625,1.875 0.5,1.90625 0.46875,1.90625 0.4375,1.90625 0.40625,1.9375 0.34375,1.9375 0.34375,1.96875 0.28125,1.96875 0.25,1.96875 0.1875,2.03125 0.1875,1.96875 0.15625,2.03125 0.0937,2.03125 0.0625,2.03125 0,2.03125 -0.125,5.375 -0.40625,5.25 -0.65625,5.21875 -0.9375,5.125 -1.15625,5.03125 -1.40625,4.9375 -1.65625,4.8125 -1.875,4.75 -2.09375,4.59375 -2.28125,4.46875 -2.53125,4.375 -2.71875,4.25 -2.9375,4.0625 -3.09375,3.9375 -3.28125,3.75 -3.46875,3.625 -3.625,3.46875 -3.78125,3.25 -3.96875,3.09375 -4.125,2.90625 -4.21875,2.71875 -4.375,2.5 -4.5,2.28125 -4.65625,2.09375 -4.75,1.875 -4.84375,1.65625 -4.9375,1.40625 -5.0625,1.15625 -5.125,0.9375 -5.25,0.625 -5.28125,0.4375 -5.40625,0.0937 -5.375,-0.0937 -5.28125,-0.4375 -5.25,-0.625 -5.125,-0.9375 -5.0625,-1.15625 -4.9375,-1.40625 -4.84375,-1.65625 -4.75,-1.875 -4.65625,-2.09375 -4.5,-2.28125 -4.375,-2.5 -4.2187,-2.71875 -4.125,-2.90625 -3.96875,-3.09375 -3.78125,-3.25 -3.625,-3.46875 -3.46875,-3.625 -3.28125,-3.75 -3.09375,-3.9375 -2.9375,-4.0625 -2.71875,-4.25 -2.53125,-4.375 -2.28125,-4.46875 -2.09375,-4.59375 -1.875,-4.75 -1.65625,-4.8125 -1.40625,-4.9375 -1.15625,-5.03125 -0.9375,-5.125 -0.65625,-5.21875 -0.40625,-5.25 -0.125,-5.34375 0,-0.03125 0,-2.0625 0.0625,-2.03125 0.0937,-2.0625 0.15625,-2.0625 0.15625,-2.03125 0.21875,-2 0.25,-2.03125 0.3125,-1.96875 0.34375,-2 0.375,-1.96875 0.40625,-1.96875 0.4375,-1.9375 0.46875,-1.90625 0.53125,-1.9375 0.5625,-1.90625 0.5625,-1.875 0.65625,-1.875 0.625,-1.84375 0.71875,-1.84375 0.75,-1.84375 L 245.68744,1 244.96869,1 z m -9.29687,0 -0.625,1.1875 -1.09375,2.1875 -1.0625,2.28125 -1.03125,2.25 -0.96875,2.3125 -0.9375,2.34375 -0.84375,2.3125 -0.84375,2.375 -0.78125,2.375 -0.71875,2.40625 -0.65625,2.46875 -0.65625,2.4375 -0.5625,2.46875 -0.53125,2.5 -0.46875,2.5 -0.40625,2.5625 -0.375,2.5 -0.3125,2.59375 -0.25,2.59375 -0.21875,2.59375 -0.125,2.625 -0.0625,2.59375 -0.0625,2.625 0.15625,6.15625 0.46875,6.03125 0.78125,5.96875 1.0625,5.875 1.34375,5.78125 1.59375,5.625 1.90625,5.5625 2.125,5.4375 2.40625,5.28125 2.65625,5.125 2.875,5 3.15625,4.84375 3.34375,4.6875 3.5625,4.5 3.75,4.3125 3.96875,4.15625 4.1875,3.96875 4.375,3.75 4.5,3.5625 4.6875,3.3125 4.875,3.09375 5.03125,2.875 5.15625,2.65625 5.3125,2.375 5.46875,2.15625 5.5625,1.875 5.65625,1.59375 5.8125,1.34375 5.90625,1.0625 5.96875,0.75 6.09375,0.46875 6.15625,0.125 6.1875,-0.125 6.09375,-0.46875 5.96875,-0.75 5.90625,-1.0625 5.8125,-1.34375 5.65625,-1.59375 5.5625,-1.875 5.46875,-2.15625 5.3125,-2.375 5.15625,-2.65625 5.03125,-2.875 4.875,-3.09375 4.6875,-3.3125 4.5,-3.5625 4.375,-3.75 4.1875,-3.96875 3.96875,-4.15625 3.75,-4.3125 3.5625,-4.5 3.34375,-4.6875 3.15625,-4.84375 2.875,-5 2.65625,-5.125 2.40625,-5.28125 2.125,-5.4375 1.90625,-5.5625 1.59375,-5.625 1.34375,-5.78125 1.0625,-5.875 0.78125,-5.96875 0.46875,-6.03125 0.125,-6.15625 -0.0312,-2.625 -0.0625,-2.5625 -0.125,-2.59375 -0.21875,-2.59375 -0.25,-2.53125 -0.28125,-2.5625 -0.375,-2.53125 -0.40625,-2.5 -0.46875,-2.5 -0.53125,-2.46875 -0.5625,-2.4375 -0.59375,-2.4375 -0.6875,-2.40625 -0.71875,-2.4375 -0.78125,-2.375 -0.8125,-2.3125 -0.84375,-2.34375 -0.875,-2.3125 L 452.29692,9.25 451.26567,7.03125 450.23442,4.8125 449.14067,2.5625 448.32817,1 l -0.71875,0 0.96875,1.84375 1.09375,2.1875 1.03125,2.25 1,2.25 0.96875,2.28125 0.875,2.28125 0.875,2.3125 0.78125,2.34375 0.78125,2.34375 0.71875,2.40625 0.65625,2.375 0.625,2.4375 0.5625,2.46875 0.5,2.4375 0.4375,2.46875 0.4375,2.5 0.34375,2.5 0.28125,2.5625 0.25,2.53125 0.21875,2.5625 0.15625,2.59375 0.0625,2.59375 0.0312,2.5625 -0.125,6.09375 -0.46875,6.03125 -0.78125,5.96875 -1.03125,5.8125 -1.34375,5.71875 -1.59375,5.65625 -1.875,5.5 -2.15625,5.40625 -2.375,5.25 -2.65625,5.09375 -2.875,5 -3.09375,4.8125 -3.34375,4.625 -3.53125,4.46875 -3.75,4.34375 -3.96875,4.09375 -4.15625,3.9375 -4.3125,3.75 -4.5,3.53125 -4.6875,3.3125 -4.84375,3.09375 -5,2.875 -5.125,2.59375 -5.28125,2.375 -5.4375,2.125 -5.53125,1.90625 -5.65625,1.59375 -5.75,1.3125 -5.875,1.0625 -5.9375,0.71875 -6.0625,0.46875 -6.15625,0.15625 -6.125,-0.15625 -6.0625,-0.46875 -5.9375,-0.71875 -5.875,-1.0625 -5.75,-1.3125 -5.65625,-1.59375 -5.53125,-1.90625 -5.4375,-2.125 -5.28125,-2.375 -5.125,-2.59375 -5,-2.875 -4.84375,-3.09375 -4.6875,-3.3125 -4.5,-3.53125 -4.3125,-3.75 -4.15625,-3.9375 -3.96875,-4.09375 -3.75,-4.34375 -3.5625,-4.46875 -3.3125,-4.625 -3.09375,-4.8125 -2.875,-5 -2.65625,-5.09375 -2.375,-5.25 -2.15625,-5.40625 -1.875,-5.5 -1.59375,-5.65625 L 225.14062,80 l -1.03125,-5.8125 -0.78125,-5.96875 -0.46875,-6.03125 -0.125,-6.09375 0.0312,-2.625 0.0625,-2.59375 0.15625,-2.59375 0.21875,-2.59375 0.25,-2.5625 0.3125,-2.53125 0.34375,-2.5625 0.4375,-2.5 0.4375,-2.5 0.5,-2.46875 0.625,-2.5 0.59375,-2.4375 0.65625,-2.40625 0.75,-2.40625 0.75,-2.375 0.84375,-2.34375 0.84375,-2.34375 0.9375,-2.28125 0.96875,-2.3125 1,-2.28125 1.0625,-2.21875 1.125,-2.1875 0.75,-1.46875 -0.71875,0 z m -8.60948,0 -0.65625,1.0625 -1.5625,2.625 -1.5,2.6875 -1.40625,2.75 -1.375,2.71875 -1.3125,2.8125 -1.25,2.78125 -1.15625,2.875 -1.15625,2.875 -1,2.9375 -1,2.9375 -0.9375,2.96875 -0.84375,2.96875 -0.78125,3.0625 -0.71875,3.03125 -0.625,3.125 -0.5625,3.09375 -0.5,3.15625 -0.4375,3.15625 -0.3125,3.1875 -0.28125,3.1875 -0.21875,3.21875 -0.0937,3.25 -0.0312,3.28125 0.15625,6.875 0.53125,6.78125 0.875,6.71875 1.15625,6.59375 1.53125,6.4375 1.8125,6.375 2.125,6.1875 2.40625,6.09375 2.6875,5.9375 2.96875,5.78125 3.28125,5.59375 3.5,5.4375 3.75,5.25 4,5.0625 4.21875,4.875 4.46875,4.625 4.6875,4.46875 4.875,4.21875 5.09375,3.96875 5.28125,3.71875 5.46875,3.5 5.625,3.21875 5.8125,2.96875 5.96875,2.6875 6.125,2.40625 6.21875,2.09375 6.375,1.8125 6.53125,1.5 6.625,1.1875 6.75,0.84375 6.8125,0.53125 6.90625,0.1875 6.9375,-0.1875 6.8125,-0.53125 6.75,-0.84375 6.625,-1.1875 6.53125,-1.5 6.375,-1.8125 6.21875,-2.09375 6.125,-2.40625 5.96875,-2.6875 5.8125,-2.96875 5.625,-3.21875 5.46875,-3.5 5.28125,-3.71875 5.09375,-3.96875 4.875,-4.21875 4.6875,-4.46875 4.46875,-4.625 4.21875,-4.875 4,-5.0625 3.75,-5.25 3.5,-5.4375 3.28125,-5.59375 2.96875,-5.78125 2.6875,-5.9375 2.40625,-6.09375 2.125,-6.1875 1.8125,-6.375 1.53125,-6.4375 1.15625,-6.59375 0.84375,-6.71875 0.53125,-6.78125 0.1875,-6.875 -0.0313,-3.1875 -0.0937,-3.15625 -0.1875,-3.15625 -0.28125,-3.125 -0.3125,-3.125 -0.40625,-3.0625 -0.46875,-3.0625 -0.5625,-3.03125 -0.59375,-3.03125 -0.6875,-2.96875 -0.71875,-2.96875 -0.8125,-2.9375 -0.875,-2.90625 -0.9375,-2.875 -1,-2.875 -1.0625,-2.8125 -1.125,-2.78125 -1.1875,-2.78125 -1.21875,-2.71875 -1.3125,-2.6875 -1.40625,-2.6875 -1.40625,-2.625 -1.4375,-2.59375 -1.5625,-2.5625 L 456.90619,1 l -0.75,0 0.25,0.375 1.5,2.53125 1.5,2.59375 1.375,2.625 1.40625,2.65625 1.25,2.65625 1.25,2.71875 1.21875,2.78125 1.09375,2.75 1.0625,2.8125 0.96875,2.875 0.96875,2.84375 0.84375,2.875 0.8125,2.9375 0.75,2.9375 0.6875,3 0.59375,3 0.53125,3 0.46875,3.0625 0.375,3.03125 0.3125,3.125 0.3125,3.09375 0.15625,3.15625 0.125,3.125 0.0312,3.15625 -0.1875,6.84375 -0.53125,6.78125 -0.84375,6.65625 -1.1875,6.5625 -1.46875,6.4375 -1.8125,6.3125 -2.125,6.21875 -2.40625,6.03125 -2.65625,5.90625 -2.96875,5.78125 -3.25,5.5625 -3.5,5.40625 -3.71875,5.21875 -4,5.03125 -4.1875,4.84375 -4.46875,4.65625 -4.625,4.375 -4.875,4.21875 -5.0625,3.9375 -5.28125,3.71875 -5.40625,3.46875 -5.625,3.21875 -5.78125,2.9375 -5.9375,2.71875 -6.09375,2.375 -6.1875,2.0625 -6.375,1.8125 -6.5,1.5 -6.59375,1.15625 -6.6875,0.875 -6.8125,0.53125 -6.875,0.15625 -6.84375,-0.15625 -6.8125,-0.53125 -6.6875,-0.875 -6.59375,-1.15625 -6.5,-1.5 -6.375,-1.8125 -6.1875,-2.0625 -6.09375,-2.375 -5.9375,-2.71875 -5.78125,-2.9375 -5.625,-3.21875 -5.40625,-3.46875 -5.28125,-3.71875 -5.0625,-3.9375 -4.875,-4.21875 -4.625,-4.375 -4.46875,-4.65625 -4.1875,-4.84375 -4,-5.03125 -3.71875,-5.21875 -3.5,-5.40625 -3.25,-5.5625 -2.96875,-5.78125 -2.65625,-5.90625 -2.40625,-6.03125 -2.125,-6.21875 -1.8125,-6.3125 -1.46875,-6.4375 -1.1875,-6.5625 -0.84375,-6.65625 -0.53125,-6.78125 -0.1875,-6.8125 0,-0.03125 0.0312,-3.25 0.125,-3.21875 0.21875,-3.21875 0.21875,-3.1875 0.375,-3.15625 0.40625,-3.15625 0.5,-3.125 0.5625,-3.0625 0.65625,-3.09375 0.71875,-3.03125 0.75,-3.03125 0.84375,-2.96875 0.90625,-2.96875 1,-2.9375 1.03125,-2.875 1.125,-2.875 1.15625,-2.875 1.25,-2.8125 1.28125,-2.75 1.375,-2.71875 1.40625,-2.6875 1.5,-2.71875 1.53125,-2.625 0.875,-1.375 -0.75,0 z m -7.99992,0 -0.46875,0.65625 -2,3 -1.90625,3.0625 -1.90625,3.09375 -1.78125,3.15625 -1.71875,3.1875 -1.65625,3.28125 -1.5625,3.28125 -1.5,3.34375 -1.40625,3.34375 -1.3125,3.4375 -1.25,3.4375 -1.15625,3.53125 -1.0625,3.53125 -1,3.5625 -0.875,3.625 -0.8125,3.625 -0.71875,3.6875 -0.59375,3.6875 -0.53125,3.75 -0.46875,3.75 -0.3125,3.78125 -0.25,3.84375 -0.1875,3.8125 -0.0312,3.875 0,0.0312 0.1875,7.625 0.59375,7.5 0.96875,7.4375 1.3125,7.3125 1.65625,7.1875 2.03125,7.0625 2.3125,6.90625 2.71875,6.71875 2.96875,6.59375 3.3125,6.375 3.59375,6.25 3.90625,6 4.15625,5.8125 4.4375,5.65625 4.6875,5.375 4.96875,5.1875 5.1875,4.90625 5.4375,4.65625 5.625,4.40625 5.84375,4.15625 6.0625,3.875 6.28125,3.5625 6.4375,3.3125 6.59375,2.96875 6.8125,2.65625 6.9375,2.34375 7.0625,2 7.21875,1.6875 7.375,1.28125 7.4375,0.9375 7.5625,0.5625 7.6875,0.21875 7.71875,-0.21875 7.5625,-0.5625 7.4375,-0.9375 7.375,-1.28125 7.21875,-1.6875 7.0625,-2 6.9375,-2.34375 6.8125,-2.65625 6.59375,-2.96875 6.4375,-3.3125 6.28125,-3.5625 6.0625,-3.875 5.84375,-4.15625 5.625,-4.40625 5.4375,-4.65625 5.1875,-4.90625 4.96875,-5.1875 4.6875,-5.375 4.4375,-5.65625 4.15625,-5.8125 3.90625,-6 3.59375,-6.25 3.3125,-6.375 2.9687,-6.5937 2.71875,-6.71875 2.3125,-6.90625 2.03125,-7.0625 1.65625,-7.1875 1.3125,-7.3125 0.96875,-7.4375 0.59375,-7.5 0.1875,-7.625 0,-0.0312 -0.0312,-3.75 -0.15625,-3.71875 -0.25,-3.6875 -0.3125,-3.6875 -0.4375,-3.6875 -0.46875,-3.625 -0.59375,-3.625 -0.6563,-3.5313 -0.78125,-3.53125 -0.84375,-3.53125 -0.9375,-3.46875 -1,-3.46875 -1.09375,-3.40625 -1.15625,-3.34375 -1.28125,-3.34375 -1.3125,-3.28125 -1.40625,-3.28125 -1.46875,-3.21875 -1.5625,-3.15625 -1.625,-3.15625 -1.6875,-3.0625 -1.78125,-3.0625 -1.84375,-3 -1.90625,-2.9375 L 464.87497,1 l -0.71875,0 0.15625,0.21875 1.9375,2.90625 1.90625,2.9375 1.84375,2.96875 1.75,3.0625 1.6875,3.09375 1.625,3.09375 1.53125,3.15625 1.5,3.1875 1.375,3.28125 1.34375,3.25 1.25,3.3125 1.15625,3.375 1.0625,3.40625 1.03125,3.40625 0.90625,3.46875 0.875,3.5 0.71875,3.53125 0.6875,3.5625 0.5625,3.59375 0.53125,3.59375 0.40625,3.625 0.3125,3.6875 0.25,3.6875 0.125,3.71875 0.0312,3.71875 -0.15625,7.625 -0.625,7.5 -0.90625,7.375 -1.3125,7.28125 -1.65625,7.125 -2.03125,7.03125 -2.34375,6.875 -2.65625,6.71875 -2.96875,6.5625 -3.28125,6.375 -3.59375,6.15625 -3.90625,6.03125 -4.125,5.8125 -4.4375,5.5625 -4.6875,5.375 -4.90625,5.15625 -5.1875,4.875 -5.375,4.6875 -5.65625,4.40625 -5.78125,4.09375 -6.0625,3.875 -6.21875,3.53125 -6.40625,3.3125 -6.59375,2.9375 -6.78125,2.65625 -6.90625,2.3125 -7.03125,2 -7.1875,1.65625 -7.3125,1.3125 -7.4375,0.9375 -7.5625,0.5625 -7.65625,0.21875 -7.625,-0.21875 -7.5625,-0.5625 -7.4375,-0.9375 -7.3125,-1.3125 -7.1875,-1.65625 -7.03125,-2 -6.9375,-2.3125 -6.75,-2.65625 -6.59375,-2.9375 -6.40625,-3.3125 -6.21875,-3.53125 -6.0625,-3.875 -5.8125,-4.09375 -5.625,-4.40625 -5.375,-4.6875 -5.1875,-4.875 -4.90625,-5.15625 -4.6875,-5.375 -4.4375,-5.5625 -4.125,-5.8125 -3.90625,-6.03125 -3.59375,-6.15625 -3.28125,-6.375 -2.96875,-6.5625 -2.65625,-6.71875 -2.34375,-6.875 -2.03125,-7.03125 -1.65625,-7.125 -1.3125,-7.28125 -0.9375,-7.375 -0.59375,-7.5 -0.15625,-7.625 0.0312,-3.84375 0.15625,-3.8125 0.21875,-3.84375 0.34375,-3.75 0.4375,-3.75 0.53125,-3.71875 0.65625,-3.6875 0.6875,-3.65625 0.8125,-3.59375 0.90625,-3.625 0.96875,-3.53125 1.0625,-3.53125 1.15625,-3.5 1.21875,-3.4375 1.3125,-3.40625 1.4375,-3.34375 1.4375,-3.34375 1.5625,-3.25 1.65625,-3.28125 1.71875,-3.15625 1.75,-3.125 1.90625,-3.09375 1.9375,-3.0625 1.96875,-3 0.71875,-1 -0.78125,0 z m -7.46878,0 -1.25,1.59375 -2.40625,3.3125 -2.34375,3.34375 -2.21875,3.40625 -2.15625,3.46875 -2.09375,3.5625 -2,3.5625 -1.875,3.65625 -1.8125,3.6875 -1.71875,3.71875 -1.625,3.78125 -1.53125,3.875 -1.40625,3.875 -1.375,3.90625 -1.21875,4.03125 -1.15625,4 -1,4.0625 -0.96875,4.0625 -0.8125,4.15625 -0.75,4.1875 -0.59375,4.21875 -0.5,4.21875 -0.40625,4.28125 -0.3125,4.28125 -0.125,4.375 -0.0937,4.34375 0.21875,8.40625 0.65625,8.25 1.03125,8.15625 1.4375,8.03125 1.84375,7.90625 2.21875,7.71875 2.5625,7.59375 2.96875,7.40625 3.28125,7.21875 3.625,7.03125 3.9375,6.8125 4.28125,6.65625 4.59375,6.40625 4.875,6.15625 5.1875,5.90625 5.40625,5.6875 5.71875,5.40625 5.9375,5.125 6.21875,4.84375 6.4375,4.5625 6.65625,4.25 6.875,3.9375 7.0625,3.59375 7.28125,3.28125 7.46875,2.90625 7.59375,2.59375 7.8125,2.1875 7.9375,1.8125 8.03125,1.4375 8.21875,1.03125 8.34375,0.65625 8.40625,0.21875 8.4375,-0.21875 8.34375,-0.65625 8.21875,-1.03125 8.03125,-1.4375 7.9375,-1.8125 7.8125,-2.1875 7.59375,-2.59375 7.46875,-2.90625 7.28125,-3.28125 7.0625,-3.59375 6.875,-3.9375 6.65625,-4.25 6.4375,-4.5625 6.21875,-4.84375 5.9375,-5.125 5.71875,-5.40625 5.40625,-5.6875 5.1875,-5.90625 4.875,-6.15625 4.5625,-6.40625 4.3125,-6.65625 3.9375,-6.8125 3.625,-7.03125 3.28125,-7.21875 2.96875,-7.40625 2.5625,-7.59375 2.21875,-7.71875 1.84375,-7.90625 1.4375,-8.03125 1.03125,-8.15625 0.65625,-8.25 0.21875,-8.40625 -0.0937,-4.3125 -0.125,-4.28125 -0.28125,-4.3125 -0.40625,-4.21875 -0.5,-4.1875 -0.59375,-4.1875 -0.75,-4.15625 -0.8125,-4.0625 -0.875,-4.09375 -1.03135,-4.03125 -1.125,-3.96875 -1.21875,-3.96875 -1.3125,-3.90625 -1.40625,-3.84375 -1.53125,-3.8125 -1.59375,-3.78125 -1.65625,-3.71875 -1.78125,-3.65625 -1.875,-3.59375 -1.9375,-3.59375 -2.0625,-3.5 -2.125,-3.4375 -2.21875,-3.40625 -2.28125,-3.34375 -2.375,-3.28125 -1.75,-2.3125 -0.8125,0 2.0625,2.6875 2.34375,3.28125 2.28125,3.3125 2.21875,3.40625 2.125,3.4375 2,3.46875 1.96875,3.5625 1.84375,3.59375 1.75,3.65625 1.71875,3.71875 1.59375,3.71875 1.46875,3.84375 1.4375,3.8125 1.3125,3.90625 1.1875,3.9375 1.09375,3.96875 1.03125,4 0.9375,4.03125 0.8125,4.125 0.71875,4.09375 0.59375,4.15625 0.5,4.1875 0.375,4.25 0.28125,4.25 0.15625,4.25 0.0625,4.3125 -0.21875,8.375 -0.625,8.21875 -1.03125,8.15625 -1.4375,7.96875 -1.8125,7.84375 -2.25,7.75 -2.53125,7.53125 -2.9375,7.375 -3.3125,7.1875 -3.625,7.03125 -3.90625,6.78125 -4.28125,6.59375 -4.5625,6.375 -4.84375,6.125 -5.15625,5.9375 -5.40625,5.625 -5.65625,5.375 -5.96875,5.125 -6.15625,4.84375 -6.40625,4.53125 -6.625,4.21875 -6.84375,3.9375 -7.0625,3.5625 -7.25,3.28125 -7.40625,2.90625 -7.59375,2.59375 -7.75,2.15625 -7.90625,1.84375 -8.0625,1.40625 -8.15625,1.03125 -8.3125,0.625 -8.40625,0.21875 -8.375,-0.21875 -8.3125,-0.625 -8.15625,-1.03125 -8.0625,-1.40625 -7.90625,-1.84375 -7.75,-2.15625 -7.59375,-2.59375 -7.40625,-2.90625 -7.25,-3.28125 -7.0625,-3.5625 -6.84375,-3.9375 -6.625,-4.21875 -6.40625,-4.53125 -6.15625,-4.84375 -5.96875,-5.125 -5.65625,-5.375 -5.4375,-5.625 -5.125,-5.9375 -4.84375,-6.125 -4.59375,-6.375 -4.25,-6.59375 -3.90625,-6.78125 -3.625,-7.03125 -3.3125,-7.1875 -2.9375,-7.375 -2.53125,-7.53125 -2.25,-7.75 -1.8125,-7.84375 -1.4375,-7.96875 -1.03125,-8.15625 -0.625,-8.21875 -0.21875,-8.375 0.0625,-4.34375 0.15625,-4.34375 0.28125,-4.28125 0.40625,-4.25 0.5,-4.21875 0.59375,-4.1875 0.75,-4.15625 0.8125,-4.125 0.9375,-4.0625 1.03125,-4.0625 1.125,-4 1.25,-3.96875 1.34375,-3.9375 1.40625,-3.84375 1.53125,-3.84375 1.625,-3.75 1.6875,-3.75 1.8125,-3.65625 1.875,-3.65625 2,-3.53125 2.0625,-3.53125 2.15625,-3.4375 2.21875,-3.40625 2.34375,-3.375 2.375,-3.25 1.53125,-2 -0.78125,0 z m -7.0937,0 -2.1875,2.625 -2.875,3.6875 -2.8125,3.75 -2.71875,3.875 -2.59375,3.90625 -2.46875,4 -2.40625,4.03125 -2.3125,4.09375 -2.15625,4.21875 -2.09375,4.25 -1.9375,4.3125 -1.84375,4.375 -1.75,4.4375 -1.625,4.46875 -1.5,4.53125 -1.375,4.59375 -1.21875,4.65625 -1.15625,4.71875 -1,4.71875 -0.875,4.78125 -0.75,4.84375 -0.625,4.84375 -0.46875,4.9375 -0.34375,4.90625 -0.21875,5 -0.0625,5 0,0.0312 0.25,9.125 0.65625,9.03125 1.15625,8.90625 1.59375,8.6875 1.96875,8.625 2.40625,8.4375 2.84375,8.25 3.1875,8.09375 3.625,7.84375 3.90625,7.65625 4.34375,7.46875 4.625,7.21875 5,6.96875 5.3125,6.6875 5.65625,6.5 5.90625,6.15625 6.21875,5.875 6.5,5.59375 6.71875,5.28125 7.03125,4.96875 7.25,4.65625 7.53125,4.28125 7.6875,3.9375 7.9375,3.53125 8.09375,3.1875 8.3125,2.8125 8.5,2.40625 8.625,1.96875 8.8125,1.5625 8.96875,1.125 9.0625,0.71875 9.15625,0.21875 9.1875,-0.21875 9.0625,-0.71875 8.96875,-1.125 8.78125,-1.5625 8.65625,-1.96875 8.5,-2.40625 8.3125,-2.8125 8.09375,-3.1875 7.9375,-3.53125 7.6875,-3.9375 7.53125,-4.28125 7.25,-4.65625 6.96875,-4.96875 6.78125,-5.28125 6.5,-5.59375 6.21875,-5.875 5.90625,-6.15625 5.65625,-6.5 5.3125,-6.6875 5,-6.96875 4.625,-7.21875 4.34375,-7.46875 3.90625,-7.65625 3.625,-7.84375 3.1875,-8.09375 2.84375,-8.25 2.40625,-8.4375 1.96875,-8.625 1.59375,-8.6875 1.15625,-8.90625 0.65625,-9.03125 0.25,-9.125 0,-0.0312 -0.0625,-5.0625 -0.21875,-5.0625 -0.34375,-5.03125 -0.5,-5 -0.65625,-4.9375 -0.75,-4.90625 -0.9375,-4.84375 -1.03125,-4.8125 -1.15625,-4.78125 -1.28125,-4.6875 -1.40625,-4.65625 -1.5625,-4.59375 -1.6875,-4.53125 -1.75,-4.5 -1.9375,-4.4375 -2,-4.375 -2.125,-4.3125 -2.28125,-4.21875 -2.34375,-4.1875 -2.46875,-4.0625 -2.5625,-4.03125 -2.6875,-3.96875 -2.75,-3.875 -2.875,-3.78125 -2.96875,-3.71875 -1,-1.1875 -0.84375,0 1.34375,1.5625 2.9375,3.71875 2.875,3.78125 2.75,3.875 2.6875,3.9375 2.5625,4 2.4375,4.0625 2.375,4.1875 2.25,4.21875 2.125,4.28125 2,4.34375 1.875,4.40625 1.78125,4.46875 1.65625,4.53125 1.5625,4.59375 1.4375,4.625 1.25,4.71875 1.1875,4.75 1.03125,4.78125 0.875,4.8125 0.78125,4.90625 0.625,4.90625 0.5,4.96875 0.375,5.03125 0.21875,5.03125 0.0625,5.0625 -0.25,9.125 -0.6875,9 -1.125,8.84375 -1.5625,8.71875 -2.03125,8.5625 -2.40625,8.40625 -2.78125,8.21875 -3.1875,8.0625 -3.59375,7.8125 -3.9375,7.65625 -4.28125,7.40625 -4.625,7.1875 -5,6.9375 -5.28125,6.71875 -5.59375,6.40625 -5.9375,6.15625 -6.1875,5.90625 -6.4375,5.5625 -6.75,5.25 -6.96875,4.9375 -7.28125,4.59375 -7.4375,4.3125 -7.6875,3.875 -7.90625,3.59375 -8.0625,3.15625 -8.3125,2.78125 -8.40625,2.375 -8.625,2 -8.78125,1.5625 -8.90625,1.125 -9.0625,0.71875 -9.15625,0.21875 -9.125,-0.21875 -9.0625,-0.71875 -8.90625,-1.125 -8.78125,-1.5625 -8.625,-2 -8.4375,-2.375 -8.28125,-2.78125 -8.0625,-3.15625 -7.90625,-3.59375 -7.6875,-3.875 -7.4375,-4.3125 -7.28125,-4.59375 -6.96875,-4.9375 -6.75,-5.25 -6.4375,-5.5625 -6.1875,-5.90625 -5.9375,-6.15625 -5.59375,-6.40625 -5.28125,-6.71875 -5,-6.9375 -4.625,-7.1875 -4.28125,-7.40625 -3.9375,-7.65625 -3.59375,-7.8125 -3.1875,-8.0625 -2.78125,-8.21875 -2.4375,-8.40625 -2,-8.5625 -1.5625,-8.71875 -1.125,-8.84375 -0.6875,-9 -0.25,-9.09375 0,-0.0312 0.0625,-5 0.21875,-4.9375 0.375,-4.9375 0.4375,-4.875 0.65625,-4.875 0.75,-4.8125 0.84375,-4.75 0.96875,-4.71875 1.15625,-4.65625 1.28125,-4.65625 1.34375,-4.5625 1.46875,-4.53125 1.625,-4.46875 1.75,-4.4375 1.8125,-4.34375 1.96875,-4.3125 2.0625,-4.21875 2.15625,-4.15625 2.3125,-4.125 2.375,-4.03125 2.46875,-3.96875 2.59375,-3.90625 2.6875,-3.8125 2.8125,-3.75 2.875,-3.6875 2.46875,-3.03125 -0.78125,0 z m -6.75,0 -2,2.21875 L 192.53124,7 l -3.125,3.90625 -3.03125,3.96875 -2.96875,4 -2.78125,4.125 -2.71875,4.1875 -2.625,4.25 -2.53125,4.375 -2.375,4.375 -2.3125,4.46875 -2.15625,4.53125 -2.03125,4.625 -1.96875,4.65625 -1.8125,4.71875 -1.65625,4.78125 -1.59375,4.8125 -1.40625,4.9375 -1.3125,4.9375 -1.21875,5 -1.03125,5.03125 -0.90625,5.09375 -0.78125,5.125 -0.65625,5.1875 -0.46875,5.25 -0.40625,5.21875 -0.21875,5.3125 -0.0625,5.34375 0.25,9.875 0.75,9.78125 1.25,9.59375 1.6875,9.46875 2.15625,9.3125 2.625,9.09375 3.0625,8.9375 3.46875,8.75 3.875,8.5 4.25,8.34375 4.6875,8.03125 5.03125,7.8125 5.4375,7.53125 5.71875,7.28125 6.09375,7 6.4375,6.65625 6.71875,6.375 7,6.0625 7.34375,5.71875 7.59375,5.375 7.875,5 8.09375,4.65625 8.34375,4.25 8.5625,3.84375 8.78125,3.4375 9,3.0625 9.1875,2.5625 9.34375,2.1875 9.53125,1.6875 9.6875,1.21875 9.8125,0.71875 9.9375,0.25 9.96875,-0.25 9.8125,-0.71875 9.6875,-1.21875 9.53125,-1.6875 9.34375,-2.1875 9.1875,-2.5625 9,-3.0625 8.78125,-3.4375 8.5625,-3.84375 8.34375,-4.25 8.09375,-4.65625 7.875,-5 7.59375,-5.375 7.3125,-5.71875 7.03125,-6.0625 6.71875,-6.375 6.4375,-6.65625 6.09375,-7 5.71875,-7.28125 5.4375,-7.53125 5.03125,-7.8125 4.6875,-8.03125 4.25,-8.34375 3.875,-8.5 3.46875,-8.75 3.0625,-8.9375 2.625,-9.09375 2.15625,-9.3125 1.6875,-9.46875 1.25,-9.59375 0.75,-9.78125 0.25,-9.875 -0.0625,-5.46875 -0.25,-5.46875 -0.40625,-5.375 -0.5,-5.34375 -0.6875,-5.3125 -0.8125,-5.25 -0.96875,-5.21875 -1.09375,-5.15625 -1.25,-5.125 -1.375,-5.0625 -1.53125,-5 -1.625,-4.9375 -1.78125,-4.90625 -1.90625,-4.8125 -2.03125,-4.75 -2.15625,-4.71875 -2.25,-4.59375 -2.375,-4.5625 -2.53125,-4.5 -2.625,-4.40625 -2.75,-4.3125 -2.84375,-4.25 -2.96875,-4.1875 -3.09375,-4.125 -3.15625,-4 L 489.28124,4.4375 486.24999,1 l -0.84375,0 0.0312,0.03125 3.375,3.84375 3.25,3.9375 3.15625,3.96875 3.09375,4.0625 2.9375,4.1875 2.84375,4.25 2.71875,4.28125 2.625,4.4375 2.53125,4.46875 2.375,4.53125 2.25,4.59375 2.15625,4.6875 2.03125,4.75 1.875,4.8125 1.78125,4.84375 1.625,4.9375 1.53125,5 1.375,5.03125 1.1875,5.09375 1.125,5.15625 0.96875,5.1875 0.8125,5.25 0.6875,5.28125 0.53125,5.34375 0.34375,5.34375 0.25,5.4375 0.0625,5.46875 -0.21875,9.84375 -0.75,9.75 -1.25,9.5625 -1.6875,9.4375 -2.1875,9.25 -2.5625,9.125 -3.0625,8.875 -3.46875,8.71875 -3.875,8.5 -4.25,8.28125 -4.65625,8.03125 -5,7.75 -5.40625,7.53125 -5.71875,7.25 -6.0625,6.9375 -6.40625,6.6875 -6.71875,6.375 -7,6 -7.28125,5.71875 -7.5625,5.34375 -7.84375,5 -8.0625,4.59375 -8.34375,4.25 -8.53125,3.84375 -8.75,3.4375 -8.96875,3.03125 -9.125,2.59375 -9.375,2.125 -9.5,1.71875 -9.625,1.1875 -9.78125,0.75 -9.9375,0.25 -9.90625,-0.25 -9.78125,-0.75 -9.625,-1.1875 -9.5,-1.71875 -9.375,-2.125 -9.125,-2.59375 -8.96875,-3.03125 -8.75,-3.4375 -8.53125,-3.84375 -8.34375,-4.25 -8.0625,-4.59375 -7.84375,-5 -7.59375,-5.34375 -7.25,-5.71875 -7,-6 -6.71875,-6.375 -6.40625,-6.6875 -6.0625,-6.9375 -5.75,-7.25 -5.375,-7.53125 -5,-7.75 -4.65625,-8.03125 -4.28125,-8.28125 -3.84375,-8.5 -3.46875,-8.71875 -3.0625,-8.875 -2.5625,-9.125 -2.1875,-9.25 -1.6875,-9.4375 -1.25,-9.5625 -0.75,-9.75 -0.25,-9.84375 0.0937,-5.34375 0.21875,-5.28125 0.375,-5.21875 0.5,-5.21875 0.625,-5.125 0.78135,-5.15625 0.90625,-5.0625 1.0625,-5.03125 1.15625,-5 1.3125,-4.90625 1.4375,-4.875 1.5625,-4.8125 1.6875,-4.78125 1.78125,-4.71875 1.96875,-4.625 2,-4.59375 2.1875,-4.53125 2.25,-4.46875 2.40625,-4.375 2.5,-4.34375 2.625,-4.25 2.6875,-4.125 2.8125,-4.125 2.90625,-4.03125 3.0625,-3.9375 3.125,-3.875 L 196.24999,3.625 198.59374,1 197.74999,1 z m -6.4375,0 -2.4375,2.5625 -3.90625,4.28125 -3.78125,4.4375 -3.65625,4.53125 -3.5,4.625 -3.40625,4.71875 -3.25,4.8125 -3.125,4.9375 -3,5 -2.875,5.09375 -2.6875,5.21875 -2.59375,5.25 -2.40625,5.34375 -2.28125,5.46875 -2.125,5.46875 -1.96875,5.5625 -1.8125,5.6875 -1.625,5.6875 -1.5,5.78125 -1.3125,5.875 -1.15625,5.90625 -1,5.96875 -0.8125,6.03125 -0.65625,6.0625 -0.40625,6.125 -0.28125,6.15625 -0.125,6.21875 0,0.0312 0.28125,10.625 0.84375,10.5 1.28125,10.34375 1.84375,10.1875 2.34375,10 2.8125,9.8125 3.25,9.625 3.75,9.40625 4.1875,9.1875 4.625,8.90625 5.03125,8.65625 5.40625,8.40625 5.8125,8.15625 6.15625,7.78125 6.5625,7.5 6.90625,7.25 7.21875,6.8125 7.59375,6.53125 7.875,6.125 8.1875,5.78125 8.4375,5.4375 8.71875,4.9375 9,4.625 9.1875,4.125 9.46875,3.71875 9.6875,3.25 9.875,2.78125 10.0625,2.34375 10.28125,1.8125 10.40625,1.3125 10.5625,0.8125 10.6875,0.28125 10.71875,-0.28125 10.5625,-0.8125 10.40625,-1.3125 10.28125,-1.8125 10.0625,-2.34375 9.875,-2.78125 9.6875,-3.25 9.46875,-3.71875 9.1875,-4.125 9,-4.625 8.71875,-4.9375 8.4375,-5.4375 8.1875,-5.78125 7.875,-6.125 7.5625,-6.53125 7.25,-6.8125 6.90625,-7.25 6.5625,-7.5 6.15625,-7.78125 5.8125,-8.15625 5.40625,-8.40625 5.03125,-8.65625 4.625,-8.90625 4.1875,-9.1875 3.75,-9.40625 3.25,-9.625 2.8125,-9.8125 2.3125,-10 1.84375,-10.1875 1.3125,-10.34375 0.8125,-10.5 0.3125,-10.625 0,-0.0312 -0.125,-6 -0.25,-6 -0.40625,-5.90625 -0.625,-5.875 -0.71875,-5.84375 -0.9375,-5.78125 -1.09375,-5.75 -1.25,-5.65625 -1.375,-5.625 -1.5625,-5.53125 -1.6875,-5.5 -1.84375,-5.46875 -2,-5.34375 -2.15625,-5.28125 -2.28125,-5.21875 -2.40625,-5.125 -2.53125,-5.0625 -2.6875,-5 -2.8125,-4.875 -2.96875,-4.84375 -3.0625,-4.6875 -3.21875,-4.65625 -3.28125,-4.5625 -3.4375,-4.4375 -3.59375,-4.34375 -3.6875,-4.3125 -3.75,-4.125 -1.9375,-2 -0.84375,0 2.28125,2.40625 3.78125,4.15625 3.65625,4.25 3.5625,4.375 3.4375,4.40625 3.3125,4.53125 3.1875,4.65625 3.0625,4.71875 2.9375,4.78125 2.78125,4.875 2.71875,4.96875 2.53125,5.0625 2.40625,5.09375 2.28125,5.21875 2.125,5.28125 1.96875,5.34375 1.84375,5.40625 1.71875,5.46875 1.53125,5.53125 1.40625,5.59375 1.25,5.6875 1.0625,5.6875 0.90625,5.78125 0.75,5.8125 0.59375,5.84375 0.4375,5.9375 0.25,5.9375 0.0937,6 -0.28125,10.625 -0.78125,10.4375 -1.34375,10.34375 -1.8125,10.15625 -2.34375,9.96875 -2.7812,9.78125 -3.28125,9.625 -3.71875,9.34375 -4.15625,9.15625 -4.625,8.875 -5,8.65625 -5.375,8.34375 -5.8125,8.125 -6.15625,7.78125 -6.5625,7.5 -6.875,7.1875 -7.1875,6.84375 -7.5625,6.46875 -7.84375,6.125 -8.15625,5.78125 -8.40625,5.34375 -8.71875,5 -8.96875,4.53125 -9.15625,4.15625 -9.4375,3.71875 -9.65625,3.21875 -9.875,2.8125 -10.03125,2.3125 -10.1875,1.78125 -10.375,1.3125 -10.5625,0.8125 -10.6875,0.3125 -10.65625,-0.3125 -10.5625,-0.8125 -10.375,-1.3125 -10.1875,-1.78125 -10.03125,-2.3125 -9.875,-2.8125 -9.65625,-3.21875 -9.4375,-3.71875 -9.15625,-4.15625 -8.96875,-4.53125 -8.71875,-5 -8.40625,-5.34375 -8.15625,-5.78125 -7.84375,-6.125 -7.5625,-6.46875 -7.1875,-6.84375 -6.875,-7.1875 -6.5625,-7.5 -6.15625,-7.78125 -5.8125,-8.125 -5.375,-8.34375 -5,-8.65625 -4.625,-8.875 -4.15625,-9.15625 -3.75,-9.34375 -3.25,-9.625 -2.78125,-9.78125 -2.34375,-9.96875 -1.8125,-10.15625 -1.34375,-10.34375 -0.78125,-10.4375 -0.28125,-10.59375 0,-0.0312 0.0937,-6.1875 0.28125,-6.15625 0.4375,-6.09375 0.625,-6.0625 0.8125,-6.03125 1,-5.9375 1.125,-5.875 1.3125,-5.8125 1.5,-5.78125 1.65625,-5.71875 1.8125,-5.625 1.9375,-5.5625 2.125,-5.5 2.25,-5.40625 2.4375,-5.3125 2.5625,-5.25 2.6875,-5.1875 2.875,-5.09375 2.96875,-5 3.125,-4.875 3.25,-4.8125 3.375,-4.71875 3.5,-4.625 3.65625,-4.5 3.75,-4.40625 3.90625,-4.3125 2.84375,-2.96875 -0.875,0 z m -6.18755,0 -4.125,4.125 -4.21875,4.46875 -4.0625,4.59375 -3.96875,4.71875 -3.8125,4.8125 -3.6875,4.9375 -3.59375,5.03125 -3.40625,5.125 -3.28125,5.21875 -3.15625,5.34375 -2.96875,5.375 -2.84375,5.53125 -2.6875,5.59375 -2.5625,5.6875 -2.375,5.78125 -2.21875,5.8125 -2.0625,5.90625 -1.90625,5.96875 -1.71875,6.125 -1.5625,6.125 -1.40625,6.15625 -1.1875,6.28125 -1.03125,6.28125 -0.875,6.40625 -0.625,6.4375 -0.5,6.46875 -0.28125,6.53125 -0.0937,6.59375 0.28125,11.40625 0.875,11.21875 1.40625,11.09375 1.96875,10.9375 2.5,10.6875 3.03125,10.53125 3.5,10.28125 4,10.0625 4.46875,9.8125 4.9375,9.5625 5.375,9.28125 5.8125,9 6.1875,8.6875 6.625,8.34375 7.03125,8.0625 7.40625,7.71875 7.75,7.34375 8.09375,6.96875 8.40625,6.59375 8.78125,6.15625 9.0625,5.78125 9.3125,5.34375 9.625,4.90625 9.875,4.46875 10.125,3.96875 10.375,3.46875 10.5625,3 10.8125,2.46875 10.9375,1.96875 11.15625,1.375 11.3125,0.875 11.46875,0.28125 11.5,-0.28125 11.3125,-0.875 11.15625,-1.375 10.9375,-1.96875 10.8125,-2.46875 10.5625,-3 10.375,-3.46875 10.125,-3.96875 9.875,-4.46875 9.625,-4.90625 9.3125,-5.34375 9.0625,-5.78125 8.75,-6.15625 8.4375,-6.59375 8.09375,-6.96875 7.75,-7.34375 7.40625,-7.71875 7.03125,-8.0625 6.625,-8.34375 6.1875,-8.6875 5.8125,-9 5.375,-9.28125 4.9375,-9.5625 4.46875,-9.8125 4,-10.0625 3.5,-10.28125 3.03125,-10.53125 2.5,-10.6875 1.9375,-10.9375 1.4375,-11.09375 0.875,-11.21875 0.28125,-11.40625 -0.0937,-6.625 -0.28125,-6.5625 -0.5,-6.5 -0.6875,-6.46875 -0.84375,-6.40625 -1.03125,-6.34375 -1.21875,-6.3125 -1.40625,-6.21875 -1.59375,-6.15625 -1.71875,-6.09375 -1.90625,-6 -2.09375,-5.96875 -2.25,-5.84375 -2.40635,-5.8125 -2.5625,-5.6875 -2.71875,-5.625 -2.875,-5.5 -3,-5.4375 -3.1875,-5.34375 -3.34375,-5.25 -3.4375,-5.1875 -3.59375,-5.03125 -3.71875,-4.90625 -3.875,-4.84375 -4,-4.71875 -4.125,-4.625 -4.25,-4.5 -3.5,-3.46875 -0.90625,0 3.96875,3.9375 4.25,4.46875 4.09375,4.59375 3.96875,4.71875 3.875,4.8125 3.71875,4.9375 3.5625,5.03125 3.4375,5.125 3.34375,5.21875 3.15625,5.3125 3,5.4375 2.875,5.5 2.6875,5.625 2.59375,5.65625 2.375,5.78125 2.21875,5.84375 2.09375,5.9375 1.90625,6 1.75,6.0625 1.5625,6.15625 1.40625,6.21875 1.21875,6.25 1.03125,6.3125 0.84375,6.40625 0.65625,6.46875 0.5,6.46875 0.28125,6.5625 0.125,6.59375 -0.28125,11.375 -0.90625,11.1875 -1.40625,11.0625 -1.9375,10.875 -2.5,10.65625 -3,10.5 -3.5,10.28125 -3.96875,10.03125 -4.46875,9.78125 -4.9375,9.53125 -5.34375,9.25 -5.8125,9 -6.1875,8.625 -6.59375,8.375 -7.03125,8 -7.375,7.6875 -7.71875,7.34375 -8.0625,6.9375 -8.40625,6.5625 -8.71875,6.15625 -9.03125,5.78125 -9.3125,5.3125 -9.5625,4.90625 -9.875,4.40625 -10.09375,3.96875 -10.34375,3.46875 -10.5625,3 -10.71875,2.46875 -10.96875,1.9375 -11.125,1.4375 -11.25,0.84375 -11.46875,0.28125 -11.4375,-0.28125 -11.25,-0.84375 -11.125,-1.4375 -10.96875,-1.9375 -10.71875,-2.46875 -10.5625,-3 -10.34375,-3.46875 -10.09375,-3.96875 -9.875,-4.40625 -9.5625,-4.90625 -9.3125,-5.3125 -9.03125,-5.78125 -8.71875,-6.15625 -8.40625,-6.5625 -8.0625,-6.9375 -7.71875,-7.34375 -7.375,-7.6875 -7.03125,-8 -6.59375,-8.375 -6.1875,-8.625 -5.8125,-9 -5.34375,-9.25 -4.9375,-9.53125 -4.46875,-9.78125 -3.96875,-10.03125 -3.5,-10.28125 -3,-10.5 -2.5,-10.65625 -1.9375,-10.875 -1.40625,-11.0625 -0.90625,-11.1875 -0.28125,-11.375 0.125,-6.5625 0.28125,-6.5 0.46875,-6.46875 0.65625,-6.40625 0.84375,-6.375 1.03125,-6.3125 1.21875,-6.25 1.375,-6.15625 1.5625,-6.125 1.71875,-6.03125 1.875,-5.96875 2.0625,-5.90625 2.1875,-5.84375 2.375,-5.71875 2.5625,-5.6875 2.6875,-5.5625 2.84375,-5.5 2.96875,-5.375 3.125,-5.3125 3.28125,-5.21875 3.40625,-5.125 3.5625,-5 3.65625,-4.9375 3.84375,-4.8125 3.96875,-4.65625 4.0625,-4.59375 4.1875,-4.5 4.3125,-4.34375 0.1875,-0.1875 -0.84375,0 z m -5.9687,0 -0.65625,0.59375 -5.03125,4.875 -4.84375,5.03125 -4.71875,5.125 -4.59375,5.28125 -4.40625,5.40625 -4.25,5.5625 -4.09375,5.65625 -3.9375,5.78125 -3.75,5.90625 -3.5625,6.03125 -3.40625,6.125 -3.21875,6.28125 -3.0625,6.34375 -2.875,6.4375 -2.65625,6.5625 -2.46875,6.65625 -2.28125,6.71875 -2.09375,6.84375 -1.875,6.90625 -1.65625,7 -1.4375,7.09375 -1.25,7.09375 -1.03125,7.25 -0.78125,7.28125 -0.59375,7.34375 -0.3125,7.40625 -0.15625,7.46875 0.3125,12.125 0.9375,12 1.5,11.8125 2.09375,11.625 2.65625,11.40625 3.25,11.21875 3.71875,10.96875 4.28125,10.71875 4.75,10.46875 5.25,10.1875 5.71875,9.90625 6.21875,9.59375 6.625,9.25 7.0625,8.9375 7.5,8.5625 7.84375,8.21875 8.28125,7.84375 8.625,7.40625 9,7.03125 9.34375,6.59375 9.625,6.125 9.96875,5.71875 10.25,5.21875 10.53125,4.75 10.78125,4.25 11.0625,3.71875 11.25,3.1875 11.53125,2.625 11.6875,2.0625 11.90625,1.5 12.03125,0.9375 12.21875,0.3125 12.25,-0.3125 12.03125,-0.9375 11.90625,-1.5 11.6875,-2.0625 11.53125,-2.625 11.25,-3.1875 11.0625,-3.71875 10.78125,-4.25 10.53125,-4.75 10.25,-5.21875 9.96875,-5.71875 9.625,-6.125 9.34375,-6.59375 9,-7.03125 8.625,-7.40625 8.25,-7.84375 7.875,-8.21875 7.46875,-8.5625 7.09375,-8.9375 6.625,-9.25 6.21875,-9.59375 5.71875,-9.90625 5.25,-10.1875 4.75,-10.46875 4.28125,-10.71875 3.71875,-10.96875 3.25,-11.21875 2.65625,-11.40625 2.0625,-11.625 1.53125,-11.8125 0.9375,-12 0.3125,-12.125 -0.0937,-7.1875 -0.375,-7.15625 -0.53125,-7.09375 -0.75,-7.03125 -0.9375,-6.96875 -1.15625,-6.90625 -1.34375,-6.84375 -1.5625,-6.75 -1.75,-6.6875 -1.90625,-6.59375 -2.125,-6.5625 -2.3125,-6.4375 -2.53125,-6.34375 -2.65625,-6.28125 -2.8125,-6.15625 -3.03125,-6.09375 -3.1875,-6 -3.3125,-5.875 -3.5625,-5.78125 -3.6563,-5.65625 -3.8125,-5.53125 -4,-5.46875 -4.125,-5.3125 -4.28125,-5.21875 -4.4375,-5.0625 -4.53125,-4.90625 L 510.31249,6.3125 505.49999,1.59375 504.84374,1 l -1,0 1.1875,1.09375 4.84375,4.65625 4.6875,4.8125 4.5625,4.9375 4.375,5.0625 4.28125,5.15625 4.125,5.3125 3.96875,5.4375 3.8125,5.53125 3.65625,5.65625 3.5,5.75 3.34375,5.875 3.1875,5.96875 3,6.0625 2.84375,6.15625 2.65625,6.28125 2.5,6.3125 2.28125,6.4375 2.125,6.5 1.9375,6.59375 1.71875,6.65625 1.5625,6.78125 1.34375,6.8125 1.15625,6.875 0.9375,6.9375 0.75,7 0.53125,7.09375 0.34375,7.125 0.125,7.15625 -0.34375,12.125 -0.90625,11.96875 -1.53125,11.78125 -2.09375,11.5625 -2.625,11.40625 -3.21875,11.1875 -3.71875,10.9375 -4.25,10.6875 -4.75,10.4375 -5.25,10.15625 -5.71875,9.90625 -6.1875,9.5625 -6.625,9.1875 -7.03125,8.9375 -7.46875,8.53125 -7.84375,8.1875 -8.21875,7.8125 -8.625,7.4375 -8.96875,6.96875 -9.3125,6.59375 -9.59375,6.125 -9.96875,5.6875 -10.1875,5.1875 -10.53125,4.71875 -10.78125,4.25 -10.96875,3.6875 -11.28125,3.1875 -11.4375,2.625 -11.6875,2.09375 -11.84375,1.5 -12.03125,0.90625 -12.21875,0.3125 -12.1875,-0.3125 -12.03125,-0.90625 -11.84375,-1.5 -11.6875,-2.09375 -11.4375,-2.625 -11.28125,-3.1875 -10.96875,-3.6875 -10.78125,-4.25 -10.53125,-4.71875 -10.1875,-5.1875 -9.96875,-5.6875 -9.59375,-6.125 -9.3125,-6.59375 -8.96875,-6.96875 -8.625,-7.4375 -8.21875,-7.8125 -7.875,-8.1875 -7.4375,-8.53125 -7.03125,-8.9375 -6.625,-9.1875 -6.1875,-9.5625 -5.71875,-9.90625 -5.25,-10.15625 -4.75,-10.4375 -4.25,-10.6875 -3.71875,-10.9375 -3.21875,-11.1875 -2.625,-11.40625 -2.09375,-11.5625 -1.53125,-11.78125 -0.90625,-11.96875 -0.34375,-12.09375 0,-0.0312 0.15625,-7.40625 0.3125,-7.40625 0.59375,-7.34375 0.78125,-7.25 1.03125,-7.1875 1.25,-7.125 1.4375,-7.0625 1.6875,-6.96875 1.875,-6.875 2.0625,-6.84375 2.25,-6.6875 2.5,-6.625 2.65625,-6.5625 2.8125,-6.4375 3.0625,-6.3125 3.21875,-6.25 3.40625,-6.125 3.5625,-6.03125 3.71875,-5.875 3.9375,-5.78125 4.09375,-5.625 4.25,-5.53125 4.375,-5.40625 4.53125,-5.25 4.71875,-5.15625 4.875,-4.96875 4.96875,-4.875 1.1875,-1.0625 -0.9375,0 z m -5.71875,0 -1.625,1.4375 -5.375,4.96875 -5.15625,5.15625 -5.0625,5.3125 -4.90625,5.40625 -4.75,5.625 -4.5625,5.6875 -4.40625,5.84375 -4.25,5.96875 -4.0625,6.125 -3.90625,6.1875 -3.71875,6.34375 -3.5,6.46875 -3.375,6.5625 -3.15625,6.6875 -2.9375,6.78125 -2.75,6.875 -2.5625,7 -2.375,7.0625 -2.156241,7.1875 -1.90625,7.25 -1.75,7.34375 -1.53125,7.40625 -1.25,7.5 -1.0625,7.5625 -0.84375,7.625 -0.59375,7.6875 -0.34375,7.78125 -0.15625,7.8125 0,0.0625 0.375,12.84375 0.9375,12.71875 1.625,12.5625 2.21875,12.34375 2.8125,12.125 3.406241,11.90625 4,11.65625 4.5,11.375 5.09375,11.125 5.59375,10.8125 6.09375,10.5 6.5625,10.1875 7.03125,9.8125 7.53125,9.5 7.9375,9.09375 8.34375,8.71875 8.78125,8.34375 9.1875,7.875 9.53125,7.46875 9.875,6.96875 10.28125,6.5625 10.5625,6.03125 10.875,5.5625 11.1875,5.03125 11.5,4.5 11.71875,3.9375 11.96875,3.375 12.1875,2.8125 12.4375,2.1875 12.625,1.59375 12.8125,1 12.96875,0.3125 12.96875,-0.3125 12.84375,-1 12.625,-1.59375 12.4375,-2.1875 12.1875,-2.8125 11.96875,-3.375 11.71875,-3.9375 11.5,-4.5 11.1875,-5.03125 10.875,-5.5625 10.5625,-6.03125 10.28125,-6.5625 9.875,-6.96875 9.53125,-7.46875 9.1875,-7.875 8.78125,-8.34375 8.34375,-8.71875 7.9375,-9.09375 7.53125,-9.5 7.03125,-9.8125 6.5625,-10.1875 6.09375,-10.5 5.59375,-10.8125 5.09375,-11.125 4.5,-11.375 4,-11.65625 3.375,-11.90625 2.84375,-12.125 2.21875,-12.34375 1.625,-12.5625 0.9375,-12.71875 0.375,-12.84375 0,-0.0625 -0.15625,-7.75 -0.34375,-7.71875 -0.5625,-7.65625 -0.875,-7.59375 -1,-7.53125 -1.28125,-7.4375 -1.5,-7.375 -1.6875,-7.3125 -1.9375,-7.21875 -2.125,-7.125 -2.3125,-7 -2.53125,-6.96875 -2.71875,-6.875 -2.9375,-6.71875 -3.125,-6.65625 -3.3125,-6.53125 -3.5,-6.4375 -3.65625,-6.3125 -3.84375,-6.1875 -4.03125,-6.09375 -4.1875,-5.96875 -4.375,-5.8125 -4.53125,-5.6875 -4.6875,-5.59375 -4.84375,-5.40625 -5,-5.28125 -5.125,-5.125 -5.28125,-5 L 510.53124,1 l -0.9375,0 3.0625,2.75 5.28125,4.96875 5.15625,5.15625 4.9375,5.25 4.84375,5.40625 4.65625,5.5625 4.53125,5.6875 4.34375,5.78125 4.21875,5.96875 4,6.0625 3.8125,6.15625 3.6875,6.3125 3.46875,6.40625 3.3125,6.53125 3.09375,6.625 2.90625,6.71875 2.75,6.84375 2.5,6.90625 2.34375,7.0625 2.125,7.09375 1.90625,7.1875 1.71875,7.28125 1.4375,7.34375 1.28125,7.4375 1.0625,7.53125 0.8125,7.5625 0.5625,7.625 0.375,7.6875 0.125,7.75 -0.34375,12.875 -0.96875,12.71875 -1.59375,12.5 -2.21875,12.3125 -2.84375,12.125 -3.375,11.8125 -3.96875,11.625 -4.53125,11.375 -5.03125,11.09375 -5.59375,10.78125 -6.0625,10.46875 -6.5625,10.1875 -7,9.8125 -7.5,9.46875 -7.90625,9.0625 -8.375,8.6875 -8.75,8.28125 -9.125,7.875 -9.53125,7.4375 -9.875,6.96875 -10.21875,6.53125 -10.5625,6.03125 -10.84375,5.5625 -11.15625,4.96875 -11.46875,4.5 -11.6875,3.9375 -11.9375,3.375 -12.1875,2.8125 -12.40625,2.21875 -12.5625,1.59375 -12.8125,0.96875 -12.9375,0.3125 -12.90625,-0.3125 -12.8125,-0.96875 -12.5625,-1.59375 -12.40625,-2.21875 -12.1875,-2.8125 -11.9375,-3.375 -11.6875,-3.9375 -11.46875,-4.5 -11.15625,-4.96875 -10.84375,-5.5625 -10.5625,-6.03125 -10.21875,-6.53125 -9.875,-6.96875 -9.53125,-7.4375 -9.125,-7.875 -8.75,-8.28125 -8.375,-8.6875 -7.90625,-9.0625 -7.5,-9.46875 -7,-9.8125 -6.5625,-10.1875 -6.0625,-10.46875 -5.59375,-10.78125 L 109.90624,285 105.37499,273.625 101.40624,262 l -3.374991,-11.8125 -2.84375,-12.125 -2.21875,-12.3125 -1.59375,-12.5 -0.96875,-12.71875 -0.34375,-12.875 0.125,-7.78125 0.375,-7.75 0.59375,-7.65625 0.8125,-7.625 1.0625,-7.5625 1.28125,-7.46875 1.46875,-7.40625 1.75,-7.34375 1.9375,-7.21875 2.124991,-7.15625 2.34375,-7.03125 2.59375,-6.96875 2.71875,-6.875 3,-6.75 3.125,-6.65625 3.34375,-6.5625 3.5,-6.46875 3.71875,-6.28125 3.875,-6.25 4.0625,-6.0625 4.21875,-5.96875 4.40625,-5.8125 4.5625,-5.71875 4.75,-5.5625 4.84375,-5.40625 5.03125,-5.28125 5.21875,-5.15625 5.3125,-4.96875 L 174.37499,1 l -0.9375,0 z m -5.53125,0 -2.15625,1.8125 -5.9375,5.3125 -5.6875,5.46875 -5.59375,5.65625 -5.40625,5.78125 -5.25,5.9375 -5.03125,6.15625 -4.875,6.25 -4.6875,6.375 -4.5,6.5625 -4.28125,6.6875 -4.09375,6.8125 -3.90625,6.9375 -3.71875,7.09375 -3.468741,7.1875 -3.3125,7.3125 -3.03125,7.4375 -2.84375,7.5625 -2.625,7.59375 -2.375,7.78125 -2.15625,7.8125 -1.90625,7.9375 -1.6875,8 -1.40625,8.125 -1.15625,8.21875 -0.9375,8.25 -0.65625,8.34375 -0.40625,8.4375 -0.125,8.46875 0.34375,13.625 1.03125,13.46875 1.6875,13.28125 2.375,13.0625 3,12.84375 3.59375,12.59375 4.21875,12.3125 4.78125,12.0625 5.343741,11.75 5.9375,11.4375 6.4375,11.125 6.9375,10.78125 7.5,10.40625 7.9375,10.03125 8.375,9.65625 8.875,9.21875 9.28125,8.8125 9.6875,8.3125 10.125,7.90625 10.46875,7.40625 10.84375,6.90625 11.21875,6.4375 11.5,5.84375 11.84375,5.34375 12.15625,4.75 12.375,4.1875 12.6875,3.5625 12.90625,2.96875 13.1875,2.34375 13.34375,1.71875 13.5625,1 13.71875,0.34375 13.75,-0.34375 13.5625,-1 13.34375,-1.71875 13.1875,-2.34375 12.90625,-2.96875 12.65625,-3.5625 12.40625,-4.1875 12.15625,-4.75 11.84375,-5.34375 11.5,-5.84375 11.21875,-6.4375 10.84375,-6.90625 10.46875,-7.40625 10.09375,-7.90625 9.71875,-8.3125 9.28125,-8.8125 8.875,-9.21875 8.375,-9.65625 7.9375,-10.03125 7.5,-10.40625 6.9375,-10.78125 6.4375,-11.125 5.9375,-11.4375 5.34375,-11.75 4.78125,-12.0625 4.21875,-12.3125 3.59375,-12.59375 3,-12.84375 2.375,-13.0625 1.6875,-13.28125 1.03125,-13.46875 0.34375,-13.625 -0.125,-8.46875 -0.40625,-8.375 -0.65625,-8.3125 -0.9375,-8.21875 -1.15625,-8.1875 -1.375,-8.09375 -1.6875,-8 -1.90625,-7.90625 -2.125,-7.84375 -2.375,-7.6875 -2.59375,-7.59375 -2.8125,-7.5625 -3.03125,-7.40625 -3.25,-7.25 -3.46875,-7.1875 -3.6875,-7.0625 -3.875,-6.9375 -4.0625,-6.8125 -4.28125,-6.65625 -4.46875,-6.53125 -4.6875,-6.40625 -4.8125,-6.25 -5.03125,-6.09375 -5.21875,-5.9375 -5.34375,-5.8125 -5.5625,-5.625 -5.6875,-5.46875 -5.875,-5.3125 L 516.06249,1 l -0.96875,0 3.28125,2.8125 5.84375,5.28125 5.6875,5.4375 5.53125,5.65625 5.375,5.75 5.15625,5.9375 5.03125,6.09375 4.8125,6.21875 4.65625,6.375 4.46875,6.53125 4.25,6.65625 4.0625,6.78125 3.875,6.90625 3.6875,7.0625 3.4375,7.15625 3.25,7.28125 3.03125,7.375 2.8125,7.5 2.59375,7.59375 2.375,7.6875 2.125,7.84375 1.875,7.84375 1.65625,8 1.4375,8.0625 1.125,8.15625 0.90625,8.21875 0.6875,8.28125 0.375,8.375 0.15625,8.4375 -0.34375,13.59375 -1.03125,13.4375 -1.71875,13.25 -2.375,13.03125 -2.96875,12.78125 -3.5625,12.59375 -4.21875,12.28125 -4.78125,12.03125 -5.34375,11.71875 -5.90625,11.40625 -6.40625,11.125 -6.9375,10.75 -7.4375,10.375 -7.9375,10 -8.375,9.625 -8.875,9.21875 -9.21875,8.75 -9.6875,8.3125 -10.09375,7.875 -10.46875,7.40625 -10.78125,6.90625 -11.1875,6.375 -11.5,5.84375 -11.8125,5.34375 -12.125,4.71875 -12.34375,4.1875 -12.65625,3.59375 -12.90625,2.9375 -13.09375,2.34375 -13.375,1.6875 -13.5,1.03125 -13.71875,0.3125 -13.6875,-0.3125 -13.5,-1.03125 -13.375,-1.6875 -13.09375,-2.34375 -12.90625,-2.9375 -12.65625,-3.59375 -12.375,-4.1875 -12.09375,-4.71875 -11.8125,-5.34375 -11.5,-5.84375 -11.1875,-6.375 -10.78125,-6.90625 -10.46875,-7.40625 -10.09375,-7.875 -9.6875,-8.3125 -9.25,-8.75 -8.84375,-9.21875 -8.375,-9.625 -7.9375,-10 -7.4375,-10.375 -6.9375,-10.75 -6.40625,-11.125 -5.90625,-11.40625 L 96.312499,305.3125 91.531249,293.28125 87.312499,281 l -3.5625,-12.59375 -2.96875,-12.78125 -2.375,-13.03125 -1.71875,-13.25 -1.03125,-13.4375 -0.34375,-13.59375 0.15625,-8.46875 0.375,-8.40625 0.6875,-8.28125 0.90625,-8.28125 1.1875,-8.15625 1.40625,-8.09375 1.65625,-8 1.90625,-7.90625 2.125,-7.84375 2.375,-7.71875 2.625,-7.625 2.84375,-7.5 3.0625,-7.4375 3.249991,-7.28125 3.46875,-7.1875 3.6875,-7.03125 3.90625,-6.96875 4.09375,-6.78125 4.28125,-6.65625 4.5,-6.53125 4.6875,-6.40625 4.84375,-6.25 5.03125,-6.09375 5.21875,-5.9375 5.375,-5.78125 5.5625,-5.65625 5.75,-5.4375 5.875,-5.28125 L 168.87499,1 167.90624,1 z m -5.4375,0 -5.40625,4.53125 -6.53125,5.8125 -6.34375,6.03125 -6.125,6.1875 -5.9375,6.40625 -5.75,6.53125 -5.5625,6.75 -5.3125,6.90625 -5.15625,7.09375 -4.875,7.21875 -4.71875,7.40625 -4.437491,7.53125 -4.1875,7.6875 -4.03125,7.84375 -3.75,7.96875 -3.46875,8.125 -3.25,8.21875 -2.96875,8.34375 -2.75,8.46875 -2.4375,8.625 -2.1875,8.6875 -1.9375,8.8125 -1.625,8.90625 -1.34375,9 -1.0625,9.0625 -0.75,9.1875 -0.4375,9.25 -0.1875,9.3125 0,0.0312 0.375,14.375 1.125,14.21875 1.75,14 2.5,13.78125 3.15625,13.5313 3.8125,13.28125 4.4375,13 5.0625,12.71875 5.625,12.40625 6.25,12.09375 6.781241,11.71875 7.34375,11.375 7.90625,11 8.375,10.59375 8.84375,10.15625 9.34375,9.75 9.8125,9.28125 10.25,8.78125 10.625,8.34375 11.0625,7.8125 11.4375,7.3125 11.84375,6.71875 12.15625,6.21875 12.46875,5.59375 12.84375,5.03125 13.0625,4.4375 13.375,3.75 13.65625,3.15625 13.84375,2.4375 14.125,1.8125 14.3125,1.0625 14.46875,0.375 14.5,-0.375 14.3125,-1.0625 14.125,-1.8125 13.84375,-2.4375 13.625,-3.15625 13.40625,-3.75 13.0625,-4.4375 12.84375,-5.03125 12.46875,-5.59375 12.15625,-6.21875 11.84375,-6.71875 11.4375,-7.3125 11.0625,-7.8125 10.625,-8.34375 10.21875,-8.78125 9.84375,-9.28125 9.34375,-9.75 8.84375,-10.15625 8.375,-10.59375 7.90625,-11 7.34375,-11.375 6.78125,-11.71875 6.25,-12.09375 5.625,-12.40625 5.0625,-12.71875 4.4375,-13 3.8125,-13.28125 3.15625,-13.53125 2.5,-13.78125 1.75,-14 1.125,-14.21875 0.375,-14.375 0,-0.0312 -0.1875,-9.03125 -0.40625,-9 -0.71875,-8.9375 -1,-8.8125 -1.28125,-8.75 -1.5,-8.65625 -1.8125,-8.5625 -2.09375,-8.46875 -2.3125,-8.40625 -2.5625,-8.25 -2.84375,-8.15625 -3.0625,-8.0625 -3.3125,-7.875 -3.5625,-7.8125 -3.75,-7.6875 -4,-7.5 -4.21875,-7.40625 -4.46875,-7.28125 -4.625,-7.125 -4.875,-6.9375 -5.0625,-6.8125 -5.25,-6.65625 -5.4375,-6.46875 -5.6875,-6.3125 -5.84375,-6.125 -5.96875,-6 -6.21875,-5.7813 -6.375,-5.59375 L 521.43749,1 l -1,0 4.75,3.90625 6.375,5.59375 6.15625,5.78125 6.03125,5.9375 5.8125,6.15625 5.625,6.28125 5.46875,6.5 5.21875,6.625 5.03125,6.75 4.875,6.96875 4.625,7.125 4.4375,7.21875 4.21875,7.375 4,7.53125 3.75,7.625 3.5625,7.8125 3.28125,7.875 3.0625,8.03125 2.8125,8.125 2.5625,8.28125 2.34375,8.3125 2.03125,8.46875 1.8125,8.53125 1.53125,8.65625 1.28125,8.71875 1,8.8125 0.6875,8.90625 0.46875,8.96875 0.15625,9.03125 -0.40625,14.375 -1.0625,14.1875 -1.8125,13.9375 -2.46875,13.75 -3.15625,13.5625 -3.78125,13.25 -4.4375,12.96875 -5.03125,12.65625 -5.6875,12.40625 -6.1875,12.0625 -6.8125,11.6875 -7.28125,11.34375 -7.875,10.9375 -8.375,10.5625 -8.84375,10.1875 -9.3125,9.6875 -9.78125,9.25 -10.21875,8.78125 -10.625,8.34375 -11.0625,7.78125 -11.40625,7.28125 -11.75,6.71875 -12.15625,6.21875 -12.4375,5.59375 -12.78125,5 -13.09375,4.375 -13.3125,3.78125 -13.59375,3.125 -13.875,2.46875 -14.0625,1.78125 -14.28125,1.0625 -14.46875,0.40625 -14.4375,-0.40625 -14.28125,-1.0625 -14.0625,-1.78125 -13.875,-2.46875 -13.59375,-3.125 -13.3125,-3.78125 -13.09375,-4.375 -12.78125,-5 -12.4375,-5.59375 -12.15625,-6.21875 -11.75,-6.71875 -11.40625,-7.28125 -11.0625,-7.78125 -10.625,-8.34375 -10.21875,-8.78125 -9.78125,-9.25 -9.3125,-9.6875 -8.875,-10.1875 -8.34375,-10.5625 -7.875,-10.9375 L 101.40624,361.75 94.593749,350.0625 88.374999,338 l -5.65625,-12.40625 -5.03125,-12.65625 -4.4375,-12.96875 -3.78125,-13.25 -3.15625,-13.5625 -2.46875,-13.75 -1.8125,-13.9375 -1.0625,-14.1875 -0.40625,-14.34375 0,-0.0312 0.1875,-9.28125 0.46875,-9.25 0.75,-9.15625 1.0625,-9.0625 1.34375,-8.96875 1.625,-8.875 1.875,-8.8125 2.1875,-8.65625 2.4375,-8.59375 2.75,-8.4375 2.96875,-8.34375 3.21875,-8.21875 3.5,-8.09375 3.75,-7.9375 3.96875,-7.8125 4.1875,-7.6875 4.468741,-7.53125 4.6875,-7.375 4.875,-7.21875 5.125,-7.0625 5.3125,-6.90625 5.5625,-6.71875 5.75,-6.53125 5.90625,-6.375 6.125,-6.15625 6.3125,-6.03125 6.5,-5.78125 6,-5.03125 -1,0 z m -5.15625,0 -3.84375,3.03125 -6.71875,5.6875 -6.59375,5.875 -6.375,6.0625 -6.21875,6.28125 -6,6.4375 -5.84375,6.625 -5.65625,6.78125 -5.40625,6.96875 -5.249991,7.125 -5,7.28125 -4.8125,7.4375 -4.5625,7.5625 -4.375,7.75 -4.09375,7.84375 -3.90625,8.03125 -3.65625,8.09375 -3.40625,8.25 -3.1875,8.40625 -2.90625,8.5 -2.65625,8.625 -2.375,8.71875 -2.15625,8.8125 -1.84375,8.9375 -1.59375,9.03125 -1.3125,9.09375 -1.03125,9.21875 -0.71875,9.28125 -0.4375,9.34375 -0.15625,9.4375 0.375,15.15625 1.15625,14.9375 1.875,14.71875 2.625,14.53125 3.34375,14.25 4,13.96875 4.6875,13.71875 5.3125,13.34375 5.9375,13.09375 6.5625,12.65625 7.15625,12.375 7.71875,11.9375 8.249991,11.5625 8.84375,11.15625 9.34375,10.71875 9.8125,10.21875 10.3125,9.75 10.78125,9.28125 11.21875,8.75 11.625,8.21875 12.0625,7.6875 12.4375,7.09375 12.78125,6.53125 13.125,5.90625 13.46875,5.28125 13.78125,4.625 14.09375,3.96875 14.34375,3.3125 14.59375,2.59375 14.84375,1.875 15.0625,1.15625 15.21875,0.40625 15.25,-0.40625 15.0625,-1.15625 14.84375,-1.875 14.59375,-2.59375 14.34375,-3.3125 14.09375,-3.96875 13.78125,-4.625 13.4375,-5.28125 13.15625,-5.90625 12.78125,-6.53125 12.4375,-7.09375 12.0625,-7.6875 11.625,-8.21875 11.21875,-8.75 10.78125,-9.28125 10.3125,-9.75 9.8125,-10.21875 9.34375,-10.71875 8.84375,-11.15625 8.25,-11.5625 7.71875,-11.9375 7.15625,-12.375 6.5625,-12.65625 5.9375,-13.09375 5.3125,-13.34375 4.6875,-13.71875 4,-13.96875 3.34375,-14.25 2.625,-14.53125 1.875,-14.71875 1.15625,-14.9375 0.375,-15.15625 -0.15625,-9.90625 -0.5,-9.8125 -0.8125,-9.78125 -1.125,-9.65625 -1.46875,-9.5625 -1.71875,-9.46875 -2.0625,-9.34375 -2.375,-9.25 -2.625,-9.09375 -2.9375,-9 -3.1875,-8.90625 -3.46875,-8.71875 -3.75,-8.59375 -4.0625,-8.46875 -4.25,-8.3125 -4.53125,-8.15625 -4.78125,-8 -5.03125,-7.8125 -5.25,-7.65625 -5.53125,-7.53125 -5.6875,-7.28125 -5.96875,-7.125 -6.15625,-6.90625 -6.375,-6.78125 -6.59375,-6.5 -6.78125,-6.34375 -6.96875,-6.09375 -7.1875,-5.9375 L 526.71874,1 l -1.0625,0 1.34375,1.03125 7.1875,5.875 6.96875,6.125 6.75,6.3125 6.5625,6.53125 6.375,6.71875 6.125,6.90625 5.96875,7.09375 5.71875,7.3125 5.46875,7.46875 5.25,7.65625 5.03125,7.78125 4.75,8.03125 4.53125,8.09375 4.25,8.3125 4,8.4375 3.78125,8.59375 3.46875,8.71875 3.1875,8.8125 2.9375,9 2.625,9.125 2.34375,9.21875 2.03125,9.3125 1.75,9.4375 1.4375,9.53125 1.15625,9.65625 0.8125,9.75 0.5,9.8125 0.125,9.875 -0.34375,15.125 -1.1875,14.9375 -1.875,14.6875 -2.625,14.46875 -3.28125,14.1875 -4,13.96875 -4.65625,13.65625 -5.3125,13.34375 -5.9375,13.03125 -6.5625,12.6875 -7.125,12.3125 -7.71875,11.9375 -8.25,11.5625 -8.8125,11.0625 -9.3125,10.6875 -9.8125,10.21875 -10.28125,9.75 -10.75,9.25 -11.1875,8.75 -11.59375,8.1875 -12.03125,7.65625 -12.40625,7.09375 -12.78125,6.5 -13.09375,5.90625 -13.4375,5.28125 -13.75,4.625 -14.0625,3.96875 -14.3125,3.3125 -14.5625,2.5625 -14.8125,1.90625 -15,1.125 -15.25,0.375 -15.21875,-0.375 -15,-1.125 -14.8125,-1.90625 -14.5625,-2.5625 -14.3125,-3.3125 -14.0625,-3.96875 -13.75,-4.625 -13.4375,-5.28125 -13.09375,-5.90625 -12.78125,-6.5 L 188.53124,483 l -12.03125,-7.65625 -11.625,-8.1875 -11.15625,-8.75 -10.75,-9.25 -10.28125,-9.75 -9.8125,-10.21875 -9.34375,-10.6875 -8.78125,-11.0625 -8.249991,-11.5625 -7.71875,-11.9375 -7.125,-12.3125 -6.5625,-12.6875 -5.9375,-13.03125 -5.3125,-13.34375 -4.65625,-13.65625 -4,-13.96875 -3.28125,-14.1875 -2.625,-14.46875 -1.875,-14.6875 -1.1875,-14.9375 -0.34375,-15.125 0.125,-9.4375 0.4375,-9.3125 0.75,-9.28125 1.03125,-9.15625 1.3125,-9.09375 1.59375,-9 1.84375,-8.90625 2.125,-8.8125 2.375,-8.71875 2.65625,-8.59375 2.90625,-8.46875 3.15625,-8.375 3.375,-8.25 3.65625,-8.125 3.90625,-7.96875 4.09375,-7.84375 4.375,-7.6875 4.5625,-7.59375 4.78125,-7.40625 4.999991,-7.25 5.21875,-7.09375 5.40625,-6.9375 5.65625,-6.8125 5.78125,-6.59375 6,-6.40625 6.21875,-6.28125 6.40625,-6.0625 6.5625,-5.875 6.71875,-5.6875 4.40625,-3.5 -1,0 z m -5.125,0 -5.6875,4.4375 -7.5,6.1875 -7.28125,6.4375 -7.09375,6.65625 -6.8125,6.84375 -6.6875,7.03125 -6.40625,7.28125 -6.187491,7.46875 -5.96875,7.65625 -5.71875,7.8125 -5.5,8.0625 -5.21875,8.1875 -5,8.34375 -4.71875,8.5625 -4.4375,8.65625 -4.1875,8.875 -3.90625,9 -3.65625,9.125 -3.3125,9.28125 -3.0625,9.4375 -2.71875,9.53125 -2.46875,9.6875 -2.15625,9.78125 -1.78125,9.875 -1.53125,10 -1.1875,10.09375 -0.84375,10.1875 -0.53125,10.28125 -0.125,10.34375 0,0.0312 0.375,15.875 1.21875,15.71875 1.96875,15.46875 2.75,15.21875 3.5,14.9375 4.1875,14.65625 4.90625,14.40625 5.5625,14.03125 6.28125,13.71875 6.875,13.3125 7.5,12.96875 8.125,12.53125 8.6875,12.15625 9.249991,11.6875 9.8125,11.25 10.3125,10.71875 10.84375,10.25 11.28125,9.75 11.78125,9.1875 12.21875,8.625 12.625,8.0625 13.0625,7.46875 13.4375,6.84375 13.78125,6.1875 14.125,5.53125 14.46875,4.875 14.78125,4.15625 15.0625,3.46875 15.34375,2.75 15.53125,1.96875 15.8125,1.15625 16,0.4375 16.03125,-0.4375 15.8125,-1.15625 15.53125,-1.96875 15.34375,-2.75 15.0625,-3.46875 14.78125,-4.15625 14.46875,-4.875 14.125,-5.53125 13.78125,-6.1875 13.4375,-6.84375 13.0625,-7.46875 12.625,-8.0625 12.21875,-8.625 11.78125,-9.1875 11.28125,-9.75 10.84375,-10.25 10.3125,-10.71875 9.8125,-11.25 9.25,-11.6875 8.6875,-12.15625 8.125,-12.53125 7.5,-12.96875 6.875,-13.3125 6.28125,-13.71875 5.5625,-14.03125 4.90625,-14.40625 4.1875,-14.65625 3.5,-14.9375 2.75,-15.21875 1.96875,-15.46875 1.21875,-15.71875 0.375,-15.875 0,-0.0312 -0.125,-10.1875 -0.5,-10.15625 -0.84375,-10 -1.15625,-9.96875 -1.4375,-9.875 -1.78125,-9.75 -2.09375,-9.65625 -2.375,-9.53125 -2.65625,-9.40625 -2.96875,-9.28125 -3.25,-9.1875 -3.53125,-9.03125 -3.8125,-8.90625 -4.03125,-8.75 -4.375,-8.59375 -4.5625,-8.4375 -4.84375,-8.3125 -5.125,-8.09375 -5.3125,-7.9375 -5.59375,-7.8125 -5.8125,-7.5625 -6.03125,-7.4375 -6.25,-7.21875 L 568.53124,34 l -6.6875,-6.8125 -6.90625,-6.625 -7.09375,-6.40625 -7.28125,-6.21875 -7.5,-5.96875 L 531.78124,1 l -1.09375,0 2,1.5 7.46875,5.9375 7.28125,6.1875 7.0625,6.40625 6.875,6.59375 6.71875,6.84375 6.4375,6.96875 6.25,7.21875 6,7.40625 5.8125,7.59375 5.5625,7.75 5.3125,7.9375 5.125,8.125 4.8125,8.25 4.5625,8.4375 4.3125,8.5625 4.09375,8.71875 3.78125,8.90625 3.5,9 3.28125,9.125 2.9375,9.28125 2.6875,9.40625 2.375,9.53125 2.0625,9.625 1.75,9.71875 1.46875,9.84375 1.125,9.9375 0.84375,10.03125 0.5,10.125 0.15625,10.15625 -0.40625,15.875 -1.1875,15.65625 -2,15.46875 -2.71875,15.1875 -3.46875,14.9375 -4.21875,14.625 -4.90625,14.34375 -5.5625,14 -6.21875,13.6875 -6.875,13.3125 -7.46875,12.9375 -8.125,12.5 -8.6875,12.125 -9.21875,11.65625 -9.78125,11.1875 -10.28125,10.75 -10.8125,10.21875 -11.28125,9.71875 -11.75,9.1875 -12.1875,8.59375 -12.625,8.0625 -13,7.4375 -13.40625,6.78125 -13.78125,6.21875 -14.09375,5.53125 -14.46875,4.84375 -14.71875,4.1875 -15.03125,3.4375 -15.28125,2.71875 -15.5625,2 -15.75,1.15625 -16,0.4375 -15.96875,-0.4375 -15.75,-1.15625 -15.5625,-2 -15.28125,-2.71875 -15.03125,-3.4375 -14.71875,-4.1875 -14.46875,-4.84375 -14.09375,-5.53125 -13.78125,-6.21875 -13.40625,-6.78125 -13,-7.4375 -12.625,-8.0625 -12.1875,-8.59375 -11.75,-9.1875 -11.28125,-9.71875 -10.8125,-10.21875 -10.3125,-10.75 -9.75,-11.1875 -9.218741,-11.65625 -8.6875,-12.125 -8.125,-12.5 -7.46875,-12.9375 -6.875,-13.3125 -6.25,-13.6875 -5.5625,-14 -4.875,-14.34375 -4.21875,-14.625 -3.46875,-14.9375 -2.71875,-15.1875 -2,-15.46875 -1.1875,-15.65625 -0.40625,-15.84375 0,-0.0312 0.15625,-10.3125 0.53125,-10.28125 0.84375,-10.15625 1.15625,-10.0625 1.5,-10 1.84375,-9.875 2.125,-9.75 2.4375,-9.625 2.71875,-9.53125 3.0625,-9.40625 3.34375,-9.25 3.59375,-9.125 3.90625,-8.96875 4.1875,-8.875 4.46875,-8.625 4.6875,-8.53125 4.96875,-8.375 5.21875,-8.15625 5.5,-8 5.6875,-7.84375 5.96875,-7.65625 6.187491,-7.4375 6.375,-7.25 6.65625,-7.03125 6.84375,-6.8125 7.0625,-6.65625 7.25,-6.40625 7.46875,-6.1875 6.34375,-4.9375 -1.03125,0 z m -4.9375,0 -5.625,4.21875 -8.09375,6.5 -7.90625,6.71875 -7.65625,6.96875 -7.4375,7.21875 -7.1875,7.4375 -6.968741,7.65625 -6.71875,7.875 -6.46875,8.09375 -6.21875,8.28125 -5.9375,8.5 -5.71875,8.6875 -5.375,8.90625 -5.125,9.0625 -4.84375,9.21875 -4.5625,9.4375 -4.25,9.5625 -3.9375,9.6875 -3.59375,9.90625 -3.34375,10.03125 -2.96875,10.15625 -2.65625,10.3125 -2.34375,10.40625 -2,10.5625 -1.625,10.65625 -1.28125,10.78125 -0.90625,10.875 -0.5625,11 -0.1875,11.0625 0.4375,16.625 1.21875,16.46875 2.09375,16.1875 2.875,15.9375 3.65625,15.65625 4.375,15.375 5.15625,15.03125 5.84375,14.71875 6.5625,14.34375 7.1875,14 7.875,13.53125 8.5,13.125 9.09375,12.71875 9.6875,12.28125 10.249991,11.71875 10.8125,11.28125 11.34375,10.71875 11.84375,10.21875 12.3125,9.59375 12.8125,9.03125 13.25,8.46875 13.625,7.8125 14.09375,7.15625 14.4375,6.46875 14.8125,5.8125 15.15625,5.09375 15.46875,4.40625 15.75,3.625 16.0625,2.8125 16.34375,2.09375 16.53125,1.25 16.75,0.4375 16.78125,-0.4375 16.53125,-1.25 16.34375,-2.09375 16.0625,-2.8125 15.75,-3.625 15.46875,-4.40625 15.15625,-5.09375 14.8125,-5.8125 14.4375,-6.46875 14.09375,-7.15625 13.625,-7.8125 13.25,-8.46875 12.78125,-9.03125 12.34375,-9.59375 L 561.24999,500.5 572.59374,489.78125 583.37499,478.5 l 10.28125,-11.71875 9.6875,-12.28125 9.09375,-12.71875 8.5,-13.125 7.875,-13.53125 7.1875,-14 6.5625,-14.34375 5.84375,-14.71875 5.125,-15.03125 4.40625,-15.375 3.65625,-15.65625 2.875,-15.9375 2.09375,-16.1875 1.21875,-16.46875 0.4375,-16.625 -0.1875,-10.9375 -0.53125,-10.875 -0.90625,-10.71875 -1.25,-10.6875 -1.59375,-10.5 -1.9375,-10.46875 -2.28125,-10.3125 -2.59375,-10.1875 -2.9375,-10.03125 -3.21875,-9.9375 -3.53125,-9.8125 -3.875,-9.59375 -4.15625,-9.5 -4.4375,-9.3125 -4.71875,-9.15625 -5.03125,-9 -5.28125,-8.8125 -5.5625,-8.625 -5.8125,-8.40625 -6.09375,-8.28125 -6.3125,-8.03125 -6.59375,-7.84375 -6.84375,-7.65625 -7.03125,-7.375 -7.28125,-7.21875 -7.5,-6.9375 -7.71875,-6.71875 -7.9375,-6.5 L 536.90624,1.125 536.71874,1 l -1.03125,0 0.84375,0.59375 8.125,6.25 7.90625,6.5 7.71875,6.6875 7.46875,6.9375 7.28125,7.1875 7.03125,7.40625 6.8125,7.59375 6.59375,7.8125 6.3125,8.0625 6.0625,8.21875 5.8125,8.4375 5.5625,8.59375 5.28125,8.78125 5,8.96875 4.6875,9.15625 4.4375,9.3125 4.15625,9.46875 3.84375,9.59375 3.5625,9.75 3.21875,9.90625 2.90625,10.03125 2.59375,10.1875 2.25,10.3125 1.96875,10.40625 1.59375,10.53125 1.21875,10.625 0.9375,10.71875 0.53125,10.8125 0.15625,10.9375 -0.40625,16.59375 -1.25,16.40625 -2.09375,16.15625 -2.875,15.90625 -3.59375,15.6875 -4.40625,15.28125 -5.125,15.03125 -5.84375,14.6875 -6.53125,14.3125 -7.1875,13.9375 -7.875,13.5625 -8.46875,13.09375 -9.0625,12.6875 -9.6875,12.21875 -10.21875,11.71875 -10.8125,11.25 -11.3125,10.71875 -11.84375,10.1875 -12.28125,9.59375 -12.75,9.03125 -13.21875,8.40625 -13.65625,7.78125 -14.03125,7.1875 -14.40625,6.46875 -14.78125,5.78125 -15.125,5.09375 -15.4375,4.375 -15.75,3.59375 -16,2.875 -16.3125,2.0625 -16.5,1.25 -16.75,0.40625 -16.71875,-0.40625 -16.5,-1.25 -16.3125,-2.0625 -16,-2.875 -15.75,-3.59375 -15.4375,-4.375 -15.125,-5.09375 -14.78125,-5.78125 -14.40625,-6.46875 -14.03125,-7.1875 -13.65625,-7.78125 -13.21875,-8.40625 -12.75,-9.03125 -12.3125,-9.59375 -11.8125,-10.1875 -11.3125,-10.71875 -10.8125,-11.25 -10.218741,-11.71875 -9.6875,-12.21875 -9.0625,-12.6875 -8.46875,-13.09375 -7.875,-13.5625 -7.1875,-13.9375 -6.53125,-14.3125 -5.84375,-14.6875 -5.125,-15.03125 -4.40625,-15.28125 -3.625,-15.6875 -2.84375,-15.90625 -2.09375,-16.15625 -1.25,-16.40625 -0.4375,-16.59375 0.1875,-11.0625 0.5625,-10.96875 0.9375,-10.84375 1.28125,-10.75 1.625,-10.625 1.96875,-10.53125 2.3125,-10.4375 2.65625,-10.25 2.96875,-10.15625 3.34375,-10 3.59375,-9.875 3.9375,-9.6875 4.25,-9.59375 4.53125,-9.375 4.84375,-9.21875 5.09375,-9.03125 5.40625,-8.84375 5.6875,-8.6875 5.90625,-8.46875 6.21875,-8.3125 6.4375,-8.0625 6.71875,-7.875 6.968741,-7.65625 7.1875,-7.40625 7.40625,-7.1875 7.65625,-6.96875 7.84375,-6.6875 8.09375,-6.5 6.3125,-4.71875 -1.0625,0 z m -4.90625,0 -0.84375,0.59375 -8.6875,6.53125 -8.5,6.78125 -8.25,7.03125 -8,7.28125 -7.8125,7.53125 -7.531241,7.78125 -7.28125,8.03125 -7.03125,8.21875 -6.78125,8.46875 -6.5,8.6875 -6.25,8.84375 -5.96875,9.125 -5.625,9.28125 -5.375,9.46875 -5.0625,9.65625 -4.75,9.84375 -4.46875,10 -4.125,10.15625 -3.78125,10.375 -3.46875,10.46875 -3.15625,10.625 -2.75,10.78125 L 7.875,207.46875 5.78125,218.53125 4.09375,229.6875 2.75,240.96875 1.78125,252.34375 1.1875,263.8125 1,275.40625 1.4375,292.8125 2.75,309.96875 4.9375,326.875 l 2.96875,16.6875 3.843749,16.375 4.59375,16.0625 5.375,15.71875 6.125,15.34375 6.84375,15.03125 7.53125,14.59375 8.21875,14.1875 8.875,13.75 9.53125,13.25 10.125,12.8125 10.6875,12.25 11.312491,11.78125 11.84375,11.21875 12.40625,10.6875 12.84375,10.0625 13.40625,9.40625 13.8125,8.84375 14.28125,8.125 14.6875,7.53125 15.09375,6.75 15.5,6.09375 15.84375,5.3125 16.1875,4.59375 16.46875,3.78125 16.78125,2.96875 17.03125,2.15625 17.28125,1.3125 17.53125,0.4375 17.5625,-0.4375 17.28125,-1.3125 17.03125,-2.15625 16.78125,-2.96875 16.46875,-3.78125 16.1875,-4.59375 15.84375,-5.3125 15.5,-6.09375 15.09375,-6.75 14.6875,-7.53125 14.28125,-8.125 13.8125,-8.84375 13.40625,-9.40625 12.84375,-10.0625 12.40625,-10.6875 11.84375,-11.21875 11.3125,-11.78125 10.6875,-12.25 10.125,-12.8125 9.53125,-13.25 8.875,-13.75 8.21875,-14.1875 7.53125,-14.59375 6.84375,-15.03125 6.125,-15.34375 5.375,-15.71875 4.59375,-16.0625 3.8125,-16.375 3,-16.6875 2.1875,-16.90625 1.3125,-17.15625 0.4375,-17.40625 -0.1875,-11.59375 -0.59375,-11.46875 -0.96875,-11.375 -1.34375,-11.28125 -1.6875,-11.15625 -2.09375,-11.03125 -2.40625,-10.90625 -2.8125,-10.71875 -3.125,-10.65625 -3.46875,-10.46875 -3.78125,-10.34375 -4.15625,-10.1875 -4.4375,-9.96875 -4.75,-9.875 -5.0625,-9.625 -5.34375,-9.5 -5.65625,-9.28125 -5.96875,-9.0625 -6.1875,-8.90625 -6.53125,-8.65625 -6.75,-8.46875 -7.03125,-8.25 -7.3125,-8 -7.5,-7.75 -7.78125,-7.5625 -8.03125,-7.25 L 559.74999,15 551.28124,8.25 542.59374,1.71875 541.56249,1 l -1.125,0 1.78125,1.25 8.6875,6.46875 8.46875,6.78125 8.21875,7 8,7.28125 7.75,7.53125 7.53125,7.78125 7.25,7.96875 7.03125,8.21875 6.75,8.46875 6.5,8.65625 6.21875,8.84375 5.9375,9.0625 5.625,9.28125 5.34375,9.4375 5.0625,9.625 4.75,9.8125 4.4375,10 4.09375,10.1875 3.8125,10.3125 3.46875,10.4375 3.125,10.59375 2.75,10.78125 2.4375,10.875 2.0625,11.03125 1.71875,11.125 1.34375,11.21875 0.9375,11.34375 0.625,11.46875 0.15625,11.5625 -0.40625,17.34375 -1.3125,17.15625 -2.1875,16.90625 -3,16.625 -3.78125,16.34375 -4.625,16 -5.34375,15.6875 -6.09375,15.34375 -6.84375,15 -7.5,14.5625 -8.21875,14.125 -8.875,13.75 -9.46875,13.25 -10.125,12.78125 -10.71875,12.25 -11.28125,11.75 -11.8125,11.21875 -12.34375,10.625 -12.875,10.03125 -13.34375,9.40625 -13.8125,8.84375 -14.25,8.09375 -14.6875,7.46875 -15.03125,6.8125 -15.46875,6.0625 -15.78125,5.3125 -16.1875,4.53125 -16.4375,3.8125 -16.75,2.96875 -17,2.15625 -17.25,1.3125 -17.53125,0.4375 -17.5,-0.4375 -17.25,-1.3125 -17,-2.15625 -16.75,-2.96875 -16.46875,-3.8125 -16.15625,-4.53125 -15.78125,-5.3125 -15.46875,-6.0625 -15.0625,-6.8125 -14.65625,-7.46875 -14.25,-8.09375 -13.8125,-8.84375 -13.34375,-9.40625 -12.875,-10.03125 -12.34375,-10.625 -11.8125,-11.21875 -11.281241,-11.75 -10.71875,-12.25 -10.125,-12.78125 -9.46875,-13.25 -8.875,-13.75 -8.21875,-14.125 -7.5,-14.5625 -6.84375,-15 -6.09375,-15.34375 -5.34375,-15.6875 -4.625,-16 L 8.5625,343.4375 5.53125,326.8125 3.375,309.90625 2.0625,292.75 1.65625,275.40625 1.8125,263.84375 2.4375,252.375 3.375,241 4.71875,229.75 6.4375,218.625 l 2.09375,-11 2.406249,-10.90625 2.78125,-10.75 3.125,-10.625 3.46875,-10.46875 3.8125,-10.3125 4.09375,-10.15625 4.4375,-10 4.75,-9.8125 5.0625,-9.625 5.34375,-9.46875 5.6875,-9.25 5.90625,-9.0625 6.25,-8.90625 6.46875,-8.625 6.78125,-8.4375 7,-8.28125 7.28125,-7.96875 7.531241,-7.75 7.75,-7.53125 8.03125,-7.28125 8.25,-7 8.46875,-6.78125 8.6875,-6.46875 L 143.56249,1 142.34374,1 z"
     id="path4152"
     style="fill:#000000;fill-opacity:1;fill-rule:nonzero;stroke:#000000;stroke-width:1.99999952;stroke-miterlimit:4;stroke-opacity:1;stroke-dasharray:none" />
</svg>
